G04 Layer_Physical_Order=2*
G04 Layer_Color=16722217*
%FSLAX25Y25*%
%MOIN*%
G70*
G01*
G75*
%ADD10C,0.01000*%
%ADD39C,0.04724*%
%ADD40C,0.07087*%
%ADD41C,0.01969*%
%ADD42C,0.02756*%
%ADD43C,0.02362*%
%ADD44C,0.05000*%
%ADD45R,0.14173X0.03937*%
%ADD46R,0.05906X0.28346*%
%ADD47R,0.05906X0.23228*%
%ADD48R,0.12598X0.12205*%
G36*
X442981Y313099D02*
X447326Y312527D01*
X451623Y311672D01*
X455856Y310538D01*
X460006Y309130D01*
X464054Y307453D01*
X467984Y305514D01*
X471779Y303323D01*
X475423Y300889D01*
X478899Y298221D01*
X482194Y295332D01*
X485293Y292233D01*
X488182Y288939D01*
X490850Y285462D01*
X493284Y281819D01*
X495475Y278024D01*
X497413Y274094D01*
X499090Y270045D01*
X500499Y265896D01*
X501633Y261663D01*
X502488Y257365D01*
X503060Y253020D01*
X503346Y248648D01*
Y244266D01*
X503060Y239893D01*
X502488Y235548D01*
X501633Y231251D01*
X500499Y227018D01*
X499090Y222868D01*
X497413Y218820D01*
X495475Y214890D01*
X493284Y211094D01*
X490850Y207451D01*
X488182Y203975D01*
X485293Y200680D01*
X482194Y197581D01*
X478899Y194692D01*
X475423Y192024D01*
X471779Y189590D01*
X467984Y187399D01*
X464054Y185461D01*
X460006Y183784D01*
X455856Y182375D01*
X451623Y181241D01*
X447326Y180386D01*
X442981Y179814D01*
X438608Y179527D01*
X434226D01*
X429854Y179814D01*
X425509Y180386D01*
X421211Y181241D01*
X416978Y182375D01*
X412829Y183784D01*
X408780Y185461D01*
X404850Y187399D01*
X401055Y189590D01*
X397412Y192024D01*
X393935Y194692D01*
X390641Y197581D01*
X387542Y200680D01*
X384653Y203975D01*
X381985Y207451D01*
X379551Y211094D01*
X377360Y214890D01*
X375421Y218820D01*
X373744Y222868D01*
X372336Y227018D01*
X371202Y231251D01*
X370347Y235548D01*
X369775Y239893D01*
X369488Y244266D01*
Y248648D01*
X369775Y253020D01*
X370347Y257365D01*
X371202Y261663D01*
X372336Y265896D01*
X373744Y270045D01*
X375421Y274094D01*
X377360Y278024D01*
X379551Y281819D01*
X381985Y285462D01*
X384653Y288939D01*
X387542Y292233D01*
X390641Y295332D01*
X393935Y298221D01*
X397412Y300889D01*
X401055Y303323D01*
X404850Y305514D01*
X408780Y307453D01*
X412829Y309130D01*
X416978Y310538D01*
X421211Y311672D01*
X425509Y312527D01*
X429854Y313099D01*
X434226Y313386D01*
X438608D01*
X442981Y313099D01*
D02*
G37*
%LPC*%
G36*
X385039Y218352D02*
X384162Y218236D01*
X383344Y217898D01*
X382641Y217359D01*
X382102Y216656D01*
X381764Y215838D01*
X381648Y214961D01*
X381764Y214083D01*
X382102Y213265D01*
X382641Y212563D01*
X383344Y212024D01*
X384162Y211685D01*
X385039Y211569D01*
X385917Y211685D01*
X386735Y212024D01*
X387437Y212563D01*
X387976Y213265D01*
X388315Y214083D01*
X388431Y214961D01*
X388315Y215838D01*
X387976Y216656D01*
X387437Y217359D01*
X386735Y217898D01*
X385917Y218236D01*
X385039Y218352D01*
D02*
G37*
G36*
X488189Y218352D02*
X487311Y218236D01*
X486493Y217898D01*
X485791Y217359D01*
X485252Y216656D01*
X484913Y215838D01*
X484798Y214961D01*
X484913Y214083D01*
X485252Y213265D01*
X485791Y212563D01*
X486493Y212024D01*
X487311Y211685D01*
X488189Y211569D01*
X489067Y211685D01*
X489885Y212024D01*
X490587Y212563D01*
X491126Y213265D01*
X491465Y214083D01*
X491580Y214961D01*
X491465Y215838D01*
X491126Y216656D01*
X490587Y217359D01*
X489885Y217898D01*
X489067Y218236D01*
X488189Y218352D01*
D02*
G37*
G36*
X407874Y244149D02*
X407100Y243995D01*
X406444Y243557D01*
X406005Y242900D01*
X405851Y242126D01*
X406005Y241352D01*
X406212Y241042D01*
X406254Y240947D01*
X406291Y240895D01*
X406306Y240870D01*
X406319Y240847D01*
X406328Y240825D01*
X406336Y240805D01*
X406342Y240784D01*
X406347Y240763D01*
X406351Y240741D01*
X406353Y240716D01*
X406355Y240656D01*
X406396Y240477D01*
X406432Y240298D01*
X406441Y240284D01*
X406445Y240268D01*
X406551Y240119D01*
X406653Y239967D01*
X406667Y239958D01*
X406676Y239945D01*
X406762Y239891D01*
Y236487D01*
X406676Y236433D01*
X406667Y236420D01*
X406653Y236411D01*
X406551Y236259D01*
X406445Y236110D01*
X406441Y236094D01*
X406432Y236081D01*
X406396Y235901D01*
X406355Y235722D01*
X406353Y235662D01*
X406351Y235637D01*
X406347Y235615D01*
X406342Y235594D01*
X406336Y235573D01*
X406328Y235553D01*
X406319Y235531D01*
X406306Y235508D01*
X406291Y235483D01*
X406254Y235431D01*
X406212Y235335D01*
X406005Y235026D01*
X405851Y234252D01*
X406005Y233478D01*
X406444Y232821D01*
X406589Y232724D01*
X406613Y232695D01*
X406687Y232634D01*
X406728Y232595D01*
X406756Y232565D01*
X406756Y232558D01*
X406809Y232398D01*
X406852Y232234D01*
X406871Y232210D01*
X406880Y232181D01*
X406991Y232052D01*
X407093Y231918D01*
X407120Y231903D01*
X407140Y231879D01*
X407156Y231872D01*
Y226022D01*
X407135Y226020D01*
X407075Y225991D01*
X407009Y225977D01*
X406898Y225903D01*
X406778Y225844D01*
X406764Y225833D01*
X406683Y225801D01*
X406568Y225764D01*
X405047Y225456D01*
X404636Y225395D01*
X404550Y225364D01*
X404240Y225323D01*
X403422Y224984D01*
X402720Y224445D01*
X402181Y223743D01*
X401842Y222925D01*
X401727Y222047D01*
X401842Y221170D01*
X402181Y220352D01*
X402720Y219649D01*
X403422Y219110D01*
X404240Y218772D01*
X405118Y218656D01*
X405996Y218772D01*
X406814Y219110D01*
X407516Y219649D01*
X408055Y220352D01*
X408394Y221170D01*
X408434Y221475D01*
X408464Y221558D01*
X408592Y222378D01*
X408713Y223013D01*
X408828Y223476D01*
X408872Y223613D01*
X408904Y223693D01*
X408915Y223708D01*
X408974Y223827D01*
X409048Y223938D01*
X409061Y224004D01*
X409091Y224064D01*
X409100Y224198D01*
X409126Y224328D01*
X409113Y224394D01*
X409117Y224462D01*
X409107Y224490D01*
X409295Y224771D01*
X409380Y225197D01*
Y232454D01*
X409480Y232519D01*
X409519Y232576D01*
X409571Y232622D01*
X409630Y232739D01*
X409705Y232847D01*
X409719Y232915D01*
X409750Y232977D01*
X409760Y233108D01*
X409787Y233236D01*
X409793Y233721D01*
X409794Y233734D01*
X409897Y234252D01*
X409743Y235026D01*
X409537Y235335D01*
X409494Y235431D01*
X409457Y235483D01*
X409442Y235508D01*
X409430Y235531D01*
X409420Y235553D01*
X409412Y235573D01*
X409406Y235594D01*
X409401Y235615D01*
X409397Y235637D01*
X409395Y235662D01*
X409393Y235722D01*
X409352Y235901D01*
X409316Y236081D01*
X409307Y236094D01*
X409303Y236110D01*
X409197Y236259D01*
X409095Y236411D01*
X409082Y236420D01*
X409072Y236433D01*
X408986Y236487D01*
Y239891D01*
X409072Y239945D01*
X409082Y239958D01*
X409095Y239967D01*
X409197Y240119D01*
X409303Y240268D01*
X409307Y240284D01*
X409316Y240298D01*
X409352Y240477D01*
X409393Y240656D01*
X409395Y240716D01*
X409397Y240741D01*
X409401Y240763D01*
X409406Y240784D01*
X409412Y240805D01*
X409420Y240825D01*
X409430Y240847D01*
X409442Y240870D01*
X409457Y240895D01*
X409494Y240947D01*
X409537Y241042D01*
X409743Y241352D01*
X409897Y242126D01*
X409743Y242900D01*
X409305Y243557D01*
X408648Y243995D01*
X407874Y244149D01*
D02*
G37*
G36*
X483071Y275110D02*
X482143Y274925D01*
X481356Y274399D01*
X480831Y273613D01*
X480646Y272685D01*
X480831Y271757D01*
X481356Y270971D01*
X481576Y270824D01*
X481612Y270782D01*
X481767Y270662D01*
X482015Y270446D01*
X482090Y270372D01*
X482147Y270309D01*
X482177Y270269D01*
X482178Y270267D01*
X482186Y270252D01*
X482206Y270188D01*
X482262Y270004D01*
X482266Y269999D01*
X482268Y269993D01*
X482392Y269845D01*
X482514Y269696D01*
X482519Y269693D01*
X482524Y269688D01*
X482549Y269674D01*
Y250353D01*
X482485Y250315D01*
X482466Y250290D01*
X482441Y250273D01*
X482347Y250132D01*
X482245Y249998D01*
X482237Y249968D01*
X482219Y249942D01*
X482187Y249777D01*
X482144Y249613D01*
X482141Y249569D01*
X482140Y249564D01*
X482133Y249537D01*
X482116Y249488D01*
X482087Y249422D01*
X482055Y249359D01*
X481828Y248997D01*
X481735Y248868D01*
X481690Y248771D01*
X481422Y248369D01*
X481237Y247441D01*
X481422Y246513D01*
X481947Y245727D01*
X482734Y245201D01*
X483661Y245017D01*
X484589Y245201D01*
X485376Y245727D01*
X485901Y246513D01*
X486086Y247441D01*
X485901Y248369D01*
X485633Y248771D01*
X485588Y248868D01*
X485483Y249012D01*
X485407Y249124D01*
X485272Y249350D01*
X485236Y249422D01*
X485207Y249488D01*
X485190Y249537D01*
X485183Y249564D01*
X485182Y249569D01*
X485179Y249613D01*
X485136Y249777D01*
X485103Y249942D01*
X485086Y249968D01*
X485078Y249998D01*
X484976Y250132D01*
X484882Y250273D01*
X484856Y250290D01*
X484838Y250315D01*
X484773Y250353D01*
Y270218D01*
X484849Y270263D01*
X484892Y270322D01*
X484949Y270369D01*
X485009Y270481D01*
X485085Y270584D01*
X485102Y270655D01*
X485137Y270719D01*
X485149Y270846D01*
X485180Y270970D01*
X485196Y271322D01*
X485203Y271384D01*
X485233Y271563D01*
X485245Y271617D01*
X485266Y271691D01*
X485311Y271757D01*
X485495Y272685D01*
X485311Y273613D01*
X484785Y274399D01*
X483998Y274925D01*
X483071Y275110D01*
D02*
G37*
G36*
X388976Y259897D02*
X388202Y259743D01*
X387546Y259305D01*
X387107Y258648D01*
X386953Y257874D01*
X387107Y257100D01*
X387314Y256791D01*
X387356Y256695D01*
X387393Y256643D01*
X387408Y256618D01*
X387421Y256595D01*
X387431Y256573D01*
X387438Y256553D01*
X387445Y256532D01*
X387449Y256511D01*
X387453Y256489D01*
X387455Y256464D01*
X387457Y256404D01*
X387499Y256225D01*
X387534Y256046D01*
X387543Y256032D01*
X387547Y256016D01*
X387653Y255867D01*
X387755Y255715D01*
X387769Y255706D01*
X387778Y255693D01*
X387864Y255639D01*
Y249086D01*
X387778Y249032D01*
X387769Y249019D01*
X387755Y249010D01*
X387653Y248857D01*
X387547Y248708D01*
X387543Y248692D01*
X387534Y248679D01*
X387499Y248499D01*
X387457Y248320D01*
X387455Y248261D01*
X387453Y248236D01*
X387449Y248213D01*
X387445Y248192D01*
X387438Y248172D01*
X387431Y248151D01*
X387421Y248130D01*
X387408Y248106D01*
X387393Y248081D01*
X387356Y248029D01*
X387314Y247934D01*
X387107Y247625D01*
X386953Y246850D01*
X387107Y246076D01*
X387546Y245420D01*
X388202Y244981D01*
X388976Y244827D01*
X389751Y244981D01*
X390407Y245420D01*
X390845Y246076D01*
X391000Y246850D01*
X390845Y247625D01*
X390639Y247934D01*
X390596Y248029D01*
X390560Y248081D01*
X390544Y248106D01*
X390532Y248130D01*
X390522Y248151D01*
X390514Y248172D01*
X390508Y248192D01*
X390503Y248213D01*
X390500Y248236D01*
X390497Y248261D01*
X390495Y248321D01*
X390454Y248499D01*
X390418Y248679D01*
X390409Y248692D01*
X390406Y248708D01*
X390299Y248857D01*
X390197Y249010D01*
X390184Y249019D01*
X390175Y249032D01*
X390088Y249086D01*
Y255639D01*
X390175Y255693D01*
X390184Y255706D01*
X390197Y255715D01*
X390299Y255867D01*
X390406Y256016D01*
X390409Y256032D01*
X390418Y256046D01*
X390454Y256225D01*
X390495Y256404D01*
X390497Y256464D01*
X390500Y256489D01*
X390503Y256511D01*
X390508Y256532D01*
X390514Y256553D01*
X390522Y256573D01*
X390532Y256595D01*
X390544Y256618D01*
X390560Y256643D01*
X390596Y256695D01*
X390639Y256791D01*
X390845Y257100D01*
X391000Y257874D01*
X390845Y258648D01*
X390407Y259305D01*
X389751Y259743D01*
X388976Y259897D01*
D02*
G37*
G36*
X420717Y223283D02*
X419942Y223129D01*
X419286Y222690D01*
X418847Y222034D01*
X418693Y221260D01*
X418847Y220486D01*
X419286Y219829D01*
X419459Y219714D01*
Y213848D01*
X419140Y213635D01*
X418702Y212979D01*
X418548Y212205D01*
X418702Y211431D01*
X419140Y210774D01*
X419797Y210336D01*
X420571Y210182D01*
X421345Y210336D01*
X422001Y210774D01*
X422440Y211431D01*
X422594Y212205D01*
X422440Y212979D01*
X422001Y213635D01*
X421683Y213848D01*
Y219519D01*
X422147Y219829D01*
X422586Y220486D01*
X422740Y221260D01*
X422586Y222034D01*
X422147Y222690D01*
X421491Y223129D01*
X420717Y223283D01*
D02*
G37*
G36*
X450787Y245330D02*
X450013Y245176D01*
X449357Y244738D01*
X448918Y244081D01*
X448764Y243307D01*
X448918Y242533D01*
X449125Y242224D01*
X449167Y242128D01*
X449204Y242076D01*
X449220Y242051D01*
X449232Y242028D01*
X449242Y242006D01*
X449249Y241986D01*
X449256Y241965D01*
X449260Y241944D01*
X449264Y241922D01*
X449266Y241897D01*
X449268Y241837D01*
X449310Y241658D01*
X449345Y241479D01*
X449354Y241465D01*
X449358Y241449D01*
X449465Y241300D01*
X449566Y241148D01*
X449580Y241139D01*
X449589Y241126D01*
X449676Y241072D01*
Y234369D01*
X449176Y234319D01*
X449113Y234632D01*
X448675Y235289D01*
X448018Y235727D01*
X447244Y235881D01*
X446470Y235727D01*
X446423Y235696D01*
X445998Y236014D01*
X446118Y236614D01*
X445964Y237388D01*
X445525Y238045D01*
X444869Y238483D01*
X444095Y238637D01*
X443320Y238483D01*
X442664Y238045D01*
X442225Y237388D01*
X442071Y236614D01*
X442225Y235840D01*
X442432Y235531D01*
X442475Y235435D01*
X442511Y235383D01*
X442527Y235358D01*
X442539Y235335D01*
X442549Y235314D01*
X442556Y235293D01*
X442563Y235273D01*
X442567Y235251D01*
X442571Y235229D01*
X442573Y235204D01*
X442575Y235144D01*
X442617Y234965D01*
X442653Y234786D01*
X442662Y234772D01*
X442665Y234756D01*
X442772Y234607D01*
X442873Y234455D01*
X442887Y234446D01*
X442896Y234433D01*
X442983Y234379D01*
Y203937D01*
X442983Y203937D01*
X442999Y203854D01*
X442859Y203150D01*
X443013Y202375D01*
X443451Y201719D01*
X444108Y201280D01*
X444882Y201127D01*
X445656Y201280D01*
X446312Y201719D01*
X446751Y202375D01*
X446905Y203150D01*
X446751Y203924D01*
X446312Y204580D01*
X445656Y205019D01*
X445206Y205108D01*
Y220232D01*
X445706Y220383D01*
X445814Y220223D01*
X446470Y219784D01*
X447244Y219630D01*
X448018Y219784D01*
X448675Y220223D01*
X449113Y220879D01*
X449267Y221654D01*
X449113Y222428D01*
X448907Y222737D01*
X448864Y222832D01*
X448828Y222884D01*
X448812Y222909D01*
X448800Y222933D01*
X448790Y222954D01*
X448782Y222975D01*
X448776Y222995D01*
X448771Y223016D01*
X448767Y223039D01*
X448765Y223064D01*
X448763Y223124D01*
X448722Y223302D01*
X448686Y223482D01*
X448677Y223496D01*
X448673Y223511D01*
X448567Y223660D01*
X448465Y223813D01*
X448452Y223822D01*
X448442Y223835D01*
X448356Y223889D01*
Y227836D01*
X448856Y227885D01*
X448918Y227572D01*
X449357Y226916D01*
X450013Y226477D01*
X450787Y226323D01*
X451562Y226477D01*
X452218Y226916D01*
X452657Y227572D01*
X452810Y228346D01*
X452657Y229121D01*
X452450Y229430D01*
X452407Y229525D01*
X452371Y229577D01*
X452355Y229602D01*
X452343Y229626D01*
X452333Y229647D01*
X452325Y229668D01*
X452319Y229688D01*
X452314Y229709D01*
X452311Y229732D01*
X452308Y229757D01*
X452307Y229817D01*
X452265Y229995D01*
X452229Y230175D01*
X452220Y230188D01*
X452217Y230204D01*
X452110Y230353D01*
X452008Y230506D01*
X451995Y230515D01*
X451986Y230528D01*
X451899Y230582D01*
Y241072D01*
X451986Y241126D01*
X451995Y241139D01*
X452008Y241148D01*
X452110Y241300D01*
X452217Y241449D01*
X452220Y241465D01*
X452229Y241479D01*
X452265Y241658D01*
X452307Y241837D01*
X452308Y241897D01*
X452311Y241922D01*
X452314Y241945D01*
X452319Y241965D01*
X452325Y241986D01*
X452333Y242006D01*
X452343Y242028D01*
X452355Y242051D01*
X452371Y242076D01*
X452407Y242128D01*
X452450Y242224D01*
X452657Y242533D01*
X452810Y243307D01*
X452657Y244081D01*
X452218Y244738D01*
X451562Y245176D01*
X450787Y245330D01*
D02*
G37*
G36*
X436614Y248873D02*
X435840Y248720D01*
X435184Y248281D01*
X434745Y247625D01*
X434591Y246850D01*
X434745Y246076D01*
X434952Y245767D01*
X434994Y245671D01*
X435031Y245620D01*
X435046Y245594D01*
X435059Y245571D01*
X435068Y245550D01*
X435076Y245529D01*
X435082Y245509D01*
X435087Y245488D01*
X435091Y245465D01*
X435093Y245440D01*
X435095Y245380D01*
X435136Y245202D01*
X435172Y245022D01*
X435181Y245008D01*
X435185Y244993D01*
X435291Y244844D01*
X435393Y244691D01*
X435407Y244682D01*
X435416Y244669D01*
X435502Y244615D01*
Y229794D01*
X435416Y229740D01*
X435407Y229727D01*
X435393Y229718D01*
X435291Y229566D01*
X435185Y229417D01*
X435181Y229401D01*
X435172Y229388D01*
X435136Y229208D01*
X435095Y229029D01*
X435093Y228969D01*
X435091Y228944D01*
X435087Y228922D01*
X435082Y228901D01*
X435076Y228880D01*
X435068Y228860D01*
X435059Y228838D01*
X435046Y228815D01*
X435031Y228790D01*
X434994Y228738D01*
X434952Y228643D01*
X434745Y228333D01*
X434591Y227559D01*
X434745Y226785D01*
X435184Y226129D01*
X435840Y225690D01*
X436614Y225536D01*
X437388Y225690D01*
X438045Y226129D01*
X438483Y226785D01*
X438637Y227559D01*
X438483Y228333D01*
X438277Y228643D01*
X438234Y228738D01*
X438198Y228790D01*
X438182Y228815D01*
X438170Y228838D01*
X438160Y228860D01*
X438152Y228880D01*
X438146Y228901D01*
X438141Y228922D01*
X438137Y228944D01*
X438135Y228969D01*
X438133Y229029D01*
X438092Y229208D01*
X438056Y229388D01*
X438047Y229401D01*
X438043Y229417D01*
X437937Y229566D01*
X437835Y229718D01*
X437822Y229727D01*
X437812Y229740D01*
X437726Y229794D01*
Y244615D01*
X437812Y244669D01*
X437822Y244682D01*
X437835Y244691D01*
X437937Y244844D01*
X438043Y244993D01*
X438047Y245008D01*
X438056Y245022D01*
X438092Y245202D01*
X438133Y245380D01*
X438135Y245440D01*
X438137Y245465D01*
X438141Y245488D01*
X438146Y245509D01*
X438152Y245529D01*
X438160Y245550D01*
X438170Y245571D01*
X438182Y245594D01*
X438198Y245620D01*
X438234Y245671D01*
X438277Y245767D01*
X438483Y246076D01*
X438637Y246850D01*
X438483Y247625D01*
X438045Y248281D01*
X437388Y248720D01*
X436614Y248873D01*
D02*
G37*
G36*
X470079Y241393D02*
X469305Y241239D01*
X468648Y240801D01*
X468210Y240144D01*
X468056Y239370D01*
X468210Y238596D01*
X468416Y238287D01*
X468459Y238191D01*
X468495Y238139D01*
X468511Y238114D01*
X468523Y238091D01*
X468533Y238070D01*
X468541Y238049D01*
X468547Y238028D01*
X468552Y238007D01*
X468555Y237985D01*
X468558Y237960D01*
X468560Y237900D01*
X468601Y237721D01*
X468637Y237542D01*
X468646Y237528D01*
X468649Y237512D01*
X468756Y237363D01*
X468858Y237211D01*
X468871Y237202D01*
X468881Y237189D01*
X468967Y237135D01*
Y230188D01*
X468881Y230134D01*
X468871Y230121D01*
X468858Y230112D01*
X468756Y229960D01*
X468649Y229810D01*
X468646Y229795D01*
X468637Y229781D01*
X468601Y229601D01*
X468560Y229423D01*
X468558Y229363D01*
X468555Y229338D01*
X468552Y229315D01*
X468547Y229294D01*
X468541Y229274D01*
X468533Y229253D01*
X468523Y229232D01*
X468511Y229209D01*
X468495Y229184D01*
X468459Y229132D01*
X468416Y229036D01*
X468210Y228727D01*
X468056Y227953D01*
X468210Y227179D01*
X468648Y226522D01*
X469305Y226084D01*
X470079Y225930D01*
X470853Y226084D01*
X471509Y226522D01*
X471948Y227179D01*
X472102Y227953D01*
X471948Y228727D01*
X471741Y229036D01*
X471699Y229132D01*
X471662Y229184D01*
X471647Y229209D01*
X471634Y229232D01*
X471625Y229253D01*
X471617Y229274D01*
X471611Y229294D01*
X471606Y229315D01*
X471602Y229338D01*
X471600Y229363D01*
X471598Y229423D01*
X471557Y229602D01*
X471521Y229781D01*
X471512Y229795D01*
X471508Y229810D01*
X471402Y229960D01*
X471300Y230112D01*
X471286Y230121D01*
X471277Y230134D01*
X471191Y230188D01*
Y237135D01*
X471277Y237189D01*
X471286Y237202D01*
X471300Y237211D01*
X471402Y237363D01*
X471508Y237512D01*
X471512Y237528D01*
X471521Y237542D01*
X471557Y237721D01*
X471598Y237900D01*
X471600Y237960D01*
X471602Y237985D01*
X471606Y238007D01*
X471610Y238028D01*
X471617Y238049D01*
X471625Y238069D01*
X471634Y238091D01*
X471647Y238114D01*
X471662Y238139D01*
X471699Y238191D01*
X471741Y238287D01*
X471948Y238596D01*
X472102Y239370D01*
X471948Y240144D01*
X471509Y240801D01*
X470853Y241239D01*
X470079Y241393D01*
D02*
G37*
G36*
X377362Y247594D02*
X376176Y247438D01*
X375071Y246980D01*
X374122Y246252D01*
X373394Y245303D01*
X372936Y244198D01*
X372780Y243012D01*
X372936Y241826D01*
X373394Y240721D01*
X374122Y239772D01*
X375071Y239043D01*
X376176Y238585D01*
X377362Y238429D01*
X378548Y238585D01*
X379654Y239043D01*
X380603Y239772D01*
X381331Y240721D01*
X381789Y241826D01*
X381945Y243012D01*
X381789Y244198D01*
X381331Y245303D01*
X380603Y246252D01*
X379654Y246980D01*
X378548Y247438D01*
X377362Y247594D01*
D02*
G37*
G36*
X494882Y247496D02*
X493696Y247340D01*
X492591Y246882D01*
X491642Y246154D01*
X490913Y245205D01*
X490455Y244099D01*
X490299Y242913D01*
X490455Y241727D01*
X490913Y240622D01*
X491642Y239673D01*
X492591Y238945D01*
X493696Y238487D01*
X494882Y238331D01*
X496068Y238487D01*
X497173Y238945D01*
X498122Y239673D01*
X498850Y240622D01*
X499308Y241727D01*
X499464Y242913D01*
X499308Y244099D01*
X498850Y245205D01*
X498122Y246154D01*
X497173Y246882D01*
X496068Y247340D01*
X494882Y247496D01*
D02*
G37*
G36*
X474409Y246597D02*
X473635Y246443D01*
X472979Y246005D01*
X472540Y245349D01*
X472386Y244574D01*
X472540Y243800D01*
X472747Y243491D01*
X472789Y243395D01*
X472826Y243343D01*
X472842Y243318D01*
X472854Y243295D01*
X472864Y243274D01*
X472871Y243253D01*
X472878Y243233D01*
X472883Y243212D01*
X472886Y243189D01*
X472889Y243164D01*
X472890Y243104D01*
X472932Y242926D01*
X472967Y242746D01*
X472976Y242732D01*
X472980Y242717D01*
X473087Y242567D01*
X473188Y242415D01*
X473202Y242406D01*
X473211Y242393D01*
X473298Y242339D01*
Y223889D01*
X473211Y223835D01*
X473202Y223822D01*
X473188Y223813D01*
X473087Y223660D01*
X472980Y223511D01*
X472976Y223496D01*
X472967Y223482D01*
X472932Y223302D01*
X472890Y223124D01*
X472889Y223064D01*
X472886Y223039D01*
X472883Y223016D01*
X472878Y222995D01*
X472871Y222975D01*
X472864Y222954D01*
X472854Y222933D01*
X472842Y222909D01*
X472826Y222884D01*
X472789Y222832D01*
X472747Y222737D01*
X472540Y222428D01*
X472386Y221654D01*
X472540Y220879D01*
X472979Y220223D01*
X473635Y219784D01*
X474409Y219630D01*
X475184Y219784D01*
X475840Y220223D01*
X476279Y220879D01*
X476433Y221654D01*
X476279Y222428D01*
X476072Y222737D01*
X476029Y222832D01*
X475993Y222884D01*
X475977Y222909D01*
X475965Y222933D01*
X475955Y222954D01*
X475947Y222975D01*
X475941Y222995D01*
X475936Y223016D01*
X475933Y223039D01*
X475930Y223064D01*
X475928Y223124D01*
X475887Y223302D01*
X475851Y223482D01*
X475843Y223496D01*
X475839Y223511D01*
X475732Y223660D01*
X475630Y223813D01*
X475617Y223822D01*
X475608Y223835D01*
X475521Y223889D01*
Y242339D01*
X475608Y242393D01*
X475617Y242406D01*
X475630Y242415D01*
X475732Y242567D01*
X475839Y242717D01*
X475843Y242732D01*
X475851Y242746D01*
X475887Y242926D01*
X475928Y243104D01*
X475930Y243164D01*
X475933Y243189D01*
X475936Y243212D01*
X475941Y243233D01*
X475948Y243253D01*
X475955Y243274D01*
X475965Y243295D01*
X475977Y243318D01*
X475993Y243343D01*
X476029Y243395D01*
X476072Y243491D01*
X476279Y243800D01*
X476433Y244574D01*
X476279Y245349D01*
X475840Y246005D01*
X475184Y246443D01*
X474409Y246597D01*
D02*
G37*
G36*
X436221Y188431D02*
X435343Y188315D01*
X434525Y187976D01*
X433823Y187437D01*
X433284Y186735D01*
X432945Y185917D01*
X432829Y185039D01*
X432945Y184162D01*
X433284Y183344D01*
X433823Y182641D01*
X434525Y182103D01*
X435343Y181764D01*
X436221Y181648D01*
X437098Y181764D01*
X437916Y182103D01*
X438619Y182641D01*
X439157Y183344D01*
X439496Y184162D01*
X439612Y185039D01*
X439496Y185917D01*
X439157Y186735D01*
X438619Y187437D01*
X437916Y187976D01*
X437098Y188315D01*
X436221Y188431D01*
D02*
G37*
G36*
X405118Y207328D02*
X404240Y207213D01*
X403422Y206874D01*
X402720Y206335D01*
X402181Y205632D01*
X401842Y204815D01*
X401727Y203937D01*
X401842Y203059D01*
X402181Y202241D01*
X402720Y201539D01*
X403422Y201000D01*
X404240Y200661D01*
X405118Y200546D01*
X405996Y200661D01*
X406814Y201000D01*
X407516Y201539D01*
X408055Y202241D01*
X408394Y203059D01*
X408509Y203937D01*
X408394Y204815D01*
X408055Y205632D01*
X407516Y206335D01*
X406814Y206874D01*
X405996Y207213D01*
X405118Y207328D01*
D02*
G37*
G36*
X392520Y207328D02*
X391642Y207213D01*
X390824Y206874D01*
X390122Y206335D01*
X389583Y205633D01*
X389244Y204815D01*
X389128Y203937D01*
X389244Y203059D01*
X389583Y202241D01*
X390122Y201539D01*
X390824Y201000D01*
X391642Y200661D01*
X392520Y200546D01*
X393397Y200661D01*
X394215Y201000D01*
X394918Y201539D01*
X395457Y202241D01*
X395795Y203059D01*
X395911Y203937D01*
X395795Y204815D01*
X395457Y205633D01*
X394918Y206335D01*
X394215Y206874D01*
X393397Y207213D01*
X392520Y207328D01*
D02*
G37*
G36*
X442913Y277398D02*
X430315D01*
X429925Y277320D01*
X429594Y277099D01*
X429373Y276768D01*
X429295Y276378D01*
Y268949D01*
X428854Y268713D01*
X428727Y268798D01*
X427953Y268952D01*
X427178Y268798D01*
X426522Y268360D01*
X426084Y267703D01*
X425930Y266929D01*
X426084Y266155D01*
X426290Y265846D01*
X426333Y265750D01*
X426369Y265698D01*
X426385Y265673D01*
X426397Y265650D01*
X426407Y265629D01*
X426415Y265608D01*
X426421Y265587D01*
X426426Y265566D01*
X426429Y265544D01*
X426432Y265519D01*
X426434Y265459D01*
X426475Y265280D01*
X426511Y265101D01*
X426520Y265087D01*
X426523Y265072D01*
X426630Y264922D01*
X426732Y264770D01*
X426745Y264761D01*
X426755Y264748D01*
X426841Y264694D01*
Y245542D01*
X426755Y245489D01*
X426745Y245475D01*
X426732Y245466D01*
X426630Y245314D01*
X426523Y245165D01*
X426520Y245149D01*
X426511Y245136D01*
X426475Y244956D01*
X426434Y244777D01*
X426432Y244717D01*
X426429Y244692D01*
X426426Y244670D01*
X426421Y244649D01*
X426415Y244628D01*
X426407Y244608D01*
X426397Y244586D01*
X426385Y244563D01*
X426369Y244538D01*
X426333Y244486D01*
X426290Y244391D01*
X426084Y244081D01*
X425930Y243307D01*
X426084Y242533D01*
X426522Y241877D01*
X427178Y241438D01*
X427953Y241284D01*
X428727Y241438D01*
X429383Y241877D01*
X429384Y241878D01*
X429680Y241912D01*
X429693Y241906D01*
X430009Y241700D01*
X430018Y241658D01*
X430054Y241479D01*
X430063Y241465D01*
X430067Y241449D01*
X430173Y241300D01*
X430275Y241148D01*
X430289Y241139D01*
X430298Y241126D01*
X430384Y241072D01*
Y236881D01*
X430298Y236827D01*
X430289Y236814D01*
X430275Y236805D01*
X430173Y236652D01*
X430067Y236503D01*
X430063Y236488D01*
X430054Y236474D01*
X430018Y236294D01*
X429977Y236116D01*
X429975Y236056D01*
X429973Y236031D01*
X429969Y236008D01*
X429964Y235987D01*
X429958Y235967D01*
X429950Y235946D01*
X429941Y235925D01*
X429928Y235902D01*
X429913Y235877D01*
X429876Y235825D01*
X429834Y235729D01*
X429627Y235420D01*
X429473Y234646D01*
X429627Y233872D01*
X429834Y233562D01*
X429876Y233467D01*
X429913Y233415D01*
X429928Y233390D01*
X429941Y233366D01*
X429950Y233345D01*
X429958Y233324D01*
X429964Y233304D01*
X429969Y233283D01*
X429973Y233260D01*
X429975Y233235D01*
X429977Y233176D01*
X430018Y232997D01*
X430054Y232817D01*
X430063Y232804D01*
X430067Y232788D01*
X430173Y232639D01*
X430275Y232486D01*
X430289Y232477D01*
X430298Y232464D01*
X430384Y232411D01*
Y219798D01*
X430384Y219798D01*
X430469Y219373D01*
X430710Y219012D01*
X436854Y212868D01*
X436831Y212769D01*
X436833Y212753D01*
X436830Y212737D01*
X436866Y212558D01*
X436896Y212377D01*
X436905Y212363D01*
X436908Y212347D01*
X437010Y212195D01*
X437107Y212039D01*
X437148Y211996D01*
X437164Y211976D01*
X437177Y211958D01*
X437189Y211939D01*
X437199Y211921D01*
X437208Y211900D01*
X437216Y211878D01*
X437224Y211853D01*
X437231Y211825D01*
X437241Y211762D01*
X437279Y211664D01*
X437352Y211300D01*
X437558Y210990D01*
X437601Y210895D01*
X437637Y210843D01*
X437653Y210818D01*
X437665Y210795D01*
X437675Y210773D01*
X437683Y210753D01*
X437689Y210732D01*
X437694Y210711D01*
X437697Y210688D01*
X437700Y210664D01*
X437702Y210604D01*
X437743Y210425D01*
X437779Y210245D01*
X437788Y210232D01*
X437791Y210216D01*
X437898Y210067D01*
X438000Y209914D01*
X438013Y209906D01*
X438022Y209892D01*
X438109Y209839D01*
Y205385D01*
X438022Y205331D01*
X438013Y205318D01*
X438000Y205309D01*
X437898Y205157D01*
X437791Y205008D01*
X437788Y204992D01*
X437779Y204979D01*
X437743Y204799D01*
X437702Y204620D01*
X437700Y204560D01*
X437697Y204535D01*
X437694Y204513D01*
X437689Y204492D01*
X437683Y204471D01*
X437675Y204451D01*
X437665Y204429D01*
X437653Y204406D01*
X437637Y204381D01*
X437601Y204329D01*
X437558Y204233D01*
X437351Y203924D01*
X437197Y203150D01*
X437351Y202376D01*
X437790Y201719D01*
X438446Y201281D01*
X439220Y201127D01*
X439995Y201281D01*
X440651Y201719D01*
X441089Y202376D01*
X441244Y203150D01*
X441089Y203924D01*
X440883Y204233D01*
X440841Y204328D01*
X440804Y204380D01*
X440788Y204406D01*
X440776Y204429D01*
X440766Y204450D01*
X440759Y204471D01*
X440752Y204491D01*
X440748Y204512D01*
X440744Y204535D01*
X440741Y204560D01*
X440740Y204620D01*
X440698Y204798D01*
X440663Y204978D01*
X440654Y204992D01*
X440650Y205007D01*
X440544Y205156D01*
X440442Y205309D01*
X440428Y205318D01*
X440419Y205331D01*
X440333Y205385D01*
Y209839D01*
X440419Y209892D01*
X440428Y209906D01*
X440442Y209914D01*
X440543Y210067D01*
X440650Y210216D01*
X440654Y210232D01*
X440663Y210245D01*
X440698Y210425D01*
X440740Y210604D01*
X440741Y210664D01*
X440744Y210688D01*
X440748Y210711D01*
X440752Y210732D01*
X440759Y210753D01*
X440766Y210773D01*
X440776Y210795D01*
X440789Y210818D01*
X440804Y210843D01*
X440841Y210895D01*
X440883Y210990D01*
X441090Y211300D01*
X441244Y212074D01*
X441090Y212848D01*
X440651Y213504D01*
X439995Y213943D01*
X439630Y214016D01*
X439533Y214053D01*
X439470Y214064D01*
X439441Y214071D01*
X439416Y214078D01*
X439394Y214087D01*
X439374Y214096D01*
X439355Y214106D01*
X439337Y214117D01*
X439318Y214130D01*
X439299Y214147D01*
X439255Y214188D01*
X439100Y214284D01*
X438947Y214386D01*
X438931Y214389D01*
X438918Y214398D01*
X438737Y214428D01*
X438557Y214464D01*
X438541Y214461D01*
X438525Y214463D01*
X438426Y214441D01*
X432608Y220259D01*
Y232411D01*
X432694Y232464D01*
X432704Y232477D01*
X432717Y232486D01*
X432819Y232639D01*
X432925Y232788D01*
X432929Y232804D01*
X432938Y232817D01*
X432974Y232997D01*
X433015Y233176D01*
X433017Y233235D01*
X433019Y233260D01*
X433023Y233283D01*
X433028Y233304D01*
X433034Y233325D01*
X433042Y233345D01*
X433051Y233366D01*
X433064Y233390D01*
X433079Y233415D01*
X433116Y233467D01*
X433159Y233562D01*
X433365Y233872D01*
X433519Y234646D01*
X433365Y235420D01*
X433158Y235729D01*
X433116Y235825D01*
X433079Y235877D01*
X433064Y235902D01*
X433051Y235925D01*
X433042Y235946D01*
X433034Y235967D01*
X433028Y235987D01*
X433023Y236008D01*
X433019Y236031D01*
X433017Y236056D01*
X433015Y236116D01*
X432974Y236294D01*
X432938Y236474D01*
X432929Y236488D01*
X432925Y236503D01*
X432819Y236652D01*
X432717Y236805D01*
X432704Y236814D01*
X432694Y236827D01*
X432608Y236881D01*
Y241072D01*
X432694Y241126D01*
X432704Y241139D01*
X432717Y241148D01*
X432819Y241300D01*
X432925Y241449D01*
X432929Y241465D01*
X432938Y241479D01*
X432974Y241658D01*
X433015Y241837D01*
X433017Y241897D01*
X433019Y241922D01*
X433023Y241945D01*
X433028Y241965D01*
X433034Y241986D01*
X433042Y242006D01*
X433051Y242028D01*
X433064Y242051D01*
X433079Y242076D01*
X433116Y242128D01*
X433159Y242224D01*
X433365Y242533D01*
X433519Y243307D01*
X433365Y244081D01*
X432927Y244738D01*
X432270Y245176D01*
X431496Y245330D01*
X430722Y245176D01*
X430065Y244738D01*
X430065Y244737D01*
X429769Y244703D01*
X429756Y244708D01*
X429440Y244914D01*
X429430Y244956D01*
X429395Y245136D01*
X429386Y245149D01*
X429382Y245165D01*
X429276Y245314D01*
X429174Y245466D01*
X429160Y245475D01*
X429151Y245489D01*
X429065Y245542D01*
Y263345D01*
X429565Y263496D01*
X429594Y263452D01*
X429925Y263231D01*
X430315Y263154D01*
X442913D01*
X442983Y263097D01*
Y249086D01*
X442896Y249032D01*
X442887Y249019D01*
X442873Y249010D01*
X442772Y248857D01*
X442665Y248708D01*
X442662Y248692D01*
X442653Y248679D01*
X442617Y248499D01*
X442575Y248320D01*
X442573Y248261D01*
X442571Y248236D01*
X442567Y248213D01*
X442563Y248192D01*
X442556Y248172D01*
X442549Y248151D01*
X442539Y248130D01*
X442527Y248106D01*
X442511Y248081D01*
X442475Y248029D01*
X442432Y247934D01*
X442225Y247625D01*
X442071Y246850D01*
X442225Y246076D01*
X442664Y245420D01*
X443320Y244981D01*
X444095Y244827D01*
X444869Y244981D01*
X445525Y245420D01*
X445964Y246076D01*
X446118Y246850D01*
X445964Y247625D01*
X445757Y247934D01*
X445715Y248029D01*
X445678Y248081D01*
X445662Y248106D01*
X445650Y248130D01*
X445640Y248151D01*
X445633Y248172D01*
X445626Y248192D01*
X445621Y248213D01*
X445618Y248236D01*
X445615Y248261D01*
X445614Y248321D01*
X445572Y248499D01*
X445537Y248679D01*
X445528Y248692D01*
X445524Y248708D01*
X445417Y248857D01*
X445315Y249010D01*
X445302Y249019D01*
X445293Y249032D01*
X445206Y249086D01*
Y265481D01*
X445293Y265535D01*
X445302Y265548D01*
X445315Y265557D01*
X445417Y265710D01*
X445524Y265859D01*
X445528Y265875D01*
X445537Y265888D01*
X445572Y266068D01*
X445614Y266247D01*
X445615Y266306D01*
X445618Y266331D01*
X445621Y266354D01*
X445626Y266375D01*
X445633Y266395D01*
X445640Y266416D01*
X445650Y266437D01*
X445662Y266461D01*
X445678Y266486D01*
X445715Y266537D01*
X445757Y266633D01*
X445964Y266942D01*
X446118Y267717D01*
X445964Y268491D01*
X445525Y269147D01*
X444869Y269586D01*
X444095Y269740D01*
X443933Y269872D01*
Y270556D01*
X444034Y271063D01*
X443933Y271570D01*
Y274099D01*
X444034Y274606D01*
X443933Y275113D01*
Y276378D01*
X443855Y276768D01*
X443634Y277099D01*
X443304Y277320D01*
X442913Y277398D01*
D02*
G37*
G36*
X437383Y311613D02*
X435452D01*
X435353Y311593D01*
X435253D01*
X433358Y311216D01*
X433265Y311178D01*
X433167Y311158D01*
X431383Y310419D01*
X431299Y310363D01*
X431206Y310325D01*
X429600Y309252D01*
X429529Y309181D01*
X429446Y309125D01*
X428080Y307759D01*
X428024Y307676D01*
X427953Y307605D01*
X426880Y305998D01*
X426842Y305906D01*
X426786Y305822D01*
X426047Y304038D01*
X426027Y303939D01*
X425989Y303847D01*
X425612Y301952D01*
Y301852D01*
X425592Y301753D01*
Y299822D01*
X425612Y299723D01*
Y299623D01*
X425989Y297728D01*
X426027Y297636D01*
X426047Y297537D01*
X426786Y295753D01*
X426842Y295669D01*
X426880Y295576D01*
X427953Y293970D01*
X428024Y293899D01*
X428080Y293816D01*
X429446Y292450D01*
X429529Y292394D01*
X429600Y292323D01*
X431206Y291250D01*
X431299Y291212D01*
X431383Y291156D01*
X433167Y290417D01*
X433265Y290397D01*
X433358Y290359D01*
X435253Y289982D01*
X435353D01*
X435452Y289962D01*
X437383D01*
X437482Y289982D01*
X437582D01*
X439476Y290359D01*
X439569Y290397D01*
X439668Y290417D01*
X441452Y291156D01*
X441536Y291212D01*
X441628Y291250D01*
X443234Y292323D01*
X443305Y292394D01*
X443389Y292450D01*
X444755Y293816D01*
X444810Y293899D01*
X444881Y293970D01*
X445955Y295576D01*
X445993Y295669D01*
X446049Y295753D01*
X446788Y297537D01*
X446808Y297636D01*
X446846Y297728D01*
X447223Y299623D01*
Y299723D01*
X447242Y299822D01*
Y301753D01*
X447223Y301852D01*
Y301952D01*
X446846Y303847D01*
X446808Y303939D01*
X446788Y304038D01*
X446049Y305822D01*
X445993Y305906D01*
X445955Y305998D01*
X444881Y307605D01*
X444810Y307676D01*
X444755Y307759D01*
X443389Y309125D01*
X443305Y309181D01*
X443234Y309252D01*
X441628Y310325D01*
X441536Y310363D01*
X441452Y310419D01*
X439668Y311158D01*
X439569Y311178D01*
X439476Y311216D01*
X437582Y311593D01*
X437482D01*
X437383Y311613D01*
D02*
G37*
G36*
X484252Y285685D02*
X483066Y285529D01*
X481961Y285071D01*
X481012Y284343D01*
X480283Y283394D01*
X479826Y282288D01*
X479670Y281102D01*
X479826Y279916D01*
X480283Y278811D01*
X481012Y277862D01*
X481961Y277134D01*
X483066Y276676D01*
X484252Y276520D01*
X485438Y276676D01*
X486543Y277134D01*
X487492Y277862D01*
X488221Y278811D01*
X488678Y279916D01*
X488834Y281102D01*
X488678Y282288D01*
X488221Y283394D01*
X487492Y284343D01*
X486543Y285071D01*
X485438Y285529D01*
X484252Y285685D01*
D02*
G37*
G36*
X390551D02*
X389365Y285529D01*
X388260Y285071D01*
X387311Y284343D01*
X386583Y283394D01*
X386125Y282288D01*
X385969Y281102D01*
X386125Y279916D01*
X386583Y278811D01*
X387311Y277862D01*
X388260Y277134D01*
X389365Y276676D01*
X390551Y276520D01*
X391737Y276676D01*
X392842Y277134D01*
X393792Y277862D01*
X394520Y278811D01*
X394977Y279916D01*
X395134Y281102D01*
X394977Y282288D01*
X394520Y283394D01*
X393792Y284343D01*
X392842Y285071D01*
X391737Y285529D01*
X390551Y285685D01*
D02*
G37*
G36*
X471654Y280547D02*
X455512D01*
X455122Y280469D01*
X454791Y280248D01*
X454570Y279918D01*
X454492Y279528D01*
Y255985D01*
X454430Y255892D01*
X454276Y255118D01*
X454430Y254344D01*
X454492Y254251D01*
Y251181D01*
X454570Y250791D01*
X454791Y250460D01*
X455122Y250239D01*
X455512Y250162D01*
X461417D01*
X461807Y250239D01*
X462138Y250460D01*
X462359Y250791D01*
X462437Y251181D01*
Y274571D01*
X471654D01*
X472044Y274649D01*
X472374Y274870D01*
X472596Y275200D01*
X472673Y275590D01*
Y279528D01*
X472596Y279918D01*
X472374Y280248D01*
X472044Y280469D01*
X471654Y280547D01*
D02*
G37*
G36*
X405118Y216384D02*
X404241Y216268D01*
X403423Y215929D01*
X402720Y215390D01*
X402181Y214688D01*
X401842Y213870D01*
X401727Y212992D01*
X401842Y212115D01*
X402181Y211297D01*
X402720Y210594D01*
X403423Y210055D01*
X404241Y209717D01*
X405118Y209601D01*
X405996Y209717D01*
X406814Y210055D01*
X407516Y210594D01*
X408055Y211297D01*
X408394Y212115D01*
X408509Y212992D01*
X408394Y213870D01*
X408055Y214688D01*
X407516Y215390D01*
X406814Y215929D01*
X405996Y216268D01*
X405118Y216384D01*
D02*
G37*
G36*
X479134Y207328D02*
X478256Y207213D01*
X477438Y206874D01*
X476736Y206335D01*
X476197Y205633D01*
X475858Y204815D01*
X475743Y203937D01*
X475858Y203059D01*
X476197Y202241D01*
X476736Y201539D01*
X477438Y201000D01*
X478256Y200661D01*
X479134Y200546D01*
X480012Y200661D01*
X480829Y201000D01*
X481532Y201539D01*
X482071Y202241D01*
X482409Y203059D01*
X482525Y203937D01*
X482409Y204815D01*
X482071Y205633D01*
X481532Y206335D01*
X480829Y206874D01*
X480012Y207213D01*
X479134Y207328D01*
D02*
G37*
G36*
X416535Y280547D02*
X402362D01*
X401972Y280469D01*
X401641Y280248D01*
X401420Y279918D01*
X401343Y279528D01*
Y275590D01*
X401420Y275200D01*
X401641Y274870D01*
X401972Y274649D01*
X402362Y274571D01*
X409610D01*
Y256299D01*
X409688Y255909D01*
X409909Y255578D01*
X410240Y255357D01*
X410630Y255280D01*
X410944D01*
X411037Y255218D01*
X411811Y255064D01*
X412585Y255218D01*
X412678Y255280D01*
X414093D01*
X414186Y255218D01*
X414961Y255064D01*
X415735Y255218D01*
X415828Y255280D01*
X416535D01*
X416926Y255357D01*
X417256Y255578D01*
X417477Y255909D01*
X417555Y256299D01*
Y279528D01*
X417477Y279918D01*
X417256Y280248D01*
X416926Y280469D01*
X416535Y280547D01*
D02*
G37*
%LPD*%
G36*
X408106Y224328D02*
X408041Y224244D01*
X407977Y224120D01*
X407912Y223957D01*
X407847Y223755D01*
X407717Y223232D01*
X407587Y222552D01*
X407457Y221715D01*
X404785Y224386D01*
X405224Y224451D01*
X406825Y224776D01*
X407028Y224841D01*
X407191Y224906D01*
X407315Y224971D01*
X407399Y225036D01*
X408106Y224328D01*
D02*
G37*
G36*
X408377Y235598D02*
X408386Y235508D01*
X408400Y235419D01*
X408420Y235332D01*
X408446Y235246D01*
X408477Y235162D01*
X408515Y235080D01*
X408558Y234999D01*
X408606Y234920D01*
X408661Y234843D01*
X407087D01*
X407141Y234920D01*
X407190Y234999D01*
X407233Y235080D01*
X407271Y235162D01*
X407302Y235246D01*
X407328Y235332D01*
X407348Y235419D01*
X407363Y235508D01*
X407371Y235598D01*
X407374Y235690D01*
X408374D01*
X408377Y235598D01*
D02*
G37*
G36*
X408782Y233866D02*
X408779Y233841D01*
X408774Y233759D01*
X408768Y233249D01*
X407768Y232683D01*
X407763Y232763D01*
X407748Y232842D01*
X407722Y232922D01*
X407687Y233002D01*
X407642Y233082D01*
X407586Y233161D01*
X407521Y233241D01*
X407446Y233320D01*
X407360Y233400D01*
X407264Y233479D01*
X408785Y233880D01*
X408782Y233866D01*
D02*
G37*
G36*
X408606Y241458D02*
X408558Y241379D01*
X408515Y241298D01*
X408477Y241216D01*
X408446Y241132D01*
X408420Y241047D01*
X408400Y240959D01*
X408386Y240870D01*
X408377Y240780D01*
X408374Y240688D01*
X407374D01*
X407371Y240780D01*
X407363Y240870D01*
X407348Y240959D01*
X407328Y241047D01*
X407302Y241132D01*
X407271Y241216D01*
X407233Y241298D01*
X407190Y241379D01*
X407141Y241458D01*
X407087Y241535D01*
X408661D01*
X408606Y241458D01*
D02*
G37*
G36*
X484320Y272087D02*
X484257Y271871D01*
X484232Y271759D01*
X484193Y271524D01*
X484179Y271402D01*
X484161Y271016D01*
X483161Y270483D01*
X483152Y270567D01*
X483124Y270657D01*
X483078Y270753D01*
X483014Y270854D01*
X482931Y270961D01*
X482829Y271075D01*
X482709Y271194D01*
X482414Y271450D01*
X482239Y271586D01*
X484357Y272190D01*
X484320Y272087D01*
D02*
G37*
G36*
X484167Y249452D02*
X484186Y249346D01*
X484216Y249234D01*
X484258Y249115D01*
X484312Y248990D01*
X484378Y248858D01*
X484547Y248576D01*
X484649Y248426D01*
X484763Y248269D01*
X482560D01*
X482674Y248426D01*
X482945Y248858D01*
X483011Y248990D01*
X483065Y249115D01*
X483107Y249234D01*
X483137Y249346D01*
X483155Y249452D01*
X483161Y249552D01*
X484161D01*
X484167Y249452D01*
D02*
G37*
G36*
X389479Y248197D02*
X389488Y248106D01*
X389502Y248017D01*
X389522Y247930D01*
X389548Y247844D01*
X389580Y247761D01*
X389617Y247678D01*
X389660Y247598D01*
X389709Y247519D01*
X389763Y247441D01*
X388189D01*
X388244Y247519D01*
X388293Y247598D01*
X388336Y247678D01*
X388373Y247761D01*
X388405Y247844D01*
X388431Y247930D01*
X388451Y248017D01*
X388465Y248106D01*
X388474Y248197D01*
X388476Y248289D01*
X389476D01*
X389479Y248197D01*
D02*
G37*
G36*
X389709Y257206D02*
X389660Y257127D01*
X389617Y257046D01*
X389580Y256964D01*
X389548Y256880D01*
X389522Y256795D01*
X389502Y256707D01*
X389488Y256618D01*
X389479Y256528D01*
X389476Y256436D01*
X388476D01*
X388474Y256528D01*
X388465Y256618D01*
X388451Y256707D01*
X388431Y256795D01*
X388405Y256880D01*
X388373Y256964D01*
X388336Y257046D01*
X388293Y257127D01*
X388244Y257206D01*
X388189Y257283D01*
X389763D01*
X389709Y257206D01*
D02*
G37*
G36*
X447747Y223000D02*
X447756Y222909D01*
X447770Y222820D01*
X447790Y222733D01*
X447816Y222648D01*
X447847Y222564D01*
X447885Y222481D01*
X447928Y222401D01*
X447977Y222322D01*
X448031Y222245D01*
X446457D01*
X446512Y222322D01*
X446560Y222401D01*
X446603Y222481D01*
X446641Y222564D01*
X446672Y222648D01*
X446698Y222733D01*
X446718Y222820D01*
X446733Y222909D01*
X446741Y223000D01*
X446744Y223092D01*
X447744D01*
X447747Y223000D01*
D02*
G37*
G36*
X451520Y242639D02*
X451471Y242560D01*
X451428Y242479D01*
X451391Y242397D01*
X451359Y242313D01*
X451333Y242228D01*
X451313Y242140D01*
X451299Y242052D01*
X451290Y241961D01*
X451287Y241869D01*
X450287D01*
X450284Y241961D01*
X450276Y242052D01*
X450262Y242140D01*
X450242Y242228D01*
X450216Y242313D01*
X450184Y242397D01*
X450147Y242479D01*
X450104Y242560D01*
X450055Y242639D01*
X450000Y242716D01*
X451574D01*
X451520Y242639D01*
D02*
G37*
G36*
X451290Y229693D02*
X451299Y229602D01*
X451313Y229513D01*
X451333Y229426D01*
X451359Y229340D01*
X451391Y229257D01*
X451428Y229174D01*
X451471Y229094D01*
X451520Y229015D01*
X451574Y228938D01*
X450000D01*
X450055Y229015D01*
X450104Y229094D01*
X450147Y229174D01*
X450184Y229257D01*
X450216Y229340D01*
X450242Y229426D01*
X450262Y229513D01*
X450276Y229602D01*
X450284Y229693D01*
X450287Y229785D01*
X451287D01*
X451290Y229693D01*
D02*
G37*
G36*
X447977Y233190D02*
X447928Y233111D01*
X447885Y233030D01*
X447847Y232948D01*
X447816Y232864D01*
X447790Y232779D01*
X447770Y232692D01*
X447756Y232603D01*
X447747Y232512D01*
X447744Y232420D01*
X446744D01*
X446741Y232512D01*
X446733Y232603D01*
X446718Y232692D01*
X446698Y232779D01*
X446672Y232864D01*
X446641Y232948D01*
X446603Y233030D01*
X446560Y233111D01*
X446512Y233190D01*
X446457Y233267D01*
X448031D01*
X447977Y233190D01*
D02*
G37*
G36*
X444827Y235946D02*
X444778Y235867D01*
X444735Y235786D01*
X444698Y235704D01*
X444666Y235620D01*
X444640Y235535D01*
X444620Y235447D01*
X444606Y235359D01*
X444597Y235268D01*
X444594Y235176D01*
X443595D01*
X443592Y235268D01*
X443583Y235359D01*
X443569Y235447D01*
X443549Y235535D01*
X443523Y235620D01*
X443491Y235704D01*
X443454Y235786D01*
X443411Y235867D01*
X443362Y235946D01*
X443307Y236023D01*
X444881D01*
X444827Y235946D01*
D02*
G37*
G36*
X437117Y228905D02*
X437126Y228815D01*
X437140Y228726D01*
X437160Y228639D01*
X437186Y228553D01*
X437218Y228469D01*
X437255Y228387D01*
X437298Y228306D01*
X437347Y228227D01*
X437401Y228150D01*
X435827D01*
X435882Y228227D01*
X435930Y228306D01*
X435974Y228387D01*
X436011Y228469D01*
X436042Y228553D01*
X436068Y228639D01*
X436088Y228726D01*
X436103Y228815D01*
X436111Y228905D01*
X436114Y228997D01*
X437114D01*
X437117Y228905D01*
D02*
G37*
G36*
X437347Y246182D02*
X437298Y246103D01*
X437255Y246023D01*
X437218Y245940D01*
X437186Y245856D01*
X437160Y245771D01*
X437140Y245684D01*
X437126Y245595D01*
X437117Y245504D01*
X437114Y245412D01*
X436114D01*
X436111Y245504D01*
X436103Y245595D01*
X436088Y245684D01*
X436068Y245771D01*
X436042Y245856D01*
X436011Y245940D01*
X435974Y246023D01*
X435930Y246103D01*
X435882Y246182D01*
X435827Y246259D01*
X437401D01*
X437347Y246182D01*
D02*
G37*
G36*
X470582Y229299D02*
X470590Y229208D01*
X470605Y229119D01*
X470625Y229032D01*
X470650Y228947D01*
X470682Y228863D01*
X470719Y228781D01*
X470762Y228700D01*
X470811Y228621D01*
X470866Y228544D01*
X469292D01*
X469346Y228621D01*
X469395Y228700D01*
X469438Y228781D01*
X469475Y228863D01*
X469507Y228947D01*
X469533Y229032D01*
X469553Y229119D01*
X469567Y229208D01*
X469576Y229299D01*
X469579Y229391D01*
X470579D01*
X470582Y229299D01*
D02*
G37*
G36*
X470811Y238702D02*
X470762Y238623D01*
X470719Y238542D01*
X470682Y238460D01*
X470650Y238376D01*
X470625Y238291D01*
X470605Y238203D01*
X470590Y238115D01*
X470582Y238024D01*
X470579Y237932D01*
X469579D01*
X469576Y238024D01*
X469567Y238115D01*
X469553Y238203D01*
X469533Y238291D01*
X469507Y238376D01*
X469475Y238460D01*
X469438Y238542D01*
X469395Y238623D01*
X469346Y238702D01*
X469292Y238779D01*
X470866D01*
X470811Y238702D01*
D02*
G37*
G36*
X474912Y223000D02*
X474921Y222909D01*
X474935Y222820D01*
X474955Y222733D01*
X474981Y222648D01*
X475013Y222564D01*
X475050Y222481D01*
X475093Y222401D01*
X475142Y222322D01*
X475197Y222245D01*
X473622D01*
X473677Y222322D01*
X473726Y222401D01*
X473769Y222481D01*
X473806Y222564D01*
X473838Y222648D01*
X473864Y222733D01*
X473884Y222820D01*
X473898Y222909D01*
X473907Y223000D01*
X473910Y223092D01*
X474909D01*
X474912Y223000D01*
D02*
G37*
G36*
X475142Y243906D02*
X475093Y243827D01*
X475050Y243746D01*
X475013Y243664D01*
X474981Y243580D01*
X474955Y243495D01*
X474935Y243408D01*
X474921Y243319D01*
X474912Y243228D01*
X474909Y243136D01*
X473910D01*
X473907Y243228D01*
X473898Y243319D01*
X473884Y243408D01*
X473864Y243495D01*
X473838Y243580D01*
X473806Y243664D01*
X473769Y243746D01*
X473726Y243827D01*
X473677Y243906D01*
X473622Y243983D01*
X475197D01*
X475142Y243906D01*
D02*
G37*
G36*
X439721Y204588D02*
X439723Y204496D01*
X439732Y204405D01*
X439746Y204316D01*
X439767Y204229D01*
X439792Y204144D01*
X439824Y204060D01*
X439861Y203978D01*
X439904Y203897D01*
X439953Y203818D01*
X440007Y203741D01*
X438433Y203741D01*
X438488Y203818D01*
X438537Y203897D01*
X438580Y203978D01*
X438617Y204060D01*
X438649Y204144D01*
X438675Y204229D01*
X438695Y204317D01*
X438709Y204406D01*
X438718Y204496D01*
X438721Y204588D01*
X439721Y204588D01*
D02*
G37*
G36*
X439953Y211405D02*
X439904Y211327D01*
X439861Y211246D01*
X439824Y211164D01*
X439792Y211080D01*
X439767Y210994D01*
X439746Y210907D01*
X439732Y210818D01*
X439723Y210728D01*
X439721Y210635D01*
X438721D01*
X438718Y210728D01*
X438709Y210818D01*
X438695Y210907D01*
X438675Y210994D01*
X438649Y211080D01*
X438617Y211164D01*
X438580Y211246D01*
X438537Y211327D01*
X438488Y211405D01*
X438434Y211483D01*
X440008D01*
X439953Y211405D01*
D02*
G37*
G36*
X438624Y213381D02*
X438694Y213323D01*
X438767Y213271D01*
X438843Y213223D01*
X438922Y213181D01*
X439004Y213144D01*
X439088Y213112D01*
X439176Y213086D01*
X439266Y213064D01*
X439359Y213048D01*
X438246Y211935D01*
X438230Y212028D01*
X438209Y212119D01*
X438182Y212206D01*
X438150Y212291D01*
X438113Y212372D01*
X438071Y212451D01*
X438024Y212527D01*
X437971Y212600D01*
X437913Y212670D01*
X437850Y212737D01*
X438557Y213444D01*
X438624Y213381D01*
D02*
G37*
G36*
X444597Y248197D02*
X444606Y248106D01*
X444620Y248017D01*
X444640Y247930D01*
X444666Y247844D01*
X444698Y247761D01*
X444735Y247678D01*
X444778Y247598D01*
X444827Y247519D01*
X444881Y247441D01*
X443307D01*
X443362Y247519D01*
X443411Y247598D01*
X443454Y247678D01*
X443491Y247761D01*
X443523Y247844D01*
X443549Y247930D01*
X443569Y248017D01*
X443583Y248106D01*
X443592Y248197D01*
X443595Y248289D01*
X444594D01*
X444597Y248197D01*
D02*
G37*
G36*
X428456Y244653D02*
X428464Y244563D01*
X428479Y244474D01*
X428499Y244387D01*
X428524Y244301D01*
X428556Y244217D01*
X428593Y244135D01*
X428637Y244054D01*
X428685Y243975D01*
X428740Y243898D01*
X427166D01*
X427220Y243975D01*
X427269Y244054D01*
X427312Y244135D01*
X427349Y244217D01*
X427381Y244301D01*
X427407Y244387D01*
X427427Y244474D01*
X427441Y244563D01*
X427450Y244653D01*
X427453Y244745D01*
X428453D01*
X428456Y244653D01*
D02*
G37*
G36*
X444827Y267048D02*
X444778Y266969D01*
X444735Y266889D01*
X444698Y266807D01*
X444666Y266723D01*
X444640Y266637D01*
X444620Y266550D01*
X444606Y266461D01*
X444597Y266370D01*
X444594Y266278D01*
X443595D01*
X443592Y266370D01*
X443583Y266461D01*
X443569Y266550D01*
X443549Y266637D01*
X443523Y266723D01*
X443491Y266807D01*
X443454Y266889D01*
X443411Y266969D01*
X443362Y267048D01*
X443307Y267126D01*
X444881D01*
X444827Y267048D01*
D02*
G37*
G36*
X428685Y266261D02*
X428637Y266182D01*
X428593Y266101D01*
X428556Y266019D01*
X428524Y265935D01*
X428499Y265850D01*
X428479Y265762D01*
X428464Y265673D01*
X428456Y265583D01*
X428453Y265491D01*
X427453D01*
X427450Y265583D01*
X427441Y265673D01*
X427427Y265762D01*
X427407Y265850D01*
X427381Y265935D01*
X427349Y266019D01*
X427312Y266101D01*
X427269Y266182D01*
X427220Y266261D01*
X427166Y266338D01*
X428740D01*
X428685Y266261D01*
D02*
G37*
G36*
X432229Y233977D02*
X432180Y233898D01*
X432137Y233818D01*
X432099Y233736D01*
X432068Y233652D01*
X432042Y233566D01*
X432022Y233479D01*
X432008Y233390D01*
X431999Y233299D01*
X431996Y233207D01*
X430996D01*
X430993Y233299D01*
X430985Y233390D01*
X430970Y233479D01*
X430950Y233566D01*
X430924Y233652D01*
X430893Y233736D01*
X430855Y233818D01*
X430812Y233898D01*
X430764Y233977D01*
X430709Y234055D01*
X432283D01*
X432229Y233977D01*
D02*
G37*
G36*
Y242639D02*
X432180Y242560D01*
X432137Y242479D01*
X432099Y242397D01*
X432068Y242313D01*
X432042Y242228D01*
X432022Y242140D01*
X432008Y242052D01*
X431999Y241961D01*
X431996Y241869D01*
X430996D01*
X430993Y241961D01*
X430985Y242052D01*
X430970Y242140D01*
X430950Y242228D01*
X430924Y242313D01*
X430893Y242397D01*
X430855Y242479D01*
X430812Y242560D01*
X430764Y242639D01*
X430709Y242716D01*
X432283D01*
X432229Y242639D01*
D02*
G37*
G36*
X431999Y235992D02*
X432008Y235901D01*
X432022Y235812D01*
X432042Y235725D01*
X432068Y235640D01*
X432099Y235556D01*
X432137Y235473D01*
X432180Y235393D01*
X432229Y235314D01*
X432283Y235237D01*
X430709D01*
X430764Y235314D01*
X430812Y235393D01*
X430855Y235473D01*
X430893Y235556D01*
X430924Y235640D01*
X430950Y235725D01*
X430970Y235812D01*
X430985Y235901D01*
X430993Y235992D01*
X430996Y236084D01*
X431996D01*
X431999Y235992D01*
D02*
G37*
D10*
X408268Y225197D02*
Y234252D01*
X420571Y221114D02*
X420717Y221260D01*
X420571Y212205D02*
Y221114D01*
X388976Y246850D02*
Y257874D01*
X431496Y219798D02*
X439221Y212074D01*
X431496Y219798D02*
Y234646D01*
X483661Y247441D02*
Y272094D01*
X483071Y272685D02*
X483661Y272094D01*
X470079Y227953D02*
Y239370D01*
X439221Y203150D02*
Y212074D01*
X439220Y203150D02*
X439221Y203150D01*
X427953Y243307D02*
Y266929D01*
X447244Y221654D02*
Y233858D01*
X444095Y247244D02*
Y267717D01*
Y203937D02*
Y236614D01*
Y203937D02*
X444882Y203150D01*
X436614Y227953D02*
Y246850D01*
X450787Y228346D02*
Y243307D01*
X474409Y221654D02*
Y244574D01*
X405118Y222047D02*
X408268Y225197D01*
X431496Y234646D02*
Y243307D01*
X407874Y234252D02*
Y242126D01*
D39*
X405118Y194094D02*
D03*
X479134Y203937D02*
D03*
X385039Y214961D02*
D03*
X405118Y222047D02*
D03*
X392520Y203937D02*
D03*
X436221Y185039D02*
D03*
X405118Y203937D02*
D03*
X405118Y212992D02*
D03*
X488189Y214961D02*
D03*
D40*
X377362Y243012D02*
D03*
X390551Y281102D02*
D03*
X436614Y285039D02*
D03*
X494882Y242913D02*
D03*
X436713Y272441D02*
D03*
X484252Y281102D02*
D03*
D41*
X414961Y212205D02*
D03*
X420717Y221260D02*
D03*
X420571Y212205D02*
D03*
X388976Y257874D02*
D03*
X414961Y257087D02*
D03*
X413386Y260236D02*
D03*
X458268Y252362D02*
D03*
X456299Y255118D02*
D03*
X411811Y257087D02*
D03*
X460236Y255118D02*
D03*
X403150Y261014D02*
D03*
Y256683D02*
D03*
Y252352D02*
D03*
X398819Y261014D02*
D03*
Y256683D02*
D03*
Y252352D02*
D03*
X469685Y251969D02*
D03*
Y256299D02*
D03*
Y260630D02*
D03*
X474016Y251969D02*
D03*
Y256299D02*
D03*
Y260630D02*
D03*
X438583Y217323D02*
D03*
X417323Y229528D02*
D03*
X404724Y236221D02*
D03*
X439221Y212074D02*
D03*
X439220Y203150D02*
D03*
X470079Y227953D02*
D03*
Y239370D02*
D03*
X427953Y243307D02*
D03*
Y266929D02*
D03*
X450787Y243307D02*
D03*
X447244Y233858D02*
D03*
Y221654D02*
D03*
X444882Y203150D02*
D03*
X433221Y212074D02*
D03*
X459055Y216929D02*
D03*
X444095Y246850D02*
D03*
Y267717D02*
D03*
X388976Y246850D02*
D03*
X436614Y227559D02*
D03*
X474409Y244574D02*
D03*
X444095Y236614D02*
D03*
X436614Y246850D02*
D03*
X450787Y228346D02*
D03*
X474409Y221654D02*
D03*
X407874Y234252D02*
D03*
X391732Y233071D02*
D03*
X431496Y243307D02*
D03*
Y234646D02*
D03*
X407874Y242126D02*
D03*
D42*
X441609Y271063D02*
D03*
X431767D02*
D03*
Y274606D02*
D03*
X441609D02*
D03*
X470177Y277756D02*
D03*
X467347D02*
D03*
X461688D02*
D03*
X464518D02*
D03*
X404035D02*
D03*
X406791D02*
D03*
X409547D02*
D03*
X412303D02*
D03*
X483071Y272685D02*
D03*
X483661Y247441D02*
D03*
X458858Y277756D02*
D03*
X415059D02*
D03*
X413583Y258268D02*
D03*
X458192Y254442D02*
D03*
D43*
X424016Y303543D02*
D03*
X380709Y272047D02*
D03*
X448819Y303543D02*
D03*
D44*
X377756Y227362D02*
D03*
D45*
X464567Y277559D02*
D03*
X409449D02*
D03*
D46*
X458465Y265354D02*
D03*
D47*
X413583Y267913D02*
D03*
D48*
X436614Y270276D02*
D03*
M02*
