G04 Layer_Color=8388736*
%FSLAX25Y25*%
%MOIN*%
G70*
G01*
G75*
%ADD53R,0.01778X0.03747*%
%ADD54R,0.04337X0.03156*%
%ADD55R,0.03668X0.02880*%
%ADD56R,0.03550X0.03943*%
%ADD57R,0.03550X0.03943*%
%ADD58R,0.01935X0.02684*%
G04:AMPARAMS|DCode=59|XSize=19.35mil|YSize=26.84mil|CornerRadius=5.84mil|HoleSize=0mil|Usage=FLASHONLY|Rotation=180.000|XOffset=0mil|YOffset=0mil|HoleType=Round|Shape=RoundedRectangle|*
%AMROUNDEDRECTD59*
21,1,0.01935,0.01516,0,0,180.0*
21,1,0.00768,0.02684,0,0,180.0*
1,1,0.01168,-0.00384,0.00758*
1,1,0.01168,0.00384,0.00758*
1,1,0.01168,0.00384,-0.00758*
1,1,0.01168,-0.00384,-0.00758*
%
%ADD59ROUNDEDRECTD59*%
%ADD60R,0.11030X0.08117*%
%ADD61R,0.03156X0.01581*%
%ADD62R,0.01581X0.03156*%
%ADD63R,0.03943X0.03550*%
%ADD64R,0.03943X0.03550*%
%ADD65R,0.07487X0.03943*%
G04:AMPARAMS|DCode=66|XSize=20.14mil|YSize=15.02mil|CornerRadius=4.76mil|HoleSize=0mil|Usage=FLASHONLY|Rotation=0.000|XOffset=0mil|YOffset=0mil|HoleType=Round|Shape=RoundedRectangle|*
%AMROUNDEDRECTD66*
21,1,0.02014,0.00551,0,0,0.0*
21,1,0.01063,0.01502,0,0,0.0*
1,1,0.00951,0.00532,-0.00276*
1,1,0.00951,-0.00532,-0.00276*
1,1,0.00951,-0.00532,0.00276*
1,1,0.00951,0.00532,0.00276*
%
%ADD66ROUNDEDRECTD66*%
%ADD67R,0.02014X0.01502*%
%ADD68R,0.01502X0.02014*%
%ADD69R,0.03156X0.01778*%
%ADD70R,0.09455X0.12998*%
%ADD71R,0.22841X0.07093*%
%ADD72R,0.02880X0.03668*%
%ADD73C,0.05124*%
%ADD74C,0.07487*%
%ADD75C,0.02369*%
%ADD76C,0.05400*%
G36*
X441339Y232677D02*
X441339Y230906D01*
X440649Y230217D01*
X439764Y230217D01*
Y232677D01*
X441339Y232677D01*
D02*
G37*
G36*
X433465Y230217D02*
X432579Y230217D01*
X431890Y230906D01*
X431890Y232677D01*
X433465Y232677D01*
Y230217D01*
D02*
G37*
G36*
X443307Y229134D02*
X440846D01*
X440847Y230019D01*
X441535Y230709D01*
X443307Y230709D01*
X443307Y229134D01*
D02*
G37*
G36*
X431693Y230709D02*
X432382Y230019D01*
X432382Y229134D01*
X429921D01*
X429921Y230709D01*
X431693Y230709D01*
D02*
G37*
G36*
X495121Y230072D02*
X495131D01*
X495757Y230011D01*
X495767Y230009D01*
X495777Y230008D01*
X495786Y230005D01*
X495796Y230003D01*
X495805Y229999D01*
X495814Y229996D01*
X496395Y229756D01*
X496404Y229751D01*
X496413Y229747D01*
X496421Y229742D01*
X496430Y229737D01*
X496438Y229731D01*
X496446Y229725D01*
X496932Y229326D01*
X496939Y229319D01*
X496947Y229313D01*
X496953Y229305D01*
X496960Y229298D01*
X496966Y229290D01*
X496972Y229282D01*
X497321Y228760D01*
X497326Y228751D01*
X497331Y228743D01*
X497335Y228733D01*
X497340Y228725D01*
X497343Y228715D01*
X497346Y228706D01*
X497529Y228104D01*
X497531Y228095D01*
X497534Y228085D01*
X497535Y228075D01*
X497537Y228066D01*
Y228056D01*
X497538Y228046D01*
Y227731D01*
Y227381D01*
X497536Y227368D01*
X497536Y227355D01*
X497535Y227349D01*
X497534Y227342D01*
X497530Y227329D01*
X497527Y227317D01*
X497302Y226654D01*
X497297Y226642D01*
X497292Y226629D01*
X497289Y226624D01*
X497286Y226618D01*
X497278Y226607D01*
X497271Y226596D01*
X496845Y226041D01*
X496836Y226031D01*
X496828Y226021D01*
X496823Y226017D01*
X496818Y226012D01*
X496807Y226004D01*
X496797Y225996D01*
X496215Y225607D01*
X496204Y225601D01*
X496192Y225594D01*
X496186Y225591D01*
X496180Y225588D01*
X496168Y225585D01*
X496156Y225580D01*
X495479Y225399D01*
X495466Y225397D01*
X495453Y225394D01*
X495447Y225393D01*
X495440Y225392D01*
X495427Y225393D01*
X495414Y225392D01*
X494715Y225438D01*
X494702Y225440D01*
X494689Y225442D01*
X494683Y225444D01*
X494677Y225445D01*
X494664Y225449D01*
X494652Y225453D01*
X494005Y225721D01*
X493993Y225727D01*
X493981Y225732D01*
X493976Y225736D01*
X493970Y225740D01*
X493960Y225748D01*
X493949Y225756D01*
X493423Y226217D01*
X493414Y226227D01*
X493404Y226236D01*
X493400Y226241D01*
X493396Y226246D01*
X493389Y226257D01*
X493381Y226268D01*
X493031Y226874D01*
X493026Y226886D01*
X493020Y226898D01*
X493018Y226904D01*
X493015Y226910D01*
X493012Y226923D01*
X493008Y226935D01*
X492872Y227622D01*
X492870Y227635D01*
X492868Y227648D01*
X492869Y227655D01*
X492868Y227661D01*
X492869Y227674D01*
X492870Y227687D01*
X492961Y228381D01*
X492964Y228394D01*
X492966Y228407D01*
X492968Y228413D01*
X492970Y228420D01*
X492975Y228432D01*
X492980Y228444D01*
X493290Y229072D01*
X493296Y229083D01*
X493303Y229095D01*
X493307Y229100D01*
X493310Y229105D01*
X493319Y229115D01*
X493328Y229125D01*
X493575Y229373D01*
X493798Y229595D01*
X493805Y229601D01*
X493812Y229608D01*
X493820Y229614D01*
X493828Y229620D01*
X493837Y229625D01*
X493845Y229630D01*
X494400Y229927D01*
X494409Y229931D01*
X494418Y229935D01*
X494427Y229938D01*
X494436Y229942D01*
X494446Y229944D01*
X494455Y229947D01*
X495072Y230069D01*
X495082Y230070D01*
X495092Y230072D01*
X495101D01*
X495111Y230073D01*
X495121Y230072D01*
D02*
G37*
G36*
X443307Y221260D02*
X441535Y221260D01*
X440847Y221949D01*
X440846Y222835D01*
X443307D01*
X443307Y221260D01*
D02*
G37*
G36*
X432382Y221949D02*
X431693Y221260D01*
X429921Y221260D01*
X429921Y222835D01*
X432382D01*
X432382Y221949D01*
D02*
G37*
G36*
X440649Y221752D02*
X441339Y221063D01*
X441339Y219291D01*
X439764Y219291D01*
Y221752D01*
X440649Y221752D01*
D02*
G37*
G36*
X433465Y219291D02*
X431890Y219291D01*
X431890Y221063D01*
X432579Y221752D01*
X433465Y221752D01*
Y219291D01*
D02*
G37*
G36*
X467266Y196361D02*
X467276D01*
X467902Y196300D01*
X467912Y196298D01*
X467921Y196297D01*
X467931Y196294D01*
X467941Y196292D01*
X467950Y196288D01*
X467959Y196285D01*
X468540Y196045D01*
X468549Y196040D01*
X468558Y196036D01*
X468566Y196031D01*
X468575Y196026D01*
X468583Y196020D01*
X468591Y196014D01*
X469077Y195615D01*
X469084Y195608D01*
X469092Y195602D01*
X469098Y195594D01*
X469105Y195587D01*
X469110Y195579D01*
X469117Y195571D01*
X469466Y195048D01*
X469471Y195040D01*
X469476Y195032D01*
X469480Y195022D01*
X469485Y195014D01*
X469488Y195004D01*
X469491Y194995D01*
X469674Y194393D01*
X469676Y194384D01*
X469679Y194374D01*
X469680Y194364D01*
X469682Y194355D01*
Y194345D01*
X469683Y194335D01*
Y194020D01*
Y193670D01*
X469681Y193657D01*
X469681Y193644D01*
X469679Y193638D01*
X469679Y193631D01*
X469675Y193619D01*
X469672Y193606D01*
X469447Y192943D01*
X469442Y192931D01*
X469437Y192919D01*
X469433Y192913D01*
X469431Y192907D01*
X469423Y192896D01*
X469416Y192885D01*
X468990Y192330D01*
X468981Y192320D01*
X468972Y192310D01*
X468967Y192306D01*
X468963Y192301D01*
X468952Y192293D01*
X468942Y192285D01*
X468360Y191896D01*
X468348Y191890D01*
X468337Y191883D01*
X468331Y191881D01*
X468325Y191877D01*
X468313Y191874D01*
X468300Y191869D01*
X467624Y191688D01*
X467611Y191686D01*
X467598Y191683D01*
X467592Y191682D01*
X467585Y191681D01*
X467572Y191682D01*
X467559Y191681D01*
X466860Y191727D01*
X466847Y191729D01*
X466834Y191730D01*
X466828Y191732D01*
X466821Y191734D01*
X466809Y191738D01*
X466797Y191742D01*
X466150Y192010D01*
X466138Y192016D01*
X466126Y192022D01*
X466121Y192025D01*
X466115Y192028D01*
X466105Y192037D01*
X466094Y192044D01*
X465568Y192506D01*
X465559Y192516D01*
X465549Y192525D01*
X465545Y192530D01*
X465541Y192535D01*
X465534Y192546D01*
X465526Y192557D01*
X465176Y193163D01*
X465171Y193175D01*
X465165Y193186D01*
X465163Y193193D01*
X465160Y193199D01*
X465157Y193212D01*
X465153Y193224D01*
X465017Y193911D01*
X465015Y193924D01*
X465013Y193937D01*
X465013Y193944D01*
X465013Y193950D01*
X465014Y193963D01*
X465014Y193976D01*
X465106Y194670D01*
X465109Y194683D01*
X465111Y194696D01*
X465113Y194702D01*
X465115Y194709D01*
X465120Y194721D01*
X465125Y194733D01*
X465435Y195361D01*
X465441Y195372D01*
X465448Y195384D01*
X465452Y195389D01*
X465455Y195395D01*
X465464Y195404D01*
X465473Y195414D01*
X465720Y195662D01*
X465942Y195884D01*
X465950Y195890D01*
X465957Y195897D01*
X465965Y195903D01*
X465973Y195909D01*
X465982Y195914D01*
X465990Y195919D01*
X466545Y196216D01*
X466554Y196220D01*
X466562Y196224D01*
X466572Y196227D01*
X466581Y196231D01*
X466591Y196233D01*
X466600Y196236D01*
X467217Y196358D01*
X467227Y196359D01*
X467237Y196361D01*
X467246D01*
X467256Y196362D01*
X467266Y196361D01*
D02*
G37*
G36*
X451518Y189471D02*
X451528D01*
X452154Y189410D01*
X452164Y189408D01*
X452173Y189407D01*
X452183Y189404D01*
X452192Y189402D01*
X452202Y189398D01*
X452211Y189395D01*
X452792Y189155D01*
X452801Y189150D01*
X452810Y189146D01*
X452818Y189141D01*
X452827Y189136D01*
X452835Y189130D01*
X452843Y189125D01*
X453329Y188725D01*
X453336Y188718D01*
X453344Y188712D01*
X453350Y188705D01*
X453357Y188698D01*
X453362Y188689D01*
X453369Y188682D01*
X453718Y188159D01*
X453723Y188150D01*
X453728Y188142D01*
X453732Y188133D01*
X453737Y188124D01*
X453740Y188115D01*
X453743Y188105D01*
X453926Y187504D01*
X453928Y187494D01*
X453931Y187484D01*
X453932Y187475D01*
X453934Y187465D01*
Y187455D01*
X453935Y187445D01*
Y187131D01*
Y186781D01*
X453933Y186767D01*
X453933Y186754D01*
X453931Y186748D01*
X453931Y186741D01*
X453927Y186729D01*
X453924Y186716D01*
X453699Y186053D01*
X453693Y186041D01*
X453689Y186029D01*
X453685Y186023D01*
X453683Y186017D01*
X453675Y186006D01*
X453668Y185995D01*
X453242Y185440D01*
X453233Y185430D01*
X453225Y185420D01*
X453219Y185416D01*
X453215Y185411D01*
X453204Y185404D01*
X453194Y185395D01*
X452612Y185006D01*
X452600Y185000D01*
X452589Y184993D01*
X452583Y184991D01*
X452577Y184988D01*
X452565Y184984D01*
X452552Y184979D01*
X451876Y184798D01*
X451863Y184796D01*
X451850Y184793D01*
X451844Y184793D01*
X451837Y184792D01*
X451824Y184792D01*
X451811Y184792D01*
X451112Y184837D01*
X451099Y184839D01*
X451086Y184841D01*
X451080Y184843D01*
X451073Y184844D01*
X451061Y184848D01*
X451049Y184852D01*
X450402Y185120D01*
X450390Y185126D01*
X450378Y185132D01*
X450373Y185136D01*
X450367Y185139D01*
X450357Y185147D01*
X450346Y185155D01*
X449820Y185616D01*
X449811Y185626D01*
X449801Y185635D01*
X449797Y185640D01*
X449793Y185645D01*
X449786Y185656D01*
X449778Y185667D01*
X449428Y186273D01*
X449423Y186285D01*
X449417Y186297D01*
X449415Y186303D01*
X449412Y186309D01*
X449409Y186322D01*
X449405Y186335D01*
X449268Y187021D01*
X449267Y187034D01*
X449265Y187047D01*
X449265Y187054D01*
X449265Y187060D01*
X449266Y187073D01*
X449266Y187087D01*
X449358Y187781D01*
X449361Y187794D01*
X449363Y187806D01*
X449365Y187813D01*
X449367Y187819D01*
X449372Y187831D01*
X449377Y187843D01*
X449686Y188471D01*
X449693Y188482D01*
X449699Y188494D01*
X449704Y188499D01*
X449707Y188505D01*
X449716Y188514D01*
X449724Y188524D01*
X449972Y188772D01*
X450195Y188994D01*
X450202Y189001D01*
X450209Y189008D01*
X450217Y189013D01*
X450225Y189019D01*
X450234Y189024D01*
X450242Y189030D01*
X450797Y189326D01*
X450806Y189330D01*
X450814Y189334D01*
X450824Y189337D01*
X450833Y189341D01*
X450843Y189343D01*
X450852Y189346D01*
X451469Y189469D01*
X451479Y189470D01*
X451488Y189471D01*
X451498D01*
X451508Y189472D01*
X451518Y189471D01*
D02*
G37*
G36*
X420745Y189405D02*
X420755D01*
X421381Y189344D01*
X421390Y189342D01*
X421400Y189341D01*
X421410Y189338D01*
X421419Y189336D01*
X421428Y189332D01*
X421438Y189329D01*
X422019Y189089D01*
X422028Y189084D01*
X422037Y189080D01*
X422045Y189075D01*
X422054Y189070D01*
X422061Y189064D01*
X422070Y189058D01*
X422556Y188659D01*
X422563Y188652D01*
X422570Y188646D01*
X422577Y188638D01*
X422584Y188631D01*
X422589Y188623D01*
X422595Y188616D01*
X422945Y188093D01*
X422950Y188084D01*
X422955Y188076D01*
X422959Y188067D01*
X422963Y188058D01*
X422966Y188048D01*
X422970Y188039D01*
X423153Y187437D01*
X423155Y187428D01*
X423158Y187418D01*
X423159Y187408D01*
X423160Y187399D01*
Y187389D01*
X423161Y187379D01*
Y187065D01*
Y186714D01*
X423160Y186701D01*
X423160Y186688D01*
X423158Y186682D01*
X423158Y186675D01*
X423154Y186663D01*
X423151Y186650D01*
X422926Y185987D01*
X422920Y185975D01*
X422916Y185963D01*
X422912Y185957D01*
X422909Y185951D01*
X422902Y185940D01*
X422895Y185929D01*
X422469Y185374D01*
X422460Y185364D01*
X422451Y185354D01*
X422446Y185350D01*
X422442Y185345D01*
X422431Y185337D01*
X422421Y185329D01*
X421839Y184940D01*
X421827Y184934D01*
X421816Y184927D01*
X421810Y184925D01*
X421804Y184922D01*
X421791Y184918D01*
X421779Y184913D01*
X421103Y184732D01*
X421090Y184730D01*
X421077Y184727D01*
X421070Y184727D01*
X421064Y184725D01*
X421051Y184726D01*
X421038Y184725D01*
X420339Y184771D01*
X420326Y184773D01*
X420313Y184775D01*
X420307Y184776D01*
X420300Y184778D01*
X420288Y184782D01*
X420275Y184786D01*
X419628Y185054D01*
X419617Y185060D01*
X419605Y185066D01*
X419599Y185069D01*
X419594Y185073D01*
X419584Y185081D01*
X419573Y185089D01*
X419046Y185550D01*
X419037Y185560D01*
X419028Y185569D01*
X419024Y185574D01*
X419020Y185579D01*
X419013Y185590D01*
X419005Y185601D01*
X418655Y186207D01*
X418649Y186219D01*
X418643Y186231D01*
X418641Y186237D01*
X418639Y186243D01*
X418636Y186256D01*
X418632Y186268D01*
X418495Y186955D01*
X418494Y186968D01*
X418492Y186981D01*
X418492Y186988D01*
X418491Y186994D01*
X418493Y187007D01*
X418493Y187020D01*
X418584Y187715D01*
X418587Y187727D01*
X418590Y187740D01*
X418592Y187746D01*
X418594Y187753D01*
X418599Y187765D01*
X418604Y187777D01*
X418913Y188405D01*
X418920Y188416D01*
X418926Y188428D01*
X418930Y188433D01*
X418934Y188438D01*
X418943Y188448D01*
X418951Y188458D01*
X419199Y188706D01*
X419421Y188928D01*
X419429Y188935D01*
X419436Y188942D01*
X419444Y188947D01*
X419452Y188953D01*
X419460Y188958D01*
X419469Y188963D01*
X420023Y189260D01*
X420033Y189264D01*
X420041Y189268D01*
X420051Y189271D01*
X420060Y189275D01*
X420069Y189277D01*
X420079Y189280D01*
X420696Y189402D01*
X420706Y189403D01*
X420715Y189405D01*
X420725D01*
X420735Y189406D01*
X420745Y189405D01*
D02*
G37*
D53*
X392323Y220374D02*
D03*
X397441D02*
D03*
Y211516D02*
D03*
X394882D02*
D03*
X392323D02*
D03*
D54*
X470079Y228150D02*
D03*
Y235630D02*
D03*
X479528D02*
D03*
Y228150D02*
D03*
Y231890D02*
D03*
D55*
X488582Y235886D02*
D03*
Y227107D02*
D03*
D56*
X432134Y243307D02*
D03*
X440701Y243307D02*
D03*
X451724Y194882D02*
D03*
X451724Y203280D02*
D03*
X433221Y194882D02*
D03*
X451724Y221260D02*
D03*
X451724Y212073D02*
D03*
X420716Y194882D02*
D03*
X420716Y212074D02*
D03*
X413535Y303543D02*
D03*
X414717Y221259D02*
D03*
X439220Y203150D02*
D03*
X439221Y212074D02*
D03*
X459299Y303544D02*
D03*
D57*
X426134Y243307D02*
D03*
X446701Y243307D02*
D03*
X457724Y194882D02*
D03*
X457724Y203281D02*
D03*
X439221Y194882D02*
D03*
X457725Y221260D02*
D03*
X457724Y212073D02*
D03*
X414716Y194882D02*
D03*
X414716Y212074D02*
D03*
X419535Y303543D02*
D03*
X420717Y221260D02*
D03*
X433220Y203150D02*
D03*
X433221Y212074D02*
D03*
X453299Y303543D02*
D03*
D58*
X432480Y265256D02*
D03*
X435039D02*
D03*
X437598D02*
D03*
X432480Y252756D02*
D03*
X435039D02*
D03*
X437598D02*
D03*
X440158D02*
D03*
D59*
X440158Y265256D02*
D03*
D60*
X436319Y257756D02*
D03*
D61*
X431496Y224016D02*
D03*
Y225984D02*
D03*
Y227953D02*
D03*
X441732D02*
D03*
Y225984D02*
D03*
Y224016D02*
D03*
D62*
X434646Y231102D02*
D03*
X436614D02*
D03*
X438583D02*
D03*
Y220866D02*
D03*
X436614D02*
D03*
X434646D02*
D03*
D63*
X450787Y235283D02*
D03*
X422441Y235283D02*
D03*
X461024Y235283D02*
D03*
X390551Y266685D02*
D03*
X482677Y266685D02*
D03*
X385827Y235283D02*
D03*
X411811Y229283D02*
D03*
D64*
X450788D02*
D03*
X422441Y229283D02*
D03*
X461024Y229283D02*
D03*
X390551Y272685D02*
D03*
X482677Y272685D02*
D03*
X385827Y229283D02*
D03*
X411811Y235283D02*
D03*
D65*
X381299Y250689D02*
D03*
Y262106D02*
D03*
X419193Y250787D02*
D03*
Y262205D02*
D03*
X493012Y262106D02*
D03*
Y250689D02*
D03*
X452362Y262205D02*
D03*
Y250787D02*
D03*
D66*
X401634Y230118D02*
D03*
D67*
Y232087D02*
D03*
Y234055D02*
D03*
Y236024D02*
D03*
X395217D02*
D03*
Y234055D02*
D03*
Y232087D02*
D03*
Y230118D02*
D03*
D68*
X399409Y236279D02*
D03*
X397441D02*
D03*
Y229862D02*
D03*
X399409D02*
D03*
D69*
X393504Y261407D02*
D03*
Y258258D02*
D03*
Y255108D02*
D03*
Y251959D02*
D03*
X408465D02*
D03*
Y255108D02*
D03*
Y258258D02*
D03*
Y261407D02*
D03*
X479331Y251575D02*
D03*
Y254724D02*
D03*
Y257874D02*
D03*
Y261024D02*
D03*
X464370D02*
D03*
Y257874D02*
D03*
Y254724D02*
D03*
Y251575D02*
D03*
D70*
X400984Y256683D02*
D03*
X471850Y256299D02*
D03*
D71*
X410827Y276969D02*
D03*
Y294685D02*
D03*
X464961Y276969D02*
D03*
Y294685D02*
D03*
D72*
X414115Y203281D02*
D03*
X422894D02*
D03*
D73*
X405118Y194094D02*
D03*
X479134Y203937D02*
D03*
X385039Y214961D02*
D03*
X405118Y222047D02*
D03*
X392520Y203937D02*
D03*
X436221Y185039D02*
D03*
X405118Y203937D02*
D03*
X405118Y212992D02*
D03*
X488189Y214961D02*
D03*
D74*
X377362Y243012D02*
D03*
X390551Y281102D02*
D03*
X436614Y285039D02*
D03*
X494882Y242913D02*
D03*
X436713Y272441D02*
D03*
X484252Y281102D02*
D03*
D75*
X403150Y261014D02*
D03*
Y256683D02*
D03*
Y252352D02*
D03*
X398819Y261014D02*
D03*
Y256683D02*
D03*
Y252352D02*
D03*
X469685Y251969D02*
D03*
Y256299D02*
D03*
Y260630D02*
D03*
X474016Y251969D02*
D03*
Y256299D02*
D03*
Y260630D02*
D03*
D76*
X377756Y227362D02*
D03*
M02*
