G04 Layer_Color=16777215*
%FSLAX25Y25*%
%MOIN*%
G70*
G01*
G75*
%ADD49C,0.00787*%
%ADD50C,0.00984*%
%ADD51C,0.01181*%
%ADD52C,0.00394*%
D49*
X443405Y265433D02*
X442815Y266024D01*
X442224Y265433D01*
X442815Y264843D01*
X443405Y265433D01*
X390882Y217126D02*
X398882D01*
X390882Y214764D02*
X398882D01*
Y217126D01*
X390882Y214764D02*
Y217126D01*
X485827Y224803D02*
X491339D01*
Y238189D01*
X485827D02*
X491339D01*
X485827Y224803D02*
Y238189D01*
X423228Y240158D02*
Y246457D01*
Y240158D02*
X435039D01*
Y246457D01*
X423228D02*
X435039D01*
X429921Y219291D02*
X431102D01*
X429921D02*
Y220472D01*
Y231496D02*
Y232677D01*
X431102D01*
X442126D02*
X443307D01*
Y231496D02*
Y232677D01*
X442126Y219291D02*
X443307D01*
Y220472D01*
X437795Y240158D02*
X449606D01*
X437795D02*
Y246457D01*
X449606D01*
Y240158D02*
Y246457D01*
X453937Y226378D02*
Y238189D01*
X447638Y226378D02*
X453937D01*
X447638D02*
Y238189D01*
X453937D01*
X448819Y191732D02*
X460630D01*
X448819D02*
Y198031D01*
X460630D01*
Y191732D02*
Y198031D01*
X425591Y226378D02*
Y238189D01*
X419291Y226378D02*
X425591D01*
X419291D02*
Y238189D01*
X425591D01*
X458268Y238189D02*
X463780D01*
X458268Y226378D02*
Y238189D01*
Y226378D02*
X463780D01*
Y238189D01*
X460630Y200525D02*
Y206037D01*
X448819D02*
X460630D01*
X448819Y200525D02*
Y206037D01*
Y200525D02*
X460630D01*
X430315Y191732D02*
X442126D01*
X430315D02*
Y198031D01*
X442126D01*
Y191732D02*
Y198031D01*
X448819Y218110D02*
X460630D01*
X448819D02*
Y224409D01*
X460630D01*
Y218110D02*
Y224409D01*
X460630Y209318D02*
Y214829D01*
X448819D02*
X460630D01*
X448819Y209318D02*
Y214829D01*
Y209318D02*
X460630D01*
X376575Y247736D02*
Y265059D01*
X386024D01*
Y247736D02*
Y265059D01*
X376575Y247736D02*
X386024D01*
X387795Y263779D02*
X393307D01*
Y275590D01*
X387795D02*
X393307D01*
X387795Y263779D02*
Y275590D01*
X414468Y247835D02*
X423917D01*
Y265157D01*
X414468D02*
X423917D01*
X414468Y247835D02*
Y265157D01*
X411811Y198031D02*
X423622D01*
Y191732D02*
Y198031D01*
X411811Y191732D02*
X423622D01*
X411811D02*
Y198031D01*
X411811Y209318D02*
Y214830D01*
Y209318D02*
X423622D01*
Y214830D01*
X411811D02*
X423622D01*
X422441Y300787D02*
Y306299D01*
X410630D02*
X422441D01*
X410630Y300787D02*
Y306299D01*
Y300787D02*
X422441D01*
X411811Y218110D02*
X423622D01*
X411811D02*
Y224410D01*
X423622D01*
Y218110D02*
Y224410D01*
X403543Y227953D02*
Y238189D01*
X393307D02*
X403543D01*
X393307Y227953D02*
Y238189D01*
Y227953D02*
X403543D01*
X398327Y272327D02*
Y299327D01*
X423327D01*
Y272327D02*
Y299327D01*
X398327Y272327D02*
X423327D01*
X430315Y206299D02*
X442126D01*
Y200000D02*
Y206299D01*
X430315Y200000D02*
X442126D01*
X430315D02*
Y206299D01*
X411811Y206037D02*
X425197D01*
Y200525D02*
Y206037D01*
X411811Y200525D02*
X425197D01*
X411811D02*
Y206037D01*
X497736Y247736D02*
Y265059D01*
X488287Y247736D02*
X497736D01*
X488287D02*
Y265059D01*
X497736D01*
X479921Y263779D02*
X485433D01*
Y275590D01*
X479921D02*
X485433D01*
X479921Y263779D02*
Y275590D01*
X447637Y265157D02*
X457086D01*
X447637Y247835D02*
Y265157D01*
Y247835D02*
X457086D01*
Y265157D01*
X430315Y209318D02*
Y214829D01*
Y209318D02*
X442126D01*
Y214829D01*
X430315D02*
X442126D01*
X388976Y226378D02*
Y238189D01*
X382677Y226378D02*
X388976D01*
X382677D02*
Y238189D01*
X388976D01*
X450394Y300787D02*
Y306299D01*
Y300787D02*
X462205D01*
Y306299D01*
X450394D02*
X462205D01*
X452461Y272327D02*
Y299327D01*
X477461D01*
Y272327D02*
Y299327D01*
X452461Y272327D02*
X477461D01*
X409055Y226378D02*
X414567D01*
Y238189D01*
X409055D02*
X414567D01*
X409055Y226378D02*
Y238189D01*
X497244Y232676D02*
X494096D01*
D50*
X430413Y219291D02*
X429675Y219718D01*
Y218865D01*
X430413Y219291D01*
X393476Y264683D02*
X392738Y265109D01*
Y264257D01*
X393476Y264683D01*
X480342Y248299D02*
X479604Y248725D01*
Y247873D01*
X480342Y248299D01*
D51*
X404134Y227953D02*
X403543Y228543D01*
X402953Y227953D01*
X403543Y227362D01*
X404134Y227953D01*
X473303Y236790D02*
X476203D01*
X473303Y226990D02*
Y236790D01*
X476203Y226990D02*
Y236790D01*
X473303Y226990D02*
X476203D01*
Y225990D02*
Y226990D01*
D52*
X442815Y252441D02*
Y265433D01*
X441831Y252441D02*
X442815D01*
X441831Y265433D02*
X442815D01*
X429823D02*
X430807D01*
X429823Y252441D02*
X430807D01*
X429823D02*
Y265433D01*
X425394Y193601D02*
X427493Y190453D01*
Y193601D02*
X425394Y190453D01*
X446981Y193601D02*
X444882D01*
Y192027D01*
X445931D01*
X444882D01*
Y190453D01*
M02*
