M48
;Layer_Color=9474304
;FILE_FORMAT=2:5
INCH,TZ
;TYPE=PLATED
T1F00S00C0.00787
T2F00S00C0.01181
T3F00S00C0.02800
T4F00S00C0.03150
T5F00S00C0.04331
T6F00S00C0.04724
%
T01
X469685Y251969
Y256299
Y260630
X474016
Y256299
Y251969
X403150Y252352
Y256683
Y261014
X398819
Y256683
Y252352
T02
X474409Y221654
X470079Y227953
Y239370
X474409Y244574
X483661Y247441
X483071Y272685
X470177Y277756
X467347
X464518
X461688
X458858
X441609Y274606
Y271063
X444095Y267717
X431767Y271063
Y274606
X427953Y266929
X413386Y260236
X413583Y258268
X414961Y257087
X411811
X407874Y242126
Y234252
X404724Y236221
X391732Y233071
X388976Y246850
Y257874
X380709Y272047
X404035Y277756
X406791
X409547
X412303
X415059
X424016Y303543
X448819
X456299Y255118
X458192Y254442
X458268Y252362
X460236Y255118
X450787Y243307
X444095Y246850
X436614
X431496Y243307
X427953
X431496Y234646
X436614Y227559
X438583Y217323
X439221Y212074
X433221Y212074
X420571Y212205
X414961
X420717Y221260
X417323Y229528
X444095Y236614
X447244Y233858
X450787Y228346
X447244Y221654
X459055Y216929
X444882Y203150
X439220Y203150
T03
X377756Y227362
T04
X479134Y203937
X488189Y214961
X436221Y185039
X405118Y194094
X405118Y203937
X405118Y212992
X405118Y222047
X385039Y214961
X392520Y203937
T05
X494882Y242913
X484252Y281102
X390551
X377362Y243012
T06
X436713Y272441
X436614Y285039
M30
