G04 Layer_Physical_Order=1*
G04 Layer_Color=1938175*
%FSLAX25Y25*%
%MOIN*%
G70*
G01*
G75*
%ADD10C,0.01000*%
%ADD11R,0.01378X0.03347*%
%ADD12R,0.03937X0.02756*%
%ADD13R,0.03268X0.02480*%
%ADD14R,0.03150X0.03543*%
%ADD15R,0.03150X0.03543*%
%ADD16R,0.01535X0.02284*%
G04:AMPARAMS|DCode=17|XSize=15.35mil|YSize=22.84mil|CornerRadius=3.84mil|HoleSize=0mil|Usage=FLASHONLY|Rotation=180.000|XOffset=0mil|YOffset=0mil|HoleType=Round|Shape=RoundedRectangle|*
%AMROUNDEDRECTD17*
21,1,0.01535,0.01516,0,0,180.0*
21,1,0.00768,0.02284,0,0,180.0*
1,1,0.00768,-0.00384,0.00758*
1,1,0.00768,0.00384,0.00758*
1,1,0.00768,0.00384,-0.00758*
1,1,0.00768,-0.00384,-0.00758*
%
%ADD17ROUNDEDRECTD17*%
%ADD18R,0.10630X0.07717*%
%ADD19R,0.01181X0.01181*%
%ADD20R,0.02756X0.01181*%
%ADD21R,0.01181X0.02756*%
%ADD22R,0.01181X0.01181*%
%ADD23R,0.03543X0.03150*%
%ADD24R,0.03543X0.03150*%
%ADD25R,0.07087X0.03543*%
G04:AMPARAMS|DCode=26|XSize=16.14mil|YSize=11.02mil|CornerRadius=2.76mil|HoleSize=0mil|Usage=FLASHONLY|Rotation=0.000|XOffset=0mil|YOffset=0mil|HoleType=Round|Shape=RoundedRectangle|*
%AMROUNDEDRECTD26*
21,1,0.01614,0.00551,0,0,0.0*
21,1,0.01063,0.01102,0,0,0.0*
1,1,0.00551,0.00532,-0.00276*
1,1,0.00551,-0.00532,-0.00276*
1,1,0.00551,-0.00532,0.00276*
1,1,0.00551,0.00532,0.00276*
%
%ADD26ROUNDEDRECTD26*%
%ADD27R,0.01614X0.01102*%
%ADD28R,0.01102X0.01614*%
%ADD29R,0.02756X0.01378*%
%ADD30R,0.09055X0.12598*%
%ADD31R,0.22441X0.06693*%
%ADD32R,0.02480X0.03268*%
%ADD33C,0.03150*%
%ADD34C,0.04724*%
%ADD35R,0.14272X0.07874*%
%ADD36R,0.09449X0.05512*%
%ADD37R,0.18110X0.03543*%
%ADD38R,0.19291X0.03543*%
%ADD39C,0.04724*%
%ADD40C,0.07087*%
%ADD41C,0.01969*%
%ADD42C,0.02756*%
%ADD43C,0.02362*%
%ADD44C,0.05000*%
G36*
X442981Y313099D02*
X447326Y312527D01*
X451623Y311672D01*
X455856Y310538D01*
X460006Y309130D01*
X464054Y307453D01*
X467984Y305514D01*
X471779Y303323D01*
X475423Y300889D01*
X478899Y298221D01*
X482194Y295332D01*
X485293Y292233D01*
X488182Y288939D01*
X490850Y285462D01*
X493284Y281819D01*
X495475Y278024D01*
X497413Y274094D01*
X499090Y270045D01*
X500499Y265896D01*
X501633Y261663D01*
X502488Y257365D01*
X503060Y253020D01*
X503346Y248648D01*
Y244266D01*
X503060Y239893D01*
X502488Y235548D01*
X501633Y231251D01*
X500499Y227018D01*
X499090Y222868D01*
X497413Y218820D01*
X495475Y214890D01*
X493284Y211094D01*
X490850Y207451D01*
X488182Y203975D01*
X485293Y200680D01*
X482194Y197581D01*
X478899Y194692D01*
X475423Y192024D01*
X471779Y189590D01*
X467984Y187399D01*
X464054Y185461D01*
X460006Y183784D01*
X455856Y182375D01*
X451623Y181241D01*
X447326Y180386D01*
X442981Y179814D01*
X438608Y179527D01*
X434226D01*
X429854Y179814D01*
X425509Y180386D01*
X421211Y181241D01*
X416978Y182375D01*
X412829Y183784D01*
X408780Y185461D01*
X404850Y187399D01*
X401055Y189590D01*
X397412Y192024D01*
X393935Y194692D01*
X390641Y197581D01*
X387542Y200680D01*
X384653Y203975D01*
X381985Y207451D01*
X379551Y211094D01*
X377360Y214890D01*
X375421Y218820D01*
X373744Y222868D01*
X372336Y227018D01*
X371202Y231251D01*
X370347Y235548D01*
X369775Y239893D01*
X369488Y244266D01*
Y248648D01*
X369775Y253020D01*
X370347Y257365D01*
X371202Y261663D01*
X372336Y265896D01*
X373744Y270045D01*
X375421Y274094D01*
X377360Y278024D01*
X379551Y281819D01*
X381985Y285462D01*
X384653Y288939D01*
X387542Y292233D01*
X390641Y295332D01*
X393935Y298221D01*
X397412Y300889D01*
X401055Y303323D01*
X404850Y305514D01*
X408780Y307453D01*
X412829Y309130D01*
X416978Y310538D01*
X421211Y311672D01*
X425509Y312527D01*
X429854Y313099D01*
X434226Y313386D01*
X438608D01*
X442981Y313099D01*
D02*
G37*
%LPC*%
G36*
X422638Y280906D02*
X399016D01*
Y273031D01*
X422638D01*
Y280906D01*
D02*
G37*
G36*
X412033Y306321D02*
X411854Y306296D01*
X411675Y306278D01*
X411658Y306269D01*
X411639Y306266D01*
X411483Y306175D01*
X411324Y306090D01*
X411312Y306075D01*
X411296Y306065D01*
X411187Y305921D01*
X411073Y305782D01*
X411067Y305763D01*
X411055Y305748D01*
X411010Y305573D01*
X410958Y305401D01*
X410944Y305253D01*
X410914Y305142D01*
X410846Y304972D01*
X410731Y304752D01*
X410568Y304491D01*
X410368Y304210D01*
X409416Y303103D01*
X409016Y302692D01*
X408935Y302568D01*
X408842Y302452D01*
X408827Y302402D01*
X408799Y302358D01*
X408772Y302212D01*
X408730Y302070D01*
X408736Y302018D01*
X408726Y301967D01*
X408746Y301875D01*
X408380Y301510D01*
X407958Y300879D01*
X407819Y300786D01*
X407660Y300684D01*
X407654Y300675D01*
X407645Y300670D01*
X407540Y300512D01*
X407432Y300358D01*
X407430Y300347D01*
X407424Y300339D01*
X407387Y300153D01*
X407347Y299969D01*
X407333Y299300D01*
X407296Y298821D01*
X407279Y298711D01*
X407220Y298622D01*
X399016D01*
Y297647D01*
X398998Y297630D01*
X398903Y297565D01*
X398856Y297494D01*
X398795Y297435D01*
X398748Y297329D01*
X398685Y297232D01*
X398669Y297149D01*
X398635Y297071D01*
X398632Y296955D01*
X398611Y296842D01*
X398628Y296758D01*
X398626Y296673D01*
X398668Y296565D01*
X398692Y296452D01*
X398740Y296382D01*
X398771Y296302D01*
X398851Y296219D01*
X398916Y296123D01*
X399016Y296025D01*
Y295332D01*
X398856Y294949D01*
X398503Y294337D01*
X398004Y293627D01*
X396512Y291878D01*
X395545Y290879D01*
X395456Y290740D01*
X395358Y290609D01*
X395349Y290574D01*
X395329Y290544D01*
X395300Y290383D01*
X395259Y290223D01*
X395265Y290188D01*
X395258Y290153D01*
X395282Y290045D01*
X392377Y287140D01*
X392277Y287163D01*
X392264Y287161D01*
X392252Y287163D01*
X392069Y287127D01*
X391885Y287095D01*
X391874Y287088D01*
X391862Y287086D01*
X391706Y286982D01*
X391549Y286882D01*
X391029Y286388D01*
X390587Y286018D01*
X390408Y285886D01*
X390245Y285779D01*
X390108Y285701D01*
X390003Y285652D01*
X389935Y285628D01*
X389836Y285607D01*
X389783Y285584D01*
X389365Y285529D01*
X388260Y285071D01*
X387311Y284343D01*
X386583Y283394D01*
X386125Y282288D01*
X385969Y281102D01*
X386125Y279916D01*
X386583Y278811D01*
X387311Y277862D01*
X388260Y277134D01*
X389365Y276676D01*
X390551Y276520D01*
X391737Y276676D01*
X392842Y277134D01*
X393792Y277862D01*
X394520Y278811D01*
X394977Y279916D01*
X395033Y280334D01*
X395056Y280387D01*
X395077Y280487D01*
X395101Y280554D01*
X395150Y280659D01*
X395228Y280796D01*
X395335Y280960D01*
X395461Y281131D01*
X396071Y281834D01*
X396322Y282091D01*
X396427Y282252D01*
X396534Y282413D01*
X396535Y282419D01*
X396539Y282424D01*
X396574Y282614D01*
X396612Y282803D01*
X396611Y282809D01*
X396612Y282815D01*
X396588Y282927D01*
X400671Y287011D01*
X400746Y286992D01*
X400763Y286994D01*
X400781Y286991D01*
X400959Y287023D01*
X401139Y287049D01*
X401155Y287058D01*
X401172Y287061D01*
X401325Y287159D01*
X401481Y287252D01*
X401492Y287266D01*
X401507Y287276D01*
X402408Y288144D01*
X403233Y288873D01*
X403991Y289475D01*
X404678Y289949D01*
X405285Y290295D01*
X405803Y290516D01*
X406216Y290624D01*
X406519Y290642D01*
X406728Y290601D01*
X407019Y290454D01*
X407143Y290419D01*
X407261Y290367D01*
X407333Y290366D01*
X407402Y290346D01*
X407530Y290361D01*
X407659Y290359D01*
X407726Y290385D01*
X407797Y290393D01*
X407909Y290457D01*
X408029Y290503D01*
X408081Y290553D01*
X408144Y290588D01*
X408223Y290689D01*
X408285Y290748D01*
X422638D01*
Y293291D01*
X423006Y293845D01*
X423172Y294690D01*
X423002Y295534D01*
X422638Y296078D01*
Y298622D01*
X412994D01*
X412791Y299122D01*
X412911Y299239D01*
X413292Y299589D01*
X413998Y300172D01*
X414287Y300378D01*
X414548Y300542D01*
X414767Y300656D01*
X414937Y300725D01*
X415048Y300754D01*
X415196Y300769D01*
X415312Y300803D01*
X415432Y300820D01*
X415501Y300860D01*
X415577Y300883D01*
X415671Y300960D01*
X415775Y301021D01*
X415824Y301085D01*
X415885Y301135D01*
X415942Y301242D01*
X416015Y301338D01*
X416036Y301415D01*
X416073Y301486D01*
X416085Y301606D01*
X416116Y301723D01*
X416105Y301802D01*
X416113Y301882D01*
X416078Y301997D01*
X416062Y302117D01*
X416021Y302186D01*
X415998Y302262D01*
X415922Y302356D01*
X415861Y302461D01*
X415701Y302640D01*
Y303330D01*
X415743Y303543D01*
X415701Y303756D01*
Y305905D01*
X412801D01*
X412735Y305980D01*
X412591Y306089D01*
X412452Y306203D01*
X412433Y306208D01*
X412418Y306220D01*
X412244Y306265D01*
X412071Y306318D01*
X412052Y306316D01*
X412033Y306321D01*
D02*
G37*
G36*
X437383Y311613D02*
X435452D01*
X435353Y311593D01*
X435253D01*
X433358Y311216D01*
X433265Y311178D01*
X433167Y311158D01*
X431383Y310419D01*
X431299Y310363D01*
X431206Y310325D01*
X429600Y309252D01*
X429529Y309181D01*
X429446Y309125D01*
X428080Y307759D01*
X428024Y307676D01*
X427953Y307605D01*
X426880Y305998D01*
X426842Y305906D01*
X426786Y305822D01*
X426047Y304038D01*
X426027Y303939D01*
X425989Y303847D01*
X425612Y301952D01*
Y301852D01*
X425592Y301753D01*
Y299822D01*
X425612Y299723D01*
Y299623D01*
X425989Y297728D01*
X426027Y297636D01*
X426047Y297537D01*
X426786Y295753D01*
X426842Y295669D01*
X426880Y295576D01*
X427953Y293970D01*
X428024Y293899D01*
X428080Y293816D01*
X429446Y292450D01*
X429529Y292394D01*
X429600Y292323D01*
X431206Y291250D01*
X431299Y291212D01*
X431383Y291156D01*
X433167Y290417D01*
X433265Y290397D01*
X433358Y290359D01*
X435253Y289982D01*
X435353D01*
X435452Y289962D01*
X437383D01*
X437482Y289982D01*
X437582D01*
X439476Y290359D01*
X439569Y290397D01*
X439668Y290417D01*
X441452Y291156D01*
X441536Y291212D01*
X441628Y291250D01*
X443234Y292323D01*
X443305Y292394D01*
X443389Y292450D01*
X444755Y293816D01*
X444810Y293899D01*
X444881Y293970D01*
X445955Y295576D01*
X445993Y295669D01*
X446049Y295753D01*
X446788Y297537D01*
X446808Y297636D01*
X446846Y297728D01*
X447223Y299623D01*
Y299723D01*
X447242Y299822D01*
Y301753D01*
X447223Y301852D01*
Y301952D01*
X446846Y303847D01*
X446808Y303939D01*
X446788Y304038D01*
X446049Y305822D01*
X445993Y305906D01*
X445955Y305998D01*
X444881Y307605D01*
X444810Y307676D01*
X444755Y307759D01*
X443389Y309125D01*
X443305Y309181D01*
X443234Y309252D01*
X441628Y310325D01*
X441536Y310363D01*
X441452Y310419D01*
X439668Y311158D01*
X439569Y311178D01*
X439476Y311216D01*
X437582Y311593D01*
X437482D01*
X437383Y311613D01*
D02*
G37*
G36*
X460802Y306321D02*
X460783Y306316D01*
X460764Y306318D01*
X460591Y306266D01*
X460417Y306221D01*
X460401Y306209D01*
X460383Y306203D01*
X460243Y306089D01*
X460100Y305980D01*
X460033Y305906D01*
X457134D01*
Y303757D01*
X457091Y303544D01*
X457134Y303330D01*
Y302641D01*
X456974Y302461D01*
X456913Y302357D01*
X456836Y302263D01*
X456813Y302187D01*
X456773Y302118D01*
X456756Y301998D01*
X456721Y301882D01*
X456729Y301803D01*
X456718Y301724D01*
X456749Y301607D01*
X456761Y301486D01*
X456799Y301416D01*
X456819Y301339D01*
X456892Y301242D01*
X456949Y301136D01*
X457011Y301085D01*
X457059Y301022D01*
X457164Y300960D01*
X457257Y300884D01*
X457334Y300861D01*
X457403Y300821D01*
X457522Y300804D01*
X457638Y300769D01*
X457786Y300755D01*
X457897Y300726D01*
X458067Y300657D01*
X458287Y300542D01*
X458548Y300379D01*
X458829Y300179D01*
X459936Y299228D01*
X460044Y299122D01*
X459841Y298622D01*
X453150D01*
Y294898D01*
X452980Y294644D01*
X452812Y293799D01*
X452980Y292954D01*
X453150Y292701D01*
Y290748D01*
X466526D01*
X466571Y290674D01*
X466621Y290637D01*
X466660Y290587D01*
X466781Y290520D01*
X466891Y290439D01*
X466953Y290424D01*
X467007Y290393D01*
X467144Y290377D01*
X467278Y290344D01*
X467340Y290354D01*
X467403Y290346D01*
X467535Y290384D01*
X467671Y290405D01*
X468020Y290532D01*
X468301Y290563D01*
X468661Y290527D01*
X469109Y290402D01*
X469640Y290172D01*
X470246Y289829D01*
X470906Y289378D01*
X472450Y288089D01*
X473297Y287275D01*
X473379Y287223D01*
X473449Y287155D01*
X473545Y287116D01*
X473632Y287061D01*
X473728Y287043D01*
X473819Y287007D01*
X473922Y287009D01*
X474023Y286991D01*
X474119Y287012D01*
X474131Y287012D01*
X478214Y282928D01*
X478192Y282828D01*
X478194Y282816D01*
X478191Y282803D01*
X478228Y282620D01*
X478259Y282436D01*
X478266Y282425D01*
X478269Y282413D01*
X478372Y282258D01*
X478472Y282100D01*
X478966Y281580D01*
X479337Y281138D01*
X479468Y280960D01*
X479575Y280796D01*
X479653Y280659D01*
X479702Y280554D01*
X479726Y280487D01*
X479748Y280387D01*
X479771Y280334D01*
X479826Y279916D01*
X480283Y278811D01*
X481012Y277862D01*
X481961Y277134D01*
X483066Y276676D01*
X484252Y276520D01*
X485438Y276676D01*
X486543Y277134D01*
X487492Y277862D01*
X488221Y278811D01*
X488678Y279916D01*
X488834Y281102D01*
X488678Y282288D01*
X488221Y283394D01*
X487492Y284343D01*
X486543Y285071D01*
X485438Y285529D01*
X485020Y285584D01*
X484968Y285607D01*
X484868Y285628D01*
X484800Y285652D01*
X484695Y285701D01*
X484558Y285779D01*
X484395Y285886D01*
X484224Y286012D01*
X483520Y286623D01*
X483264Y286873D01*
X483102Y286978D01*
X482942Y287086D01*
X482935Y287087D01*
X482930Y287090D01*
X482740Y287125D01*
X482551Y287163D01*
X482545Y287162D01*
X482539Y287163D01*
X482427Y287139D01*
X480512Y289055D01*
X480511Y289077D01*
X480529Y289151D01*
X480509Y289274D01*
X480507Y289398D01*
X480477Y289468D01*
X480464Y289544D01*
X480399Y289649D01*
X480349Y289763D01*
X480295Y289817D01*
X480255Y289882D01*
X478366Y291901D01*
X477686Y292738D01*
X477165Y293474D01*
X476809Y294087D01*
X476772Y294178D01*
Y295056D01*
X476842Y295133D01*
X476932Y295205D01*
X476974Y295279D01*
X477031Y295342D01*
X477070Y295451D01*
X477127Y295552D01*
X477137Y295636D01*
X477166Y295716D01*
X477160Y295832D01*
X477174Y295947D01*
X477150Y296029D01*
X477146Y296114D01*
X477097Y296218D01*
X477065Y296330D01*
X477013Y296396D01*
X476976Y296474D01*
X476891Y296551D01*
X476819Y296642D01*
X476772Y296669D01*
Y298622D01*
X465594D01*
Y299457D01*
X465425Y300302D01*
X464947Y301018D01*
X464089Y301876D01*
X464109Y301968D01*
X464099Y302019D01*
X464105Y302071D01*
X464063Y302213D01*
X464036Y302359D01*
X464008Y302403D01*
X463993Y302452D01*
X463900Y302568D01*
X463819Y302693D01*
X463406Y303116D01*
X463056Y303497D01*
X462473Y304203D01*
X462267Y304491D01*
X462104Y304753D01*
X461989Y304972D01*
X461920Y305142D01*
X461891Y305253D01*
X461877Y305401D01*
X461825Y305574D01*
X461779Y305749D01*
X461768Y305764D01*
X461762Y305782D01*
X461648Y305922D01*
X461539Y306066D01*
X461522Y306075D01*
X461510Y306090D01*
X461351Y306176D01*
X461196Y306267D01*
X461177Y306269D01*
X461160Y306278D01*
X460980Y306296D01*
X460802Y306321D01*
D02*
G37*
G36*
X443701Y277397D02*
X429429D01*
X429039Y277320D01*
X428708Y277099D01*
X428487Y276768D01*
X428409Y276378D01*
Y269255D01*
X428023Y268938D01*
X427953Y268952D01*
X427178Y268798D01*
X426522Y268360D01*
X426084Y267703D01*
X425930Y266929D01*
X426034Y266403D01*
X425573Y266156D01*
X424999Y266731D01*
X424638Y266972D01*
X424213Y267057D01*
X424213Y267057D01*
X401838D01*
X396456Y272440D01*
X396095Y272681D01*
X395669Y272765D01*
X395669Y272765D01*
X394107D01*
X394050Y272855D01*
X394039Y272863D01*
X394031Y272874D01*
X393877Y272978D01*
X393725Y273085D01*
X393712Y273088D01*
X393701Y273095D01*
X393518Y273132D01*
X393337Y273173D01*
X393177Y273177D01*
X393165Y273178D01*
X393096Y273259D01*
X393014Y273380D01*
X392968Y273410D01*
X392933Y273451D01*
X392913Y273462D01*
Y274851D01*
X388189D01*
Y273135D01*
X388103Y273081D01*
X388053Y273011D01*
X387989Y272953D01*
X387939Y272850D01*
X387873Y272757D01*
X387854Y272673D01*
X387816Y272595D01*
X387809Y272481D01*
X387784Y272369D01*
X387798Y272284D01*
X387793Y272198D01*
X387811Y272147D01*
X387537Y271827D01*
X387351Y271635D01*
X387281Y271525D01*
X387196Y271427D01*
X387174Y271359D01*
X387136Y271300D01*
X387112Y271172D01*
X387072Y271049D01*
X387077Y270978D01*
X387065Y270909D01*
X387089Y270796D01*
X385828Y269535D01*
X385587Y269174D01*
X385502Y268748D01*
X385502Y268748D01*
Y264940D01*
X385433Y264468D01*
X378694D01*
X378342Y264708D01*
X378271Y264738D01*
X378210Y264785D01*
X378090Y264815D01*
X377976Y264864D01*
X377899Y264865D01*
X377824Y264884D01*
X377702Y264866D01*
X377578Y264868D01*
X377507Y264839D01*
X377431Y264828D01*
X377324Y264765D01*
X377209Y264719D01*
X377154Y264665D01*
X377088Y264626D01*
X377013Y264527D01*
X376925Y264440D01*
X376895Y264370D01*
X376849Y264308D01*
X376818Y264188D01*
X376769Y264074D01*
X376769Y263997D01*
X376749Y263923D01*
X376730Y263579D01*
X376681Y263281D01*
X376596Y262969D01*
X376473Y262642D01*
X376308Y262299D01*
X376101Y261941D01*
X375858Y261581D01*
X375199Y260776D01*
X374803Y260362D01*
X374728Y260243D01*
X374639Y260133D01*
X374622Y260076D01*
X374590Y260026D01*
X374565Y259887D01*
X374525Y259752D01*
X374531Y259692D01*
X374521Y259634D01*
X374539Y259552D01*
X372652Y257663D01*
X372173Y256947D01*
X372005Y256102D01*
Y247835D01*
X372152Y247093D01*
X372125Y246950D01*
X372082Y246796D01*
X372087Y246756D01*
X372079Y246716D01*
X372111Y246560D01*
X372131Y246401D01*
X372151Y246366D01*
X372159Y246326D01*
X372248Y246194D01*
X372327Y246055D01*
X372453Y245909D01*
X372530Y245790D01*
X372606Y245632D01*
X372678Y245432D01*
X372740Y245189D01*
X372789Y244902D01*
X372821Y244586D01*
X372834Y243778D01*
X372810Y243322D01*
X372815Y243284D01*
X372780Y243012D01*
X372936Y241826D01*
X373394Y240721D01*
X374122Y239772D01*
X375071Y239043D01*
X376176Y238585D01*
X377362Y238429D01*
X378548Y238585D01*
X379654Y239043D01*
X380603Y239772D01*
X381331Y240721D01*
X381789Y241826D01*
X381945Y243012D01*
X381789Y244198D01*
X381331Y245303D01*
X380603Y246252D01*
X379654Y246980D01*
X379050Y247230D01*
X378976Y247279D01*
X378797Y247353D01*
X378637Y247430D01*
X378474Y247521D01*
X378073Y247786D01*
X377889Y247924D01*
X377188Y248534D01*
X376948Y248768D01*
X376785Y248874D01*
X376622Y248982D01*
X376618Y248983D01*
X376614Y248985D01*
X376423Y249021D01*
X376420Y249021D01*
Y255188D01*
X378343Y257110D01*
X378363Y257104D01*
X378401Y257108D01*
X378438Y257100D01*
X378597Y257129D01*
X378758Y257146D01*
X378792Y257164D01*
X378830Y257170D01*
X378966Y257258D01*
X379108Y257335D01*
X379132Y257365D01*
X379164Y257385D01*
X379687Y257889D01*
X380098Y257804D01*
X380187Y257764D01*
Y256497D01*
X380187Y256496D01*
X380272Y256071D01*
X380513Y255710D01*
X382285Y253938D01*
X382645Y253697D01*
X383071Y253612D01*
X383071Y253612D01*
X390334D01*
X390364Y253584D01*
X390417Y253503D01*
X390504Y253446D01*
X390578Y253372D01*
X390668Y253336D01*
X390748Y253282D01*
X390850Y253262D01*
X390947Y253223D01*
X391043Y253224D01*
X391138Y253205D01*
X391240Y253225D01*
X391344Y253226D01*
X392344Y253433D01*
X392429Y253468D01*
X392519Y253486D01*
X392611Y253545D01*
X392711Y253588D01*
X392735Y253612D01*
X393504D01*
X393930Y253697D01*
X394126Y253829D01*
X395473D01*
Y256388D01*
X393479D01*
X393479Y256388D01*
X393256Y256888D01*
X393337Y256978D01*
X395473D01*
Y259537D01*
X393390D01*
X393214Y259833D01*
X393390Y260128D01*
X395473D01*
Y262687D01*
X392938D01*
X392859Y262805D01*
X392815Y262835D01*
X392781Y262876D01*
X392651Y262945D01*
X392528Y263026D01*
X392476Y263037D01*
X392429Y263062D01*
X392282Y263075D01*
X392138Y263104D01*
X392086Y263093D01*
X392033Y263099D01*
X391892Y263055D01*
X391748Y263026D01*
X391704Y262997D01*
X391653Y262981D01*
X391620Y262954D01*
X391285Y262928D01*
X391129Y262927D01*
X390938Y262887D01*
X390748Y262849D01*
X390744Y262847D01*
X390739Y262846D01*
X390579Y262737D01*
X390417Y262628D01*
X390414Y262624D01*
X390410Y262622D01*
X390343Y262519D01*
X389447D01*
X387726Y264240D01*
Y268288D01*
X388847Y269409D01*
X388865Y269403D01*
X388908Y269406D01*
X388950Y269396D01*
X389105Y269421D01*
X389261Y269433D01*
X389300Y269452D01*
X389342Y269459D01*
X389476Y269542D01*
X389616Y269612D01*
X389645Y269645D01*
X389681Y269668D01*
X390036Y269997D01*
X390153Y270090D01*
X390227Y270141D01*
X390294Y270121D01*
X390419Y270132D01*
X390544Y270125D01*
X390615Y270149D01*
X390690Y270156D01*
X390801Y270214D01*
X390920Y270256D01*
X390976Y270306D01*
X391043Y270341D01*
X391070Y270373D01*
X391499Y270393D01*
X391612Y270379D01*
X391771Y270280D01*
X391928Y270177D01*
X391940Y270175D01*
X391950Y270169D01*
X392134Y270138D01*
X392318Y270103D01*
X392330Y270105D01*
X392342Y270103D01*
X393342Y270134D01*
X393521Y270176D01*
X393701Y270212D01*
X393714Y270220D01*
X393730Y270224D01*
X393879Y270331D01*
X394031Y270433D01*
X394040Y270446D01*
X394054Y270455D01*
X394107Y270542D01*
X395209D01*
X400592Y265159D01*
X400592Y265159D01*
X400952Y264918D01*
X401378Y264833D01*
X423752D01*
X424872Y263713D01*
Y255744D01*
X416980D01*
X416745Y256185D01*
X416830Y256312D01*
X416984Y257087D01*
X416830Y257861D01*
X416391Y258517D01*
X415891Y258851D01*
X415823Y259196D01*
X415344Y259911D01*
X415409Y260236D01*
X415255Y261010D01*
X414816Y261667D01*
X414160Y262105D01*
X413386Y262259D01*
X412612Y262105D01*
X411955Y261667D01*
X411517Y261010D01*
X411363Y260236D01*
X411449Y259801D01*
X411123Y259429D01*
X410638Y259454D01*
X410615Y259481D01*
X410533Y259602D01*
X410487Y259631D01*
X410452Y259673D01*
X410322Y259740D01*
X410200Y259820D01*
X410147Y259830D01*
X410098Y259855D01*
X409953Y259866D01*
X409809Y259894D01*
X409756Y259882D01*
X409702Y259887D01*
X409563Y259842D01*
X409420Y259812D01*
X409375Y259782D01*
X409323Y259765D01*
X409212Y259670D01*
X409091Y259588D01*
X409061Y259543D01*
X409055Y259537D01*
X406496D01*
Y256978D01*
X407431D01*
X407608Y256622D01*
X407448Y256388D01*
X406496D01*
Y253829D01*
X407431D01*
X407608Y253473D01*
X407448Y253238D01*
X406496D01*
Y250679D01*
X410433D01*
Y252755D01*
X410481Y252874D01*
X410541Y252958D01*
X410831Y253205D01*
X410831Y253205D01*
X410924Y253223D01*
X410933Y253224D01*
X411022Y253223D01*
X411119Y253262D01*
X411221Y253282D01*
X411301Y253336D01*
X411391Y253372D01*
X411465Y253446D01*
X411552Y253503D01*
X411605Y253584D01*
X411634Y253612D01*
X412169D01*
Y251181D01*
X412247Y250791D01*
X412468Y250460D01*
X412799Y250239D01*
X413189Y250162D01*
X415059D01*
Y248462D01*
X415059Y248425D01*
X414969Y247962D01*
X391212D01*
X391158Y248049D01*
X391145Y248058D01*
X391136Y248071D01*
X390983Y248173D01*
X390834Y248280D01*
X390818Y248283D01*
X390805Y248292D01*
X390625Y248328D01*
X390446Y248370D01*
X390387Y248371D01*
X390362Y248374D01*
X390339Y248377D01*
X390318Y248382D01*
X390298Y248388D01*
X390277Y248396D01*
X390256Y248406D01*
X390232Y248418D01*
X390207Y248434D01*
X390155Y248470D01*
X390060Y248513D01*
X389751Y248720D01*
X388976Y248873D01*
X388202Y248720D01*
X387546Y248281D01*
X387107Y247625D01*
X386953Y246850D01*
X387107Y246076D01*
X387546Y245420D01*
X388202Y244981D01*
X388976Y244827D01*
X389751Y244981D01*
X390060Y245188D01*
X390155Y245230D01*
X390207Y245267D01*
X390232Y245283D01*
X390256Y245295D01*
X390277Y245305D01*
X390298Y245312D01*
X390318Y245319D01*
X390339Y245323D01*
X390362Y245327D01*
X390387Y245329D01*
X390446Y245331D01*
X390625Y245373D01*
X390805Y245408D01*
X390818Y245417D01*
X390834Y245421D01*
X390983Y245528D01*
X391136Y245629D01*
X391145Y245643D01*
X391158Y245652D01*
X391212Y245739D01*
X423497D01*
X423969Y245669D01*
X423969Y245238D01*
Y240945D01*
X424547D01*
X424585Y240880D01*
X424606Y240864D01*
X424621Y240842D01*
X424765Y240745D01*
X424903Y240641D01*
X424929Y240634D01*
X424951Y240619D01*
X425120Y240585D01*
X425288Y240541D01*
X425377Y240536D01*
X425418Y240530D01*
X425466Y240518D01*
X425522Y240498D01*
X425587Y240468D01*
X425661Y240426D01*
X425744Y240372D01*
X425835Y240303D01*
X425934Y240219D01*
X426057Y240102D01*
X426215Y240002D01*
X426369Y239898D01*
X426382Y239896D01*
X426393Y239889D01*
X426577Y239857D01*
X426760Y239821D01*
X426914D01*
X428115Y238620D01*
X427908Y238120D01*
X427232D01*
X425589Y239763D01*
X425229Y240004D01*
X424803Y240088D01*
X424803Y240088D01*
X409296D01*
X409144Y240588D01*
X409305Y240695D01*
X409743Y241352D01*
X409897Y242126D01*
X409743Y242900D01*
X409305Y243557D01*
X408648Y243995D01*
X407874Y244149D01*
X407100Y243995D01*
X406791Y243789D01*
X406695Y243746D01*
X406643Y243709D01*
X406618Y243694D01*
X406595Y243682D01*
X406573Y243672D01*
X406553Y243664D01*
X406532Y243658D01*
X406511Y243653D01*
X406489Y243649D01*
X406464Y243647D01*
X406404Y243645D01*
X406225Y243604D01*
X406045Y243568D01*
X406032Y243559D01*
X406016Y243555D01*
X405867Y243449D01*
X405715Y243347D01*
X405706Y243334D01*
X405693Y243324D01*
X405639Y243238D01*
X395669D01*
X395669Y243238D01*
X395244Y243153D01*
X394883Y242912D01*
X390182Y238211D01*
X390068Y238189D01*
X389887Y238158D01*
X389874Y238150D01*
X389858Y238147D01*
X389705Y238045D01*
X389550Y237948D01*
X389541Y237935D01*
X389527Y237926D01*
X389425Y237773D01*
X389319Y237624D01*
X389315Y237608D01*
X389306Y237595D01*
X389270Y237415D01*
X389229Y237236D01*
X389226Y237147D01*
X389182Y237072D01*
X389083Y236975D01*
X388894Y236835D01*
X388742Y236773D01*
X388613Y236803D01*
X388455Y236807D01*
X388452Y236807D01*
X388389Y236883D01*
X388307Y237004D01*
X388263Y237034D01*
X388228Y237076D01*
X388189Y237096D01*
Y237449D01*
X383465D01*
Y233118D01*
X388189D01*
Y233470D01*
X388228Y233491D01*
X388263Y233533D01*
X388307Y233562D01*
X388389Y233684D01*
X388452Y233760D01*
X388455Y233760D01*
X388613Y233764D01*
X388794Y233805D01*
X388977Y233841D01*
X388988Y233849D01*
X389001Y233852D01*
X389153Y233959D01*
X389307Y234062D01*
X389496Y234080D01*
X389835Y234076D01*
X389932Y234005D01*
X389953Y234000D01*
X389971Y233988D01*
X390145Y233953D01*
X390318Y233911D01*
X390340Y233915D01*
X390361Y233910D01*
X390536Y233945D01*
X390711Y233972D01*
X390730Y233984D01*
X390752Y233988D01*
X390899Y234087D01*
X391051Y234179D01*
X391142Y234262D01*
X391202Y234309D01*
X391267Y234350D01*
X391337Y234387D01*
X391413Y234419D01*
X391499Y234447D01*
X391595Y234470D01*
X391703Y234488D01*
X391823Y234500D01*
X391986Y234505D01*
X392025Y234513D01*
X392065Y234510D01*
X392218Y234558D01*
X392374Y234594D01*
X392414Y234619D01*
X392444Y234629D01*
X392701Y234803D01*
X392861Y234696D01*
X393019Y234587D01*
X393026Y234585D01*
X393031Y234582D01*
X393220Y234544D01*
X393408Y234504D01*
X394135Y234495D01*
X394242Y234488D01*
X394263Y234486D01*
X394271Y234487D01*
X394272Y234487D01*
X394273Y234487D01*
X394300Y234489D01*
X394422Y234465D01*
X394495Y234479D01*
X394570Y234476D01*
X394688Y234518D01*
X394812Y234542D01*
X394874Y234584D01*
X394944Y234609D01*
X395038Y234694D01*
X395143Y234764D01*
X395184Y234826D01*
X395240Y234876D01*
X395243Y234882D01*
X396299D01*
Y234882D01*
X397956D01*
X398164Y234382D01*
X397847Y234065D01*
X397536Y233857D01*
X397327Y233546D01*
X396655Y232873D01*
X396414Y232512D01*
X396413Y232507D01*
X396391Y232492D01*
X396230Y232388D01*
X396226Y232382D01*
X396220Y232378D01*
X396113Y232218D01*
X396004Y232060D01*
X396003Y232053D01*
X395999Y232048D01*
X395961Y231859D01*
X395921Y231671D01*
X395916Y231260D01*
X393819D01*
Y228976D01*
X393445Y228671D01*
X388189D01*
Y231449D01*
X383465D01*
Y227118D01*
X386420D01*
X386765Y226773D01*
X386765Y226773D01*
X387126Y226532D01*
X387551Y226447D01*
X387553D01*
X387760Y225947D01*
X384253Y222440D01*
X384012Y222079D01*
X383927Y221654D01*
X383927Y221653D01*
Y218139D01*
X383344Y217898D01*
X382641Y217359D01*
X382102Y216656D01*
X381764Y215838D01*
X381648Y214961D01*
X381764Y214083D01*
X382102Y213265D01*
X382641Y212563D01*
X383344Y212024D01*
X384162Y211685D01*
X385039Y211569D01*
X385917Y211685D01*
X386735Y212024D01*
X387437Y212563D01*
X387976Y213265D01*
X388315Y214083D01*
X388431Y214961D01*
X388315Y215838D01*
X387976Y216656D01*
X387437Y217359D01*
X386735Y217898D01*
X386151Y218139D01*
Y221193D01*
X389347Y224388D01*
X392241D01*
X392432Y223926D01*
X391537Y223030D01*
X391296Y222670D01*
X391289Y222638D01*
X391043D01*
Y218110D01*
X393602D01*
Y221951D01*
X394260Y222609D01*
X396161D01*
Y218110D01*
X398721D01*
Y219262D01*
X399299D01*
X401433Y217127D01*
X401433Y217127D01*
X401794Y216886D01*
X402220Y216802D01*
X402220Y216802D01*
X404462D01*
X404495Y216301D01*
X404241Y216268D01*
X403423Y215929D01*
X402720Y215390D01*
X402181Y214688D01*
X401842Y213870D01*
X401727Y212992D01*
X401842Y212115D01*
X402181Y211297D01*
X402720Y210594D01*
X403267Y210175D01*
X403097Y209675D01*
X396161D01*
Y213779D01*
X394102D01*
X393602Y213779D01*
Y213780D01*
X393602D01*
Y213779D01*
X391043D01*
Y209252D01*
X392853D01*
X393044Y208790D01*
X391733Y207479D01*
X391522Y207163D01*
X390824Y206874D01*
X390122Y206335D01*
X389583Y205633D01*
X389244Y204815D01*
X389128Y203937D01*
X389244Y203059D01*
X389583Y202241D01*
X390122Y201539D01*
X390824Y201000D01*
X391642Y200661D01*
X392520Y200546D01*
X393397Y200661D01*
X394215Y201000D01*
X394918Y201539D01*
X395457Y202241D01*
X395795Y203059D01*
X395911Y203937D01*
X395795Y204815D01*
X395457Y205633D01*
X394918Y206335D01*
X394549Y206618D01*
X394516Y207117D01*
X394940Y207541D01*
X394949Y207536D01*
X395374Y207451D01*
X395374Y207451D01*
X403510D01*
X403609Y206951D01*
X403422Y206874D01*
X402720Y206335D01*
X402181Y205632D01*
X401842Y204815D01*
X401727Y203937D01*
X401842Y203059D01*
X402181Y202241D01*
X402720Y201539D01*
X403422Y201000D01*
X404240Y200661D01*
X405118Y200546D01*
X405996Y200661D01*
X406814Y201000D01*
X407516Y201539D01*
X408055Y202241D01*
X408394Y203059D01*
X408509Y203937D01*
X408394Y204815D01*
X408273Y205107D01*
X408617Y205581D01*
X411815D01*
X412284Y205506D01*
Y202225D01*
X412219Y202146D01*
X412203Y202095D01*
X412173Y202050D01*
X412144Y201906D01*
X412101Y201766D01*
X412106Y201712D01*
X412095Y201659D01*
X412124Y201516D01*
X412137Y201370D01*
X412162Y201322D01*
X412173Y201269D01*
X412254Y201148D01*
X412284Y201091D01*
Y201057D01*
X412302D01*
X412322Y201018D01*
X412364Y200983D01*
X412394Y200939D01*
X412515Y200857D01*
X412591Y200794D01*
X412591Y200791D01*
X412595Y200633D01*
X412637Y200451D01*
X412673Y200269D01*
X412680Y200258D01*
X412683Y200245D01*
X412790Y200093D01*
X412894Y199939D01*
X412905Y199931D01*
X412913Y199920D01*
X413003Y199863D01*
Y198438D01*
X412911Y198380D01*
X412904Y198370D01*
X412894Y198363D01*
X412790Y198207D01*
X412682Y198055D01*
X412680Y198042D01*
X412673Y198032D01*
X412636Y197849D01*
X412595Y197666D01*
X412592Y197505D01*
X412589Y197474D01*
X412551Y197441D01*
X412433Y197363D01*
X412400Y197314D01*
X412356Y197276D01*
X412291Y197150D01*
X412212Y197032D01*
X412200Y196974D01*
X412174Y196922D01*
X412162Y196781D01*
X412134Y196642D01*
X412146Y196584D01*
X412141Y196526D01*
X412184Y196391D01*
X412212Y196251D01*
X412244Y196203D01*
X412262Y196147D01*
X412354Y196039D01*
X412433Y195921D01*
X412481Y195888D01*
X412519Y195844D01*
X412551Y195827D01*
Y192520D01*
X416605D01*
Y190157D01*
X416605Y190157D01*
X416689Y189732D01*
X416930Y189371D01*
X417600Y188702D01*
X417313Y188010D01*
X417189Y187065D01*
X417313Y186119D01*
X417678Y185239D01*
X418258Y184483D01*
X419014Y183902D01*
X419895Y183537D01*
X420840Y183413D01*
X421785Y183537D01*
X422666Y183902D01*
X423422Y184483D01*
X424002Y185239D01*
X424367Y186119D01*
X424492Y187065D01*
X424367Y188010D01*
X424002Y188890D01*
X423422Y189646D01*
X422666Y190227D01*
X421785Y190592D01*
X420840Y190716D01*
X419895Y190592D01*
X419160Y190287D01*
X418828Y190618D01*
Y192520D01*
X422882D01*
Y193075D01*
X422908Y193089D01*
X422943Y193131D01*
X422988Y193161D01*
X423069Y193282D01*
X423132Y193358D01*
X423145Y193359D01*
X423306Y193363D01*
X423487Y193404D01*
X423669Y193440D01*
X423681Y193448D01*
X423694Y193451D01*
X423846Y193558D01*
X424000Y193661D01*
X424008Y193672D01*
X424019Y193680D01*
X424076Y193770D01*
X429861D01*
X429918Y193680D01*
X429929Y193672D01*
X429937Y193661D01*
X430091Y193558D01*
X430243Y193451D01*
X430256Y193448D01*
X430268Y193440D01*
X430450Y193404D01*
X430631Y193363D01*
X430793Y193359D01*
X430805Y193358D01*
X430868Y193282D01*
X430949Y193161D01*
X430994Y193131D01*
X431029Y193089D01*
X431055Y193075D01*
Y192520D01*
X435386D01*
Y197244D01*
X435027D01*
X435013Y197270D01*
X434972Y197305D01*
X434941Y197350D01*
X434820Y197431D01*
X434745Y197494D01*
X434744Y197507D01*
X434739Y197668D01*
X434698Y197849D01*
X434662Y198032D01*
X434655Y198043D01*
X434652Y198056D01*
X434557Y198190D01*
X437007Y200639D01*
X437106Y200788D01*
X441014D01*
Y191405D01*
X438644Y189035D01*
X438635Y189039D01*
X438568Y189034D01*
X438502Y189047D01*
X438371Y189021D01*
X438238Y189013D01*
X438177Y188983D01*
X438111Y188970D01*
X438000Y188895D01*
X437881Y188837D01*
X437867Y188826D01*
X437786Y188793D01*
X437670Y188756D01*
X436150Y188448D01*
X435738Y188387D01*
X435652Y188356D01*
X435343Y188315D01*
X434525Y187976D01*
X433823Y187437D01*
X433284Y186735D01*
X432945Y185917D01*
X432829Y185039D01*
X432945Y184162D01*
X433284Y183344D01*
X433823Y182641D01*
X434525Y182103D01*
X435343Y181764D01*
X436221Y181648D01*
X437098Y181764D01*
X437916Y182103D01*
X438619Y182641D01*
X439157Y183344D01*
X439496Y184162D01*
X439536Y184467D01*
X439567Y184550D01*
X439694Y185370D01*
X439816Y186005D01*
X439931Y186468D01*
X439974Y186605D01*
X440007Y186686D01*
X440018Y186700D01*
X440077Y186819D01*
X440151Y186930D01*
X440164Y186996D01*
X440194Y187057D01*
X440202Y187190D01*
X440228Y187320D01*
X440215Y187387D01*
X440220Y187454D01*
X440216Y187463D01*
X442912Y190159D01*
X442912Y190159D01*
X443153Y190519D01*
X443238Y190945D01*
Y201260D01*
X443738Y201528D01*
X444108Y201280D01*
X444882Y201127D01*
X445656Y201280D01*
X445992Y201505D01*
X446004Y201508D01*
X446038Y201536D01*
X446154Y201613D01*
X446194Y201635D01*
X446220Y201657D01*
X446312Y201719D01*
X446322Y201733D01*
X446340Y201744D01*
X446358Y201752D01*
X446370Y201757D01*
X446377Y201759D01*
X446381Y201760D01*
X446383Y201760D01*
X446428Y201762D01*
X446485Y201776D01*
X446543Y201773D01*
X446676Y201822D01*
X446814Y201856D01*
X446862Y201890D01*
X446916Y201910D01*
X447021Y202007D01*
X447135Y202091D01*
X447166Y202140D01*
X447196Y202169D01*
X448365D01*
X448422Y202079D01*
X448433Y202071D01*
X448441Y202060D01*
X448595Y201956D01*
X448747Y201849D01*
X448760Y201846D01*
X448771Y201839D01*
X448954Y201802D01*
X449135Y201761D01*
X449296Y201757D01*
X449309Y201756D01*
X449372Y201681D01*
X449453Y201560D01*
X449498Y201529D01*
X449533Y201487D01*
X449559Y201474D01*
Y200918D01*
X449911D01*
X449932Y200879D01*
X449973Y200845D01*
X450003Y200800D01*
X450125Y200718D01*
X450201Y200656D01*
X450201Y200653D01*
X450205Y200494D01*
X450246Y200313D01*
X450282Y200131D01*
X450290Y200119D01*
X450293Y200106D01*
X450400Y199954D01*
X450503Y199800D01*
X450515Y199792D01*
X450523Y199781D01*
X450613Y199724D01*
Y198438D01*
X450523Y198381D01*
X450515Y198370D01*
X450503Y198362D01*
X450400Y198208D01*
X450293Y198056D01*
X450290Y198043D01*
X450282Y198032D01*
X450246Y197849D01*
X450205Y197668D01*
X450201Y197507D01*
X450200Y197494D01*
X450125Y197431D01*
X450003Y197350D01*
X449973Y197305D01*
X449931Y197270D01*
X449918Y197244D01*
X449559D01*
Y193141D01*
X449555Y193122D01*
X449559Y193103D01*
Y192520D01*
X449762D01*
X449782Y192481D01*
X449824Y192446D01*
X449854Y192401D01*
X449976Y192320D01*
X450051Y192257D01*
X450051Y192254D01*
X450056Y192095D01*
X450097Y191914D01*
X450133Y191732D01*
X450140Y191721D01*
X450143Y191707D01*
X450251Y191556D01*
X450354Y191401D01*
X450365Y191394D01*
X450373Y191382D01*
X450463Y191326D01*
Y190573D01*
X449788Y190293D01*
X449031Y189713D01*
X448451Y188956D01*
X448086Y188076D01*
X447962Y187131D01*
X448086Y186186D01*
X448451Y185305D01*
X449031Y184549D01*
X449788Y183968D01*
X450668Y183604D01*
X451613Y183479D01*
X452559Y183604D01*
X453439Y183968D01*
X454195Y184549D01*
X454776Y185305D01*
X455140Y186186D01*
X455265Y187131D01*
X455140Y188076D01*
X454776Y188956D01*
X454195Y189713D01*
X453439Y190293D01*
X452687Y190604D01*
Y191326D01*
X452777Y191382D01*
X452784Y191394D01*
X452796Y191401D01*
X452899Y191556D01*
X453006Y191707D01*
X453009Y191721D01*
X453017Y191732D01*
X453053Y191914D01*
X453094Y192095D01*
X453098Y192254D01*
X453099Y192257D01*
X453174Y192320D01*
X453296Y192401D01*
X453326Y192446D01*
X453367Y192481D01*
X453388Y192520D01*
X453890D01*
Y197244D01*
X453531D01*
X453518Y197270D01*
X453476Y197305D01*
X453445Y197350D01*
X453324Y197431D01*
X453249Y197494D01*
X453248Y197507D01*
X453244Y197668D01*
X453203Y197849D01*
X453166Y198032D01*
X453159Y198043D01*
X453156Y198056D01*
X453049Y198208D01*
X452945Y198362D01*
X452934Y198370D01*
X452926Y198381D01*
X452836Y198438D01*
Y199724D01*
X452926Y199781D01*
X452934Y199792D01*
X452945Y199800D01*
X453049Y199954D01*
X453156Y200106D01*
X453159Y200119D01*
X453166Y200131D01*
X453203Y200313D01*
X453562Y200348D01*
X453719Y200329D01*
X453938Y200001D01*
X455907Y198033D01*
X456267Y197792D01*
X456693Y197707D01*
X456693Y197707D01*
X462532D01*
X463546Y196693D01*
X463547Y196656D01*
X463535Y196609D01*
X463556Y196459D01*
X463563Y196308D01*
X463584Y196264D01*
X463590Y196215D01*
X463667Y196085D01*
X463731Y195948D01*
X463733Y195944D01*
X463746Y195909D01*
X464069Y194065D01*
X464119Y193616D01*
X464157Y193497D01*
X464177Y193373D01*
X464217Y193309D01*
X464240Y193237D01*
X464321Y193142D01*
X464342Y193108D01*
X464350Y193064D01*
X464414Y192911D01*
X464467Y192754D01*
X464817Y192147D01*
X464927Y192022D01*
X465028Y191891D01*
X465554Y191429D01*
X465698Y191346D01*
X465836Y191254D01*
X466483Y190986D01*
X466646Y190953D01*
X466807Y190910D01*
X467505Y190864D01*
X467670Y190886D01*
X467836Y190897D01*
X468512Y191078D01*
X468661Y191152D01*
X468815Y191215D01*
X469397Y191604D01*
X469514Y191722D01*
X469639Y191831D01*
X470065Y192387D01*
X470139Y192536D01*
X470222Y192680D01*
X470447Y193343D01*
X470469Y193507D01*
X470501Y193670D01*
Y194335D01*
X470472Y194482D01*
X470457Y194631D01*
X470275Y195233D01*
X470204Y195365D01*
X470147Y195503D01*
X469797Y196026D01*
X469691Y196132D01*
X469596Y196248D01*
X469110Y196647D01*
X469049Y196680D01*
X469023Y196740D01*
X469011Y196815D01*
X468945Y196921D01*
X468895Y197036D01*
X468841Y197089D01*
X468802Y197153D01*
X468700Y197226D01*
X468610Y197313D01*
X468540Y197341D01*
X468479Y197385D01*
X468357Y197414D01*
X468240Y197460D01*
X467790Y197543D01*
X466692Y197777D01*
X466200Y197913D01*
X466048Y197965D01*
X465953Y198005D01*
X465942Y198010D01*
X465922Y198026D01*
X465828Y198072D01*
X465743Y198136D01*
X465651Y198160D01*
X465566Y198202D01*
X465460Y198209D01*
X465358Y198236D01*
X465264Y198222D01*
X465169Y198229D01*
X465158Y198225D01*
X463778Y199605D01*
X463418Y199846D01*
X462992Y199931D01*
X462992Y199931D01*
X457154D01*
X455836Y201248D01*
Y205906D01*
X455836Y205906D01*
X455752Y206331D01*
X455511Y206692D01*
X453240Y208962D01*
X453282Y209477D01*
X453324Y209511D01*
X453445Y209593D01*
X453475Y209638D01*
X453517Y209672D01*
X453537Y209711D01*
X453890D01*
Y214436D01*
X453531D01*
X453518Y214461D01*
X453476Y214496D01*
X453445Y214542D01*
X453324Y214623D01*
X453249Y214686D01*
X453248Y214698D01*
X453244Y214860D01*
X453203Y215041D01*
X453166Y215223D01*
X453159Y215234D01*
X453156Y215248D01*
X453049Y215399D01*
X452945Y215554D01*
X452934Y215561D01*
X452926Y215572D01*
X452836Y215629D01*
Y217704D01*
X452926Y217760D01*
X452934Y217771D01*
X452945Y217779D01*
X453049Y217933D01*
X453156Y218085D01*
X453159Y218098D01*
X453166Y218110D01*
X453203Y218292D01*
X453244Y218473D01*
X453248Y218632D01*
X453248Y218635D01*
X453324Y218698D01*
X453445Y218779D01*
X453476Y218824D01*
X453517Y218858D01*
X453538Y218897D01*
X453890D01*
Y223622D01*
X450432D01*
X450421Y223624D01*
X450282Y223667D01*
X450227Y223662D01*
X450174Y223673D01*
X450031Y223645D01*
X449886Y223632D01*
X449867Y223622D01*
X449559D01*
Y223460D01*
X449533Y223447D01*
X449498Y223405D01*
X449453Y223375D01*
X449372Y223253D01*
X449309Y223178D01*
X449297Y223177D01*
X449135Y223173D01*
X448954Y223132D01*
X448922Y223126D01*
X448893Y223131D01*
X448714Y223173D01*
X448654Y223175D01*
X448629Y223177D01*
X448607Y223181D01*
X448586Y223185D01*
X448565Y223192D01*
X448545Y223199D01*
X448523Y223209D01*
X448500Y223221D01*
X448475Y223237D01*
X448423Y223274D01*
X448327Y223316D01*
X448018Y223523D01*
X447244Y223677D01*
X446470Y223523D01*
X446180Y223329D01*
X445686Y223199D01*
X445460Y223403D01*
X444741Y224122D01*
X444740Y224124D01*
X444708Y224323D01*
X444812Y224758D01*
X444819Y224763D01*
X444820Y224765D01*
X444822Y224766D01*
X444892Y224872D01*
X459776D01*
X463781Y220867D01*
X464141Y220626D01*
X464567Y220542D01*
X464567Y220542D01*
X472174D01*
X472228Y220455D01*
X472241Y220446D01*
X472250Y220433D01*
X472403Y220331D01*
X472552Y220224D01*
X472568Y220220D01*
X472581Y220212D01*
X472761Y220176D01*
X472939Y220134D01*
X472999Y220133D01*
X473024Y220130D01*
X473047Y220127D01*
X473068Y220122D01*
X473088Y220115D01*
X473109Y220108D01*
X473130Y220098D01*
X473153Y220086D01*
X473178Y220070D01*
X473231Y220034D01*
X473326Y219991D01*
X473635Y219784D01*
X474409Y219630D01*
X475184Y219784D01*
X475553Y220031D01*
X476053Y219764D01*
Y206217D01*
X475989Y206121D01*
X475882Y205971D01*
X475879Y205956D01*
X475870Y205942D01*
X475834Y205762D01*
X475793Y205584D01*
X475795Y205568D01*
X475792Y205552D01*
X475828Y205372D01*
X475858Y205191D01*
X475867Y205177D01*
X475870Y205162D01*
X475951Y205040D01*
X475858Y204815D01*
X475743Y203937D01*
X475858Y203059D01*
X476197Y202241D01*
X476736Y201539D01*
X477438Y201000D01*
X478256Y200661D01*
X479134Y200546D01*
X480012Y200661D01*
X480829Y201000D01*
X481532Y201539D01*
X482071Y202241D01*
X482409Y203059D01*
X482525Y203937D01*
X482409Y204815D01*
X482071Y205633D01*
X481532Y206335D01*
X480829Y206874D01*
X480012Y207213D01*
X479134Y207328D01*
X478653Y207265D01*
X478277Y207595D01*
Y221805D01*
X478337Y221859D01*
X478745Y222045D01*
X483938Y216852D01*
X483939Y216829D01*
X483930Y216798D01*
X483948Y216631D01*
X483956Y216463D01*
X483970Y216434D01*
X483973Y216403D01*
X484054Y216255D01*
X484126Y216103D01*
X484150Y216082D01*
X484165Y216054D01*
X484200Y216011D01*
X484225Y215974D01*
X484257Y215915D01*
X484839Y214353D01*
X484907Y214128D01*
X484913Y214083D01*
X484943Y214011D01*
X484950Y213988D01*
X484961Y213967D01*
X485252Y213265D01*
X485791Y212563D01*
X486493Y212024D01*
X487311Y211685D01*
X488189Y211569D01*
X489067Y211685D01*
X489885Y212024D01*
X490587Y212563D01*
X491126Y213265D01*
X491465Y214083D01*
X491580Y214961D01*
X491465Y215838D01*
X491126Y216656D01*
X490587Y217359D01*
X489885Y217898D01*
X489067Y218236D01*
X488189Y218352D01*
X488122Y218343D01*
X486959Y218358D01*
X486390Y218396D01*
X486196Y218420D01*
X486057Y218444D01*
X486014Y218455D01*
X486002Y218466D01*
X485846Y218523D01*
X485693Y218589D01*
X485659Y218590D01*
X485628Y218601D01*
X485461Y218593D01*
X485340Y218595D01*
X478216Y225719D01*
X478407Y226181D01*
X481215D01*
X481225Y226179D01*
X481364Y226136D01*
X481419Y226141D01*
X481472Y226130D01*
X481615Y226158D01*
X481760Y226172D01*
X481778Y226181D01*
X482087D01*
Y226343D01*
X482113Y226356D01*
X482148Y226398D01*
X482193Y226429D01*
X482274Y226550D01*
X482337Y226625D01*
X482349Y226626D01*
X482511Y226630D01*
X482692Y226671D01*
X482874Y226708D01*
X482886Y226715D01*
X482899Y226718D01*
X483050Y226825D01*
X483205Y226929D01*
X483213Y226940D01*
X483223Y226948D01*
X483282Y227041D01*
X483693Y227122D01*
X484054Y227363D01*
X485038Y228348D01*
X485038Y228348D01*
X485279Y228708D01*
X485364Y229134D01*
Y229588D01*
X485370Y229594D01*
X485434Y229632D01*
X485510Y229733D01*
X485599Y229822D01*
X485628Y229891D01*
X485672Y229951D01*
X485703Y230073D01*
X485752Y230190D01*
X485752Y230264D01*
X485770Y230336D01*
X485772Y230370D01*
X485806Y230372D01*
X485973Y230414D01*
X486142Y230448D01*
X486165Y230463D01*
X486191Y230470D01*
X486329Y230573D01*
X486473Y230669D01*
X486488Y230691D01*
X486510Y230708D01*
X486552Y230778D01*
X487335D01*
X487470Y230642D01*
Y230131D01*
X487380Y230074D01*
X487373Y230063D01*
X487361Y230056D01*
X487258Y229901D01*
X487151Y229749D01*
X487148Y229736D01*
X487140Y229725D01*
X487104Y229543D01*
X487063Y229361D01*
X487059Y229200D01*
X487058Y229187D01*
X486983Y229125D01*
X486861Y229044D01*
X486831Y228998D01*
X486789Y228963D01*
X486775Y228937D01*
X486358D01*
Y225276D01*
X490807D01*
Y228937D01*
X490389D01*
X490376Y228963D01*
X490334Y228998D01*
X490303Y229044D01*
X490182Y229125D01*
X490107Y229187D01*
X490106Y229200D01*
X490102Y229361D01*
X490061Y229543D01*
X490024Y229725D01*
X490017Y229736D01*
X490014Y229749D01*
X489907Y229901D01*
X489803Y230056D01*
X489792Y230063D01*
X489784Y230074D01*
X489694Y230131D01*
Y231103D01*
X489610Y231528D01*
X489369Y231889D01*
X489369Y231889D01*
X488582Y232676D01*
X488221Y232917D01*
X487795Y233002D01*
X487795Y233002D01*
X486552D01*
X486510Y233072D01*
X486488Y233088D01*
X486473Y233111D01*
X486329Y233207D01*
X486191Y233310D01*
X486165Y233317D01*
X486142Y233332D01*
X485973Y233365D01*
X485806Y233408D01*
X485772Y233410D01*
X485770Y233443D01*
X485752Y233515D01*
X485752Y233590D01*
X485703Y233706D01*
X485672Y233829D01*
X485628Y233889D01*
X485599Y233957D01*
X485510Y234046D01*
X485434Y234148D01*
X485370Y234186D01*
X485364Y234192D01*
Y234646D01*
X485364Y234646D01*
X485279Y235071D01*
X485038Y235432D01*
X484054Y236416D01*
X483693Y236657D01*
X483282Y236739D01*
X483223Y236832D01*
X483213Y236840D01*
X483205Y236851D01*
X483050Y236954D01*
X482899Y237061D01*
X482886Y237064D01*
X482874Y237072D01*
X482692Y237108D01*
X482511Y237149D01*
X482349Y237153D01*
X482337Y237155D01*
X482274Y237230D01*
X482193Y237351D01*
X482148Y237381D01*
X482113Y237423D01*
X482087Y237437D01*
Y237598D01*
X481778D01*
X481760Y237608D01*
X481615Y237621D01*
X481472Y237649D01*
X481419Y237639D01*
X481364Y237644D01*
X481225Y237600D01*
X481215Y237598D01*
X476968D01*
Y233661D01*
X481215D01*
X481225Y233660D01*
X481364Y233616D01*
X481419Y233621D01*
X481472Y233610D01*
X481615Y233639D01*
X481760Y233652D01*
X481778Y233661D01*
X482087D01*
Y233823D01*
X482113Y233837D01*
X482148Y233879D01*
X482193Y233909D01*
X482262Y234012D01*
X482759Y234101D01*
X483090Y233848D01*
X483140Y233770D01*
Y232810D01*
X482905Y232457D01*
X482905Y232457D01*
X482905Y232457D01*
X482904Y232455D01*
X482828Y232273D01*
X482752Y232090D01*
Y232089D01*
X482752Y232088D01*
X482752Y231890D01*
X482752Y231692D01*
X482752Y231691D01*
Y231690D01*
X482829Y231506D01*
X482904Y231324D01*
X482905Y231323D01*
X482905Y231322D01*
X482905Y231322D01*
X483140Y230970D01*
Y230010D01*
X483090Y229932D01*
X482759Y229679D01*
X482262Y229767D01*
X482193Y229871D01*
X482148Y229901D01*
X482113Y229943D01*
X482087Y229957D01*
Y230118D01*
X481778D01*
X481760Y230128D01*
X481615Y230141D01*
X481472Y230169D01*
X481419Y230158D01*
X481364Y230164D01*
X481225Y230120D01*
X481215Y230118D01*
X476968D01*
Y227620D01*
X476507Y227428D01*
X474999Y228936D01*
X474638Y229177D01*
X474213Y229261D01*
X474213Y229261D01*
X473832D01*
X473775Y229352D01*
X473764Y229359D01*
X473756Y229371D01*
X473602Y229474D01*
X473450Y229581D01*
X473437Y229584D01*
X473425Y229592D01*
X473243Y229628D01*
X473062Y229669D01*
X472900Y229673D01*
X472888Y229674D01*
X472825Y229749D01*
X472744Y229871D01*
X472699Y229901D01*
X472664Y229943D01*
X472638Y229957D01*
Y230118D01*
X472330D01*
X472311Y230128D01*
X472166Y230141D01*
X472023Y230169D01*
X471970Y230158D01*
X471915Y230164D01*
X471776Y230120D01*
X471766Y230118D01*
X467520D01*
Y226181D01*
X469159D01*
X469305Y226084D01*
X470079Y225930D01*
X470853Y226084D01*
X470999Y226181D01*
X471766D01*
X471776Y226179D01*
X471915Y226136D01*
X471970Y226141D01*
X472023Y226130D01*
X472166Y226158D01*
X472311Y226172D01*
X472330Y226181D01*
X472638D01*
Y226343D01*
X472664Y226356D01*
X472699Y226398D01*
X472744Y226429D01*
X472825Y226550D01*
X472888Y226625D01*
X472900Y226626D01*
X473062Y226630D01*
X473243Y226671D01*
X473425Y226708D01*
X473437Y226715D01*
X473450Y226718D01*
X473602Y226825D01*
X473756Y226929D01*
X474152Y226638D01*
X475195Y225595D01*
X475009Y225187D01*
X474955Y225128D01*
X466752D01*
X464487Y227393D01*
X464510Y227488D01*
X464497Y227567D01*
X464503Y227647D01*
X464465Y227762D01*
X464446Y227881D01*
X464404Y227949D01*
X464379Y228025D01*
X464300Y228116D01*
X464236Y228219D01*
X463875Y228607D01*
X463771Y228735D01*
X463764Y228746D01*
X463781Y228796D01*
X463776Y228882D01*
X463791Y228967D01*
X463765Y229079D01*
X463759Y229193D01*
X463721Y229271D01*
X463702Y229355D01*
X463636Y229448D01*
X463586Y229552D01*
X463522Y229609D01*
X463472Y229679D01*
X463386Y229733D01*
Y231449D01*
X460081D01*
X460069Y231473D01*
X460018Y231517D01*
X459981Y231572D01*
X459869Y231645D01*
X459767Y231733D01*
X459704Y231754D01*
X459649Y231791D01*
X459517Y231816D01*
X459390Y231858D01*
X459323Y231853D01*
X459258Y231866D01*
X459127Y231839D01*
X458993Y231829D01*
X458933Y231799D01*
X458868Y231786D01*
X458757Y231711D01*
X458638Y231650D01*
X458594Y231600D01*
X458539Y231563D01*
X458465Y231451D01*
X458463Y231449D01*
X458405Y231444D01*
X458242Y231441D01*
X458058Y231400D01*
X457874Y231363D01*
X457865Y231357D01*
X457853Y231354D01*
X457699Y231246D01*
X457543Y231142D01*
X457537Y231133D01*
X457527Y231126D01*
X457469Y231033D01*
X454343D01*
X454284Y231126D01*
X454275Y231133D01*
X454268Y231142D01*
X454112Y231246D01*
X453959Y231354D01*
X453947Y231357D01*
X453937Y231363D01*
X453753Y231400D01*
X453570Y231441D01*
X453407Y231444D01*
X453348Y231449D01*
X453345Y231453D01*
X453268Y231567D01*
X453216Y231602D01*
X453174Y231650D01*
X453052Y231712D01*
X452938Y231788D01*
X452875Y231801D01*
X452819Y231829D01*
X452682Y231839D01*
X452547Y231866D01*
X452485Y231854D01*
X452422Y231858D01*
X452292Y231815D01*
X452157Y231788D01*
X452105Y231753D01*
X452044Y231733D01*
X451940Y231643D01*
X451826Y231567D01*
X451791Y231515D01*
X451743Y231473D01*
X451731Y231449D01*
X449844D01*
X449832Y231473D01*
X449782Y231517D01*
X449745Y231572D01*
X449633Y231645D01*
X449531Y231733D01*
X449468Y231754D01*
X449412Y231791D01*
X449281Y231816D01*
X449153Y231858D01*
X449087Y231853D01*
X449022Y231866D01*
X448890Y231839D01*
X448757Y231829D01*
X448689Y231836D01*
X448567Y232133D01*
X448625Y232394D01*
X448675Y232428D01*
X449113Y233084D01*
X449267Y233858D01*
X449113Y234632D01*
X448675Y235289D01*
X448018Y235727D01*
X447244Y235881D01*
X446470Y235727D01*
X446423Y235696D01*
X445998Y236014D01*
X446118Y236614D01*
X445964Y237388D01*
X445716Y237758D01*
X445984Y238258D01*
X467559D01*
X467731Y238098D01*
X467584Y237671D01*
X467520Y237598D01*
X467520D01*
Y233661D01*
X472638D01*
Y237598D01*
X471830D01*
X471616Y238098D01*
X471948Y238596D01*
X472102Y239370D01*
X471948Y240144D01*
X471701Y240514D01*
X471968Y241014D01*
X484579D01*
X487132Y238461D01*
X487104Y238322D01*
X487063Y238141D01*
X487059Y237980D01*
X487058Y237967D01*
X486983Y237904D01*
X486861Y237823D01*
X486831Y237778D01*
X486789Y237743D01*
X486775Y237717D01*
X486358D01*
Y234055D01*
X490807D01*
Y237717D01*
X490389D01*
X490376Y237743D01*
X490334Y237778D01*
X490303Y237823D01*
X490182Y237904D01*
X490107Y237967D01*
X490106Y237980D01*
X490102Y238141D01*
X490061Y238322D01*
X490024Y238505D01*
X490017Y238516D01*
X490014Y238529D01*
X489907Y238681D01*
X489803Y238835D01*
X489792Y238843D01*
X489784Y238854D01*
X489627Y238953D01*
X489620Y238958D01*
X489610Y239008D01*
X489369Y239369D01*
X489369Y239369D01*
X485826Y242912D01*
X485465Y243153D01*
X485362Y243684D01*
X485518Y243788D01*
X487007Y245277D01*
X487248Y245637D01*
X487332Y246063D01*
Y251181D01*
X487332Y251181D01*
X487248Y251607D01*
X487007Y251967D01*
X487007Y251967D01*
X483463Y255511D01*
X483103Y255752D01*
X482677Y255836D01*
X482322Y256119D01*
X482346Y256605D01*
X482417Y256653D01*
X482420Y256657D01*
X482424Y256660D01*
X482491Y256762D01*
X489697D01*
X491768Y254691D01*
X491798Y254338D01*
X491791Y254170D01*
X491688Y254015D01*
X491581Y253863D01*
X491578Y253850D01*
X491570Y253839D01*
X491534Y253657D01*
X491493Y253475D01*
X491489Y253314D01*
X491488Y253301D01*
X491412Y253239D01*
X491291Y253158D01*
X491261Y253112D01*
X491219Y253077D01*
X491205Y253051D01*
X488878D01*
Y248327D01*
X491812D01*
X492037Y248167D01*
X492256Y247827D01*
X492250Y247773D01*
X492202Y247540D01*
X492134Y247299D01*
X492044Y247048D01*
X491931Y246787D01*
X491800Y246529D01*
X491438Y245939D01*
X491220Y245635D01*
X491186Y245560D01*
X490913Y245205D01*
X490455Y244099D01*
X490299Y242913D01*
X490455Y241727D01*
X490913Y240622D01*
X491642Y239673D01*
X492591Y238945D01*
X493696Y238487D01*
X494882Y238331D01*
X496068Y238487D01*
X497173Y238945D01*
X498122Y239673D01*
X498850Y240622D01*
X499308Y241727D01*
X499464Y242913D01*
X499308Y244099D01*
X498850Y245205D01*
X498585Y245550D01*
X498557Y245616D01*
X498126Y246248D01*
X497970Y246517D01*
X497833Y246787D01*
X497720Y247048D01*
X497630Y247299D01*
X497561Y247540D01*
X497514Y247773D01*
X497486Y247996D01*
X497475Y248256D01*
X497433Y248429D01*
X497399Y248604D01*
X497387Y248622D01*
X497382Y248643D01*
X497277Y248786D01*
X497178Y248935D01*
X497160Y248946D01*
X497147Y248964D01*
X497146Y248965D01*
Y253051D01*
X494819D01*
X494805Y253077D01*
X494764Y253112D01*
X494733Y253158D01*
X494612Y253239D01*
X494537Y253301D01*
X494536Y253314D01*
X494531Y253475D01*
X494490Y253657D01*
X494454Y253839D01*
X494447Y253850D01*
X494444Y253863D01*
X494336Y254015D01*
X494233Y254170D01*
X494222Y254177D01*
X494214Y254188D01*
X494124Y254245D01*
Y255019D01*
X494124Y255019D01*
X494039Y255445D01*
X493798Y255806D01*
X490944Y258660D01*
X490583Y258901D01*
X490158Y258986D01*
X490157Y258986D01*
X482492D01*
X482432Y259081D01*
X482423Y259086D01*
X482417Y259095D01*
X482260Y259200D01*
X482105Y259308D01*
X482095Y259310D01*
X482087Y259316D01*
X481901Y259353D01*
X481717Y259393D01*
X481385Y259400D01*
X481225Y259412D01*
X481182Y259448D01*
X481131Y259463D01*
X481087Y259493D01*
X480942Y259522D01*
X480802Y259565D01*
X480749Y259560D01*
X480697Y259571D01*
X480552Y259542D01*
X480406Y259528D01*
X480359Y259503D01*
X480306Y259493D01*
X480184Y259411D01*
X480054Y259343D01*
X480020Y259302D01*
X479976Y259272D01*
X479896Y259154D01*
X477362D01*
Y256594D01*
X479445D01*
X479621Y256299D01*
X479445Y256004D01*
X477362D01*
Y253445D01*
X479445D01*
X479621Y253150D01*
X479445Y252854D01*
X477362D01*
Y250295D01*
X479896D01*
X479976Y250177D01*
X480020Y250147D01*
X480054Y250106D01*
X480184Y250038D01*
X480306Y249956D01*
X480359Y249945D01*
X480406Y249921D01*
X480552Y249907D01*
X480697Y249878D01*
X480749Y249889D01*
X480802Y249884D01*
X480943Y249927D01*
X481087Y249956D01*
X481131Y249986D01*
X481182Y250001D01*
X481215Y250028D01*
X481550Y250054D01*
X481706Y250055D01*
X481745Y250063D01*
X482008Y249893D01*
X482150Y249636D01*
X482144Y249613D01*
X482141Y249569D01*
X482140Y249564D01*
X482133Y249537D01*
X482116Y249488D01*
X482087Y249422D01*
X482055Y249359D01*
X481828Y248997D01*
X481735Y248868D01*
X481690Y248771D01*
X481422Y248369D01*
X481237Y247441D01*
X481422Y246513D01*
X481640Y246186D01*
X481373Y245686D01*
X476645D01*
X476591Y245773D01*
X476578Y245782D01*
X476569Y245795D01*
X476416Y245897D01*
X476267Y246004D01*
X476251Y246007D01*
X476238Y246016D01*
X476058Y246052D01*
X475879Y246093D01*
X475820Y246095D01*
X475795Y246098D01*
X475772Y246101D01*
X475751Y246106D01*
X475731Y246112D01*
X475710Y246120D01*
X475689Y246130D01*
X475665Y246142D01*
X475640Y246158D01*
X475589Y246194D01*
X475493Y246237D01*
X475184Y246443D01*
X474409Y246597D01*
X473635Y246443D01*
X472979Y246005D01*
X472540Y245349D01*
X472386Y244574D01*
X472540Y243800D01*
X472621Y243679D01*
X472386Y243238D01*
X457547D01*
X453542Y247243D01*
X453181Y247484D01*
X452756Y247569D01*
X452756Y247569D01*
X446467D01*
X446437Y247621D01*
X446432Y247625D01*
X446428Y247631D01*
X446276Y247747D01*
X446124Y247866D01*
X446118Y247868D01*
X446112Y247872D01*
X445927Y247921D01*
X445792Y247959D01*
X445781Y247968D01*
X445751Y247996D01*
X445713Y248038D01*
X445651Y248112D01*
X445623Y248135D01*
X445525Y248281D01*
X444869Y248720D01*
X444095Y248873D01*
X443320Y248720D01*
X442664Y248281D01*
X442313Y247755D01*
X441813Y247907D01*
Y249832D01*
X441922Y249905D01*
X441931Y249919D01*
X441945Y249929D01*
X442041Y250084D01*
X442143Y250236D01*
X442146Y250252D01*
X442155Y250266D01*
X442185Y250447D01*
X442220Y250626D01*
X442217Y250642D01*
X442220Y250659D01*
X442208Y251019D01*
X442201Y251051D01*
X442204Y251083D01*
X442190Y251234D01*
X442181Y251262D01*
X442182Y251292D01*
X442162Y251422D01*
X442149Y251460D01*
X442147Y251500D01*
X442121Y251610D01*
X442099Y251660D01*
X442091Y251714D01*
X442059Y251804D01*
X442019Y251872D01*
X441997Y251947D01*
X441959Y252017D01*
X441888Y252104D01*
X441844Y252182D01*
X441842Y252185D01*
X441841Y252186D01*
X441832Y252202D01*
X441810Y252228D01*
X441728Y252638D01*
X441615Y252807D01*
X441822Y253307D01*
X442224D01*
Y256854D01*
X454495D01*
X454739Y256354D01*
X454430Y255892D01*
X454276Y255118D01*
X454430Y254344D01*
X454869Y253688D01*
X455525Y253249D01*
X455965Y253161D01*
X456303Y252656D01*
X456245Y252362D01*
X456399Y251588D01*
X456837Y250932D01*
X457493Y250493D01*
X458268Y250339D01*
X459042Y250493D01*
X459698Y250932D01*
X460137Y251588D01*
X460291Y252362D01*
X460274Y252448D01*
X460303Y252604D01*
X460665Y252994D01*
X460693Y253000D01*
X460719Y253017D01*
X460749Y253025D01*
X460775Y253044D01*
X461360Y252938D01*
X461524Y252941D01*
X461688Y252933D01*
X461722Y252944D01*
X461758Y252945D01*
X461798Y252963D01*
X461818Y252959D01*
X462004Y252922D01*
X462014Y252924D01*
X462023Y252922D01*
X462533Y252932D01*
X462559Y252937D01*
X462586Y252934D01*
X462826Y252951D01*
X462855Y252959D01*
X462885Y252957D01*
X462975Y252969D01*
X463007Y252979D01*
X463041Y252979D01*
X463111Y252993D01*
X463165Y253015D01*
X463223Y253022D01*
X463273Y253038D01*
X463314Y253060D01*
X463319Y253061D01*
X463381Y253096D01*
X463489Y253135D01*
X463519Y253153D01*
X463575Y253204D01*
X463621Y253230D01*
X463628Y253238D01*
X463664Y253259D01*
X463707Y253314D01*
X463725Y253327D01*
X463727Y253330D01*
X464087D01*
X464087Y253330D01*
X464513Y253414D01*
X464559Y253445D01*
X466338D01*
Y256004D01*
X464210D01*
X464133Y256135D01*
X464389Y256594D01*
X466338D01*
Y259154D01*
X464236D01*
X464152Y259244D01*
X464370Y259744D01*
X466338D01*
Y262168D01*
X466338Y262303D01*
X466666Y262668D01*
X474165D01*
X474165Y262668D01*
X474591Y262752D01*
X474951Y262993D01*
X481363Y269405D01*
X481417Y269400D01*
X481453Y269404D01*
X481488Y269396D01*
X481649Y269425D01*
X481812Y269442D01*
X481844Y269459D01*
X481879Y269466D01*
X482018Y269554D01*
X482161Y269633D01*
X482184Y269661D01*
X482214Y269680D01*
X482378Y269837D01*
X482511Y269954D01*
X482625Y270044D01*
X482717Y270107D01*
X482779Y270142D01*
X482788Y270142D01*
X482928Y270115D01*
X482985Y270126D01*
X483042Y270122D01*
X483178Y270166D01*
X483318Y270195D01*
X483366Y270227D01*
X483421Y270245D01*
X483529Y270338D01*
X483559Y270358D01*
X483998Y270445D01*
X484110Y270520D01*
X485039D01*
Y271351D01*
X485311Y271757D01*
X485495Y272685D01*
X485311Y273613D01*
X485039Y274019D01*
Y274851D01*
X484110D01*
X483998Y274925D01*
X483071Y275110D01*
X482143Y274925D01*
X482031Y274851D01*
X480315D01*
Y272754D01*
X480274Y272710D01*
X480204Y272663D01*
X480140Y272566D01*
X480061Y272481D01*
X480032Y272401D01*
X479985Y272331D01*
X479963Y272217D01*
X479923Y272108D01*
X479926Y272023D01*
X479910Y271940D01*
X479933Y271826D01*
X479936Y271746D01*
X479683Y271453D01*
X479478Y271242D01*
X479399Y271119D01*
X479307Y271005D01*
X479292Y270953D01*
X479262Y270908D01*
X479236Y270763D01*
X479195Y270623D01*
X479200Y270569D01*
X479191Y270516D01*
X479215Y270402D01*
X473704Y264891D01*
X457687D01*
X457615Y265001D01*
X457599Y265011D01*
X457589Y265025D01*
X457435Y265121D01*
X457284Y265222D01*
X457266Y265225D01*
X457250Y265235D01*
X457071Y265264D01*
X456893Y265299D01*
X456876Y265296D01*
X456858Y265299D01*
X456498Y265286D01*
X456463Y265278D01*
X456427Y265281D01*
X456277Y265265D01*
X456246Y265255D01*
X456213Y265256D01*
X456083Y265234D01*
X456042Y265219D01*
X455999Y265216D01*
X455889Y265188D01*
X455835Y265162D01*
X455777Y265152D01*
X455687Y265117D01*
X455625Y265078D01*
X455620Y265077D01*
X455608Y265070D01*
X455538Y265046D01*
X455468Y265005D01*
X455381Y264928D01*
X455324Y264891D01*
X448819D01*
X448393Y264807D01*
X448033Y264566D01*
X447792Y264205D01*
X447707Y263779D01*
X447792Y263354D01*
X448033Y262993D01*
X448117Y262937D01*
X448000Y262437D01*
X440551D01*
X440161Y262359D01*
X439930Y262205D01*
X430413D01*
Y255744D01*
X427096D01*
Y264173D01*
X427011Y264599D01*
X426993Y264626D01*
X427000Y264641D01*
X427324Y265031D01*
X427543Y264987D01*
X427641Y264950D01*
X427704Y264939D01*
X427732Y264932D01*
X427757Y264925D01*
X427779Y264916D01*
X427800Y264907D01*
X427818Y264897D01*
X427837Y264886D01*
X427855Y264873D01*
X427875Y264856D01*
X427918Y264815D01*
X428074Y264718D01*
X428226Y264616D01*
X428242Y264613D01*
X428256Y264605D01*
X428437Y264575D01*
X428616Y264539D01*
X428632Y264542D01*
X428648Y264539D01*
X428747Y264562D01*
X428840Y264470D01*
X429201Y264229D01*
X429626Y264144D01*
X429626Y264144D01*
X429928D01*
X429985Y264054D01*
X429996Y264046D01*
X430004Y264035D01*
X430158Y263932D01*
X430310Y263824D01*
X430323Y263821D01*
X430334Y263814D01*
X430517Y263778D01*
X430698Y263737D01*
X430859Y263733D01*
X430872Y263731D01*
X430935Y263656D01*
X431016Y263535D01*
X431061Y263505D01*
X431096Y263463D01*
X431225Y263395D01*
X431346Y263314D01*
X431400Y263303D01*
X431448Y263278D01*
X431594Y263265D01*
X431737Y263236D01*
X431790Y263247D01*
X431845Y263242D01*
X431984Y263285D01*
X432127Y263314D01*
X432172Y263344D01*
X432224Y263361D01*
X432336Y263454D01*
X432441Y263524D01*
X433483D01*
X433531Y263452D01*
X433862Y263231D01*
X434252Y263154D01*
X443701Y263154D01*
X444091Y263231D01*
X444422Y263452D01*
X444643Y263783D01*
X444720Y264173D01*
X444720Y265818D01*
X444869Y265847D01*
X445525Y266286D01*
X445964Y266942D01*
X446118Y267717D01*
X445964Y268491D01*
X445525Y269147D01*
X444869Y269586D01*
X444720Y269615D01*
Y269685D01*
X444720Y269685D01*
Y276378D01*
X444643Y276768D01*
X444422Y277099D01*
X444091Y277320D01*
X443701Y277397D01*
D02*
G37*
G36*
X476772Y280906D02*
X453150D01*
Y273031D01*
X476772D01*
Y280906D01*
D02*
G37*
%LPD*%
G36*
X395592Y282803D02*
X395321Y282525D01*
X394664Y281768D01*
X394498Y281542D01*
X394357Y281328D01*
X394244Y281128D01*
X394156Y280940D01*
X394094Y280765D01*
X394059Y280604D01*
X390052Y284610D01*
X390214Y284646D01*
X390389Y284707D01*
X390576Y284795D01*
X390777Y284909D01*
X390990Y285049D01*
X391217Y285215D01*
X391708Y285627D01*
X392252Y286143D01*
X395592Y282803D01*
D02*
G37*
G36*
X415098Y301783D02*
X414868Y301761D01*
X414615Y301694D01*
X414339Y301583D01*
X414041Y301427D01*
X413720Y301227D01*
X413377Y300982D01*
X412621Y300358D01*
X412210Y299979D01*
X411776Y299556D01*
X411517Y299866D01*
X411519Y299580D01*
X411604Y298493D01*
X411643Y298318D01*
X411689Y298182D01*
X411742Y298085D01*
X411803Y298027D01*
X411870Y298008D01*
X408012D01*
X408079Y298027D01*
X408140Y298085D01*
X408193Y298182D01*
X408239Y298318D01*
X408278Y298493D01*
X408310Y298706D01*
X408352Y299250D01*
X408366Y299949D01*
X411447D01*
X409746Y301980D01*
X410169Y302414D01*
X411171Y303581D01*
X411416Y303924D01*
X411616Y304245D01*
X411772Y304544D01*
X411884Y304819D01*
X411950Y305072D01*
X411973Y305303D01*
X415098Y301783D01*
D02*
G37*
G36*
X407481Y291363D02*
X407061Y291576D01*
X406587Y291667D01*
X406057Y291636D01*
X405471Y291484D01*
X404831Y291209D01*
X404135Y290813D01*
X403384Y290295D01*
X402578Y289655D01*
X401716Y288894D01*
X400800Y288010D01*
X396278Y290170D01*
X397267Y291193D01*
X398810Y293002D01*
X399364Y293788D01*
X399772Y294496D01*
X400034Y295125D01*
X400151Y295674D01*
X400123Y296145D01*
X399950Y296538D01*
X399630Y296851D01*
X407481Y291363D01*
D02*
G37*
G36*
X482830Y285872D02*
X483586Y285215D01*
X483813Y285049D01*
X484026Y284909D01*
X484227Y284795D01*
X484414Y284707D01*
X484589Y284646D01*
X484751Y284610D01*
X480744Y280604D01*
X480709Y280765D01*
X480647Y280940D01*
X480560Y281128D01*
X480446Y281328D01*
X480305Y281542D01*
X480139Y281768D01*
X479727Y282260D01*
X479211Y282803D01*
X482551Y286143D01*
X482830Y285872D01*
D02*
G37*
G36*
X460884Y305073D02*
X460951Y304820D01*
X461062Y304544D01*
X461218Y304246D01*
X461419Y303925D01*
X461664Y303582D01*
X462287Y302826D01*
X462666Y302415D01*
X463089Y301981D01*
X461059Y299557D01*
X460625Y299980D01*
X459458Y300982D01*
X459115Y301227D01*
X458794Y301428D01*
X458495Y301584D01*
X458220Y301695D01*
X457967Y301762D01*
X457736Y301784D01*
X460862Y305303D01*
X460884Y305073D01*
D02*
G37*
G36*
X475794Y295598D02*
X475586Y295240D01*
X475533Y294793D01*
X475635Y294258D01*
X475893Y293634D01*
X476306Y292922D01*
X476874Y292121D01*
X477597Y291231D01*
X479510Y289185D01*
X474004Y288010D01*
X473131Y288849D01*
X471522Y290192D01*
X470786Y290695D01*
X470095Y291087D01*
X469450Y291366D01*
X468850Y291533D01*
X468295Y291588D01*
X467786Y291531D01*
X467322Y291363D01*
X468947Y292191D01*
X465070Y292224D01*
Y295374D01*
X469886Y295471D01*
Y292670D01*
X476157Y295867D01*
X475794Y295598D01*
D02*
G37*
G36*
X430130Y227374D02*
X430120Y227389D01*
X430090Y227402D01*
X430040Y227414D01*
X429970Y227425D01*
X429770Y227440D01*
X429130Y227453D01*
Y228453D01*
X429320Y228453D01*
X430090Y228503D01*
X430120Y228516D01*
X430130Y228531D01*
Y227374D01*
D02*
G37*
G36*
X481482Y229055D02*
X481512Y228970D01*
X481563Y228895D01*
X481634Y228830D01*
X481725Y228775D01*
X481836Y228730D01*
X481968Y228695D01*
X482120Y228670D01*
X482292Y228655D01*
X482484Y228650D01*
Y227650D01*
X482292Y227645D01*
X482120Y227630D01*
X481968Y227605D01*
X481836Y227570D01*
X481725Y227525D01*
X481634Y227470D01*
X481563Y227405D01*
X481512Y227330D01*
X481482Y227245D01*
X481472Y227150D01*
Y229150D01*
X481482Y229055D01*
D02*
G37*
G36*
X470624Y228778D02*
X470687Y228751D01*
X470755Y228727D01*
X470827Y228707D01*
X470904Y228689D01*
X471074Y228664D01*
X471166Y228656D01*
X471364Y228650D01*
X471606Y227650D01*
X471521Y227646D01*
X471436Y227634D01*
X471351Y227613D01*
X471267Y227585D01*
X471182Y227549D01*
X471098Y227504D01*
X471014Y227452D01*
X470931Y227392D01*
X470847Y227323D01*
X470764Y227246D01*
X470566Y228808D01*
X470624Y228778D01*
D02*
G37*
G36*
X449040Y228921D02*
X449029Y229016D01*
X448999Y229101D01*
X448948Y229176D01*
X448877Y229241D01*
X448785Y229296D01*
X448674Y229341D01*
X448543Y229376D01*
X448391Y229401D01*
X448220Y229416D01*
X448028Y229421D01*
Y230421D01*
X448218Y230426D01*
X448388Y230438D01*
X448538Y230459D01*
X448668Y230489D01*
X448778Y230527D01*
X448868Y230574D01*
X448938Y230629D01*
X448988Y230693D01*
X449018Y230766D01*
X449028Y230846D01*
X449040Y228921D01*
D02*
G37*
G36*
X452557Y230766D02*
X452587Y230693D01*
X452637Y230629D01*
X452707Y230574D01*
X452797Y230527D01*
X452907Y230489D01*
X453037Y230459D01*
X453187Y230438D01*
X453357Y230426D01*
X453547Y230421D01*
Y229421D01*
X453357Y229416D01*
X453187Y229401D01*
X453037Y229376D01*
X452907Y229341D01*
X452797Y229296D01*
X452707Y229241D01*
X452637Y229176D01*
X452587Y229101D01*
X452557Y229016D01*
X452547Y228921D01*
Y230846D01*
X452557Y230766D01*
D02*
G37*
G36*
X489087Y229142D02*
X489102Y228971D01*
X489127Y228819D01*
X489162Y228687D01*
X489207Y228576D01*
X489262Y228485D01*
X489327Y228414D01*
X489402Y228363D01*
X489487Y228333D01*
X489582Y228323D01*
X487582D01*
X487677Y228333D01*
X487762Y228363D01*
X487837Y228414D01*
X487902Y228485D01*
X487957Y228576D01*
X488002Y228687D01*
X488037Y228819D01*
X488062Y228971D01*
X488077Y229142D01*
X488082Y229335D01*
X489082D01*
X489087Y229142D01*
D02*
G37*
G36*
X440366Y227374D02*
X440356Y227389D01*
X440326Y227402D01*
X440276Y227414D01*
X440206Y227425D01*
X440006Y227440D01*
X439366Y227453D01*
Y228453D01*
X439556Y228453D01*
X440326Y228503D01*
X440356Y228516D01*
X440366Y228531D01*
Y227374D01*
D02*
G37*
G36*
X399941Y229058D02*
X399935Y229030D01*
X399929Y228985D01*
X399919Y228838D01*
X399909Y228150D01*
X398909D01*
X398870Y229067D01*
X399949D01*
X399941Y229058D01*
D02*
G37*
G36*
X473818Y220866D02*
X473741Y220921D01*
X473662Y220970D01*
X473582Y221013D01*
X473499Y221050D01*
X473416Y221082D01*
X473330Y221108D01*
X473243Y221128D01*
X473154Y221142D01*
X473063Y221151D01*
X472971Y221153D01*
Y222153D01*
X473063Y222156D01*
X473154Y222165D01*
X473243Y222179D01*
X473330Y222200D01*
X473416Y222225D01*
X473499Y222257D01*
X473582Y222294D01*
X473662Y222337D01*
X473741Y222386D01*
X473818Y222441D01*
Y220866D01*
D02*
G37*
G36*
X432185Y222047D02*
X431594Y221457D01*
X430118D01*
Y222638D01*
X432185D01*
X432185Y222047D01*
D02*
G37*
G36*
X450174Y220654D02*
X450164Y220748D01*
X450133Y220833D01*
X450083Y220908D01*
X450012Y220973D01*
X449921Y221028D01*
X449809Y221074D01*
X449678Y221109D01*
X449526Y221133D01*
X449354Y221148D01*
X449162Y221153D01*
Y222153D01*
X449354Y222159D01*
X449526Y222174D01*
X449678Y222199D01*
X449809Y222234D01*
X449921Y222278D01*
X450012Y222334D01*
X450083Y222398D01*
X450133Y222474D01*
X450164Y222558D01*
X450174Y222654D01*
Y220654D01*
D02*
G37*
G36*
X447912Y222386D02*
X447991Y222337D01*
X448072Y222294D01*
X448154Y222257D01*
X448238Y222225D01*
X448324Y222200D01*
X448411Y222179D01*
X448500Y222165D01*
X448590Y222156D01*
X448682Y222153D01*
Y221153D01*
X448590Y221151D01*
X448500Y221142D01*
X448411Y221128D01*
X448324Y221108D01*
X448238Y221082D01*
X448154Y221050D01*
X448072Y221013D01*
X447991Y220970D01*
X447912Y220921D01*
X447835Y220866D01*
Y222441D01*
X447912Y222386D01*
D02*
G37*
G36*
X462708Y228870D02*
X462674Y228786D01*
X462670Y228685D01*
X462697Y228568D01*
X462753Y228435D01*
X462840Y228286D01*
X462958Y228119D01*
X463105Y227937D01*
X463491Y227524D01*
X462587Y227013D01*
X462390Y227204D01*
X462032Y227506D01*
X461872Y227617D01*
X461724Y227702D01*
X461589Y227761D01*
X461466Y227793D01*
X461356Y227800D01*
X461258Y227779D01*
X461173Y227733D01*
X462772Y228938D01*
X462708Y228870D01*
D02*
G37*
G36*
X472033Y229055D02*
X472064Y228970D01*
X472114Y228895D01*
X472185Y228830D01*
X472276Y228775D01*
X472388Y228730D01*
X472519Y228695D01*
X472671Y228670D01*
X472843Y228655D01*
X473035Y228650D01*
Y227650D01*
X472843Y227645D01*
X472671Y227630D01*
X472519Y227605D01*
X472388Y227570D01*
X472276Y227525D01*
X472185Y227470D01*
X472114Y227405D01*
X472064Y227330D01*
X472033Y227245D01*
X472023Y227150D01*
Y229150D01*
X472033Y229055D01*
D02*
G37*
G36*
X443108Y226548D02*
X443138Y226535D01*
X443188Y226523D01*
X443258Y226513D01*
X443458Y226497D01*
X444098Y226484D01*
Y225484D01*
X443908Y225483D01*
X443138Y225434D01*
X443108Y225421D01*
X443098Y225406D01*
Y226563D01*
X443108Y226548D01*
D02*
G37*
G36*
X437283Y228292D02*
X437361Y228243D01*
X437442Y228200D01*
X437524Y228162D01*
X437608Y228131D01*
X437694Y228105D01*
X437781Y228085D01*
X437870Y228070D01*
X437960Y228062D01*
X438053Y228059D01*
Y227059D01*
X437960Y227056D01*
X437870Y227048D01*
X437781Y227033D01*
X437694Y227013D01*
X437608Y226987D01*
X437524Y226956D01*
X437442Y226918D01*
X437361Y226875D01*
X437283Y226827D01*
X437205Y226772D01*
Y228346D01*
X437283Y228292D01*
D02*
G37*
G36*
X435147Y233278D02*
X435196Y232508D01*
X435209Y232478D01*
X435224Y232468D01*
X434067D01*
X434082Y232478D01*
X434095Y232508D01*
X434107Y232558D01*
X434117Y232628D01*
X434133Y232828D01*
X434146Y233468D01*
X435146D01*
X435147Y233278D01*
D02*
G37*
G36*
X437115D02*
X437164Y232508D01*
X437178Y232478D01*
X437193Y232468D01*
X436036D01*
X436051Y232478D01*
X436064Y232508D01*
X436076Y232558D01*
X436086Y232628D01*
X436102Y232828D01*
X436114Y233468D01*
X437114D01*
X437115Y233278D01*
D02*
G37*
G36*
X397980Y230657D02*
X396902D01*
X396909Y230667D01*
X396916Y230697D01*
X396922Y230747D01*
X396931Y230907D01*
X396941Y231657D01*
X397941D01*
X397980Y230657D01*
D02*
G37*
G36*
X402439Y232618D02*
X402469Y232612D01*
X402519Y232606D01*
X402679Y232596D01*
X403429Y232587D01*
Y231587D01*
X402429Y231547D01*
Y232626D01*
X402439Y232618D01*
D02*
G37*
G36*
X407386Y233397D02*
X407329Y233427D01*
X407266Y233454D01*
X407198Y233478D01*
X407126Y233498D01*
X407048Y233516D01*
X406879Y233541D01*
X406787Y233549D01*
X406589Y233555D01*
X406347Y234555D01*
X406432Y234559D01*
X406517Y234571D01*
X406602Y234591D01*
X406686Y234620D01*
X406770Y234656D01*
X406854Y234700D01*
X406938Y234753D01*
X407022Y234813D01*
X407105Y234882D01*
X407189Y234958D01*
X407386Y233397D01*
D02*
G37*
G36*
X400839Y233516D02*
X400829Y233523D01*
X400799Y233530D01*
X400749Y233536D01*
X400589Y233545D01*
X399839Y233555D01*
Y234555D01*
X400839Y234594D01*
Y233516D01*
D02*
G37*
G36*
X439083Y233278D02*
X439133Y232508D01*
X439146Y232478D01*
X439161Y232468D01*
X438004D01*
X438019Y232478D01*
X438032Y232508D01*
X438044Y232558D01*
X438054Y232628D01*
X438070Y232828D01*
X438083Y233468D01*
X439083D01*
X439083Y233278D01*
D02*
G37*
G36*
X398779Y232717D02*
X398425Y233071D01*
X399486Y233424D01*
X398779Y232717D01*
D02*
G37*
G36*
X443110Y230484D02*
X443138Y230471D01*
X443188Y230460D01*
X443258Y230450D01*
X443458Y230434D01*
X444098Y230421D01*
Y229421D01*
X443908Y229420D01*
X443138Y229371D01*
X443110Y229359D01*
Y229331D01*
X441043D01*
X441043Y229921D01*
X441634Y230512D01*
X443110D01*
Y230484D01*
D02*
G37*
G36*
X484762Y233200D02*
X484792Y233030D01*
X484842Y232880D01*
X484912Y232750D01*
X485002Y232640D01*
X485112Y232550D01*
X485242Y232480D01*
X485392Y232430D01*
X485562Y232400D01*
X485752Y232390D01*
Y231390D01*
X485562Y231380D01*
X485392Y231350D01*
X485242Y231300D01*
X485112Y231230D01*
X485002Y231140D01*
X484912Y231030D01*
X484842Y230900D01*
X484792Y230750D01*
X484762Y230580D01*
X484752Y230390D01*
X483752Y231890D01*
X484752Y233390D01*
X484762Y233200D01*
D02*
G37*
G36*
X459276Y228921D02*
X459266Y229016D01*
X459235Y229101D01*
X459184Y229176D01*
X459113Y229241D01*
X459022Y229296D01*
X458911Y229341D01*
X458779Y229376D01*
X458628Y229401D01*
X458456Y229416D01*
X458264Y229421D01*
Y230421D01*
X458454Y230426D01*
X458624Y230438D01*
X458774Y230459D01*
X458904Y230489D01*
X459014Y230527D01*
X459104Y230574D01*
X459174Y230629D01*
X459224Y230693D01*
X459254Y230766D01*
X459264Y230846D01*
X459276Y228921D01*
D02*
G37*
G36*
X432185Y229921D02*
X432185Y229331D01*
X430118D01*
Y229359D01*
X430090Y229371D01*
X430040Y229383D01*
X429970Y229393D01*
X429770Y229409D01*
X429130Y229421D01*
Y230421D01*
X429320Y230422D01*
X430090Y230471D01*
X430118Y230484D01*
Y230512D01*
X431594D01*
X432185Y229921D01*
D02*
G37*
G36*
X420079Y227490D02*
X409122D01*
X408267Y228345D01*
X407906Y228586D01*
X407480Y228671D01*
X407480Y228671D01*
X401391D01*
X401264Y228732D01*
X400990Y229042D01*
X400962Y229171D01*
X400963Y229173D01*
X400919Y229313D01*
X400891Y229457D01*
X400861Y229502D01*
X400845Y229553D01*
X400751Y229666D01*
X400670Y229788D01*
X400625Y229818D01*
X400591Y229859D01*
X400551Y229880D01*
Y230945D01*
X401629D01*
X401708Y230826D01*
X401725Y230815D01*
X401737Y230799D01*
X401890Y230705D01*
X402039Y230606D01*
X402059Y230602D01*
X402076Y230591D01*
X402253Y230563D01*
X402429Y230528D01*
X402449Y230532D01*
X402469Y230529D01*
X403469Y230568D01*
X403643Y230610D01*
X403819Y230645D01*
X403836Y230656D01*
X403856Y230661D01*
X404001Y230766D01*
X404150Y230866D01*
X404161Y230883D01*
X404178Y230894D01*
X404227Y230975D01*
X420079D01*
Y227490D01*
D02*
G37*
G36*
X423941Y231587D02*
X423941Y231587D01*
X423941Y231586D01*
X423751Y231576D01*
X423581Y231546D01*
X423431Y231496D01*
X423301Y231426D01*
X423191Y231336D01*
X423101Y231226D01*
X423049Y231130D01*
X423066Y231087D01*
X423121Y230996D01*
X423186Y230925D01*
X423261Y230875D01*
X423346Y230844D01*
X423441Y230834D01*
X422962D01*
X422951Y230776D01*
X422941Y230586D01*
X421941Y230586D01*
X421941Y230587D01*
X421941D01*
X421931Y230777D01*
X421921Y230834D01*
X421441D01*
X421536Y230844D01*
X421621Y230875D01*
X421696Y230925D01*
X421761Y230996D01*
X421816Y231087D01*
X421833Y231130D01*
X421781Y231226D01*
X421691Y231336D01*
X421581Y231426D01*
X421451Y231496D01*
X421301Y231546D01*
X421131Y231576D01*
X420941Y231586D01*
X420942Y231587D01*
X420941Y231587D01*
X422441Y232587D01*
X423941Y231587D01*
D02*
G37*
G36*
X432087Y232470D02*
Y232480D01*
X433268D01*
Y230413D01*
X432677Y230413D01*
X432087Y231004D01*
Y231367D01*
X432059Y231410D01*
X432009Y231452D01*
X431939Y231487D01*
X431849Y231518D01*
X431739Y231543D01*
X431609Y231562D01*
X431459Y231576D01*
X431099Y231587D01*
Y232587D01*
X432087Y232470D01*
D02*
G37*
G36*
X441837Y232468D02*
X441703Y232330D01*
X441476Y232067D01*
X441384Y231944D01*
X441306Y231825D01*
X441243Y231712D01*
X441193Y231604D01*
X441158Y231502D01*
X441142Y231427D01*
Y231004D01*
X440551Y230413D01*
X439961Y230413D01*
Y232480D01*
X440088D01*
X440163Y232497D01*
X440266Y232532D01*
X440374Y232581D01*
X440487Y232645D01*
X440605Y232723D01*
X440729Y232815D01*
X440991Y233041D01*
X441130Y233175D01*
X441837Y232468D01*
D02*
G37*
G36*
X452630Y201511D02*
X452544Y201481D01*
X452469Y201431D01*
X452404Y201361D01*
X452350Y201271D01*
X452305Y201161D01*
X452270Y201031D01*
X452245Y200881D01*
X452229Y200711D01*
X452224Y200521D01*
X451225D01*
X451220Y200711D01*
X451204Y200881D01*
X451180Y201031D01*
X451145Y201161D01*
X451099Y201271D01*
X451045Y201361D01*
X450980Y201431D01*
X450905Y201481D01*
X450819Y201511D01*
X450725Y201521D01*
X452725D01*
X452630Y201511D01*
D02*
G37*
G36*
X415020Y201649D02*
X414935Y201620D01*
X414860Y201570D01*
X414795Y201500D01*
X414740Y201410D01*
X414695Y201300D01*
X414660Y201169D01*
X414635Y201020D01*
X414620Y200850D01*
X414615Y200659D01*
X413615D01*
X413610Y200850D01*
X413595Y201020D01*
X413570Y201169D01*
X413535Y201300D01*
X413490Y201410D01*
X413435Y201500D01*
X413370Y201570D01*
X413295Y201620D01*
X413210Y201649D01*
X413115Y201659D01*
X415115D01*
X415020Y201649D01*
D02*
G37*
G36*
X452229Y197449D02*
X452245Y197277D01*
X452270Y197125D01*
X452305Y196994D01*
X452350Y196882D01*
X452404Y196791D01*
X452469Y196721D01*
X452544Y196670D01*
X452630Y196640D01*
X452725Y196629D01*
X450725D01*
X450819Y196640D01*
X450905Y196670D01*
X450980Y196721D01*
X451045Y196791D01*
X451099Y196882D01*
X451145Y196994D01*
X451180Y197125D01*
X451204Y197277D01*
X451220Y197449D01*
X451225Y197641D01*
X452224D01*
X452229Y197449D01*
D02*
G37*
G36*
X414620Y197452D02*
X414635Y197282D01*
X414660Y197132D01*
X414695Y197002D01*
X414740Y196892D01*
X414795Y196802D01*
X414860Y196732D01*
X414935Y196682D01*
X415020Y196652D01*
X415115Y196642D01*
X413154D01*
X413241Y196652D01*
X413320Y196682D01*
X413389Y196732D01*
X413449Y196802D01*
X413499Y196892D01*
X413541Y197002D01*
X413573Y197132D01*
X413596Y197282D01*
X413610Y197452D01*
X413615Y197642D01*
X414615D01*
X414620Y197452D01*
D02*
G37*
G36*
X424120Y204186D02*
X424151Y204101D01*
X424201Y204026D01*
X424272Y203961D01*
X424363Y203906D01*
X424474Y203861D01*
X424606Y203826D01*
X424758Y203801D01*
X424930Y203786D01*
X425122Y203781D01*
Y202781D01*
X424930Y202776D01*
X424758Y202761D01*
X424606Y202736D01*
X424474Y202701D01*
X424363Y202656D01*
X424272Y202601D01*
X424201Y202536D01*
X424151Y202461D01*
X424120Y202376D01*
X424110Y202281D01*
Y204281D01*
X424120Y204186D01*
D02*
G37*
G36*
X431670Y202281D02*
X431660Y202376D01*
X431629Y202461D01*
X431578Y202536D01*
X431508Y202601D01*
X431417Y202656D01*
X431305Y202701D01*
X431174Y202736D01*
X431022Y202761D01*
X430850Y202776D01*
X430658Y202781D01*
Y203781D01*
X430850Y203786D01*
X431022Y203801D01*
X431174Y203826D01*
X431305Y203861D01*
X431417Y203906D01*
X431508Y203961D01*
X431578Y204026D01*
X431629Y204101D01*
X431660Y204186D01*
X431670Y204281D01*
Y202281D01*
D02*
G37*
G36*
X422686Y201672D02*
X422627Y201744D01*
X422550Y201785D01*
X422454Y201794D01*
X422340Y201770D01*
X422208Y201714D01*
X422057Y201626D01*
X421888Y201506D01*
X421701Y201354D01*
X421272Y200952D01*
X420959Y202053D01*
X421140Y202242D01*
X421430Y202588D01*
X421539Y202745D01*
X421623Y202891D01*
X421683Y203028D01*
X421718Y203153D01*
X421729Y203268D01*
X421716Y203373D01*
X421678Y203467D01*
X422686Y201672D01*
D02*
G37*
G36*
X450174Y202281D02*
X450164Y202376D01*
X450133Y202461D01*
X450082Y202536D01*
X450012Y202601D01*
X449921Y202656D01*
X449809Y202701D01*
X449678Y202736D01*
X449526Y202761D01*
X449354Y202776D01*
X449162Y202781D01*
Y203781D01*
X449354Y203786D01*
X449526Y203801D01*
X449678Y203826D01*
X449809Y203861D01*
X449921Y203906D01*
X450012Y203961D01*
X450082Y204026D01*
X450133Y204101D01*
X450164Y204186D01*
X450174Y204281D01*
Y202281D01*
D02*
G37*
G36*
X452134Y189210D02*
X452715Y188969D01*
X453202Y188570D01*
X453551Y188047D01*
X453734Y187445D01*
Y187131D01*
Y186781D01*
X453509Y186118D01*
X453082Y185562D01*
X452500Y185173D01*
X451824Y184992D01*
X451125Y185038D01*
X450479Y185306D01*
X449952Y185767D01*
X449602Y186374D01*
X449466Y187060D01*
X449557Y187754D01*
X449867Y188382D01*
X450114Y188630D01*
X450337Y188852D01*
X450891Y189149D01*
X451508Y189271D01*
X452134Y189210D01*
D02*
G37*
G36*
X465387Y197151D02*
X465516Y197082D01*
X465686Y197011D01*
X465899Y196938D01*
X466450Y196786D01*
X467592Y196543D01*
X468056Y196457D01*
X467692Y196118D01*
X467882Y196100D01*
X468463Y195859D01*
X468950Y195460D01*
X469299Y194937D01*
X469482Y194335D01*
Y194020D01*
Y193670D01*
X469257Y193007D01*
X468830Y192452D01*
X468248Y192063D01*
X467572Y191882D01*
X466874Y191928D01*
X466227Y192195D01*
X465700Y192657D01*
X465350Y193263D01*
X465238Y193829D01*
X465132Y193730D01*
X465078Y194210D01*
X464736Y196166D01*
X464676Y196338D01*
X464615Y196467D01*
X464553Y196551D01*
X465300Y197218D01*
X465387Y197151D01*
D02*
G37*
G36*
X439209Y187320D02*
X439144Y187236D01*
X439079Y187112D01*
X439014Y186949D01*
X438949Y186747D01*
X438819Y186224D01*
X438689Y185544D01*
X438559Y184707D01*
X435888Y187378D01*
X436326Y187443D01*
X437928Y187768D01*
X438130Y187833D01*
X438293Y187898D01*
X438417Y187963D01*
X438502Y188028D01*
X439209Y187320D01*
D02*
G37*
G36*
X421361Y189144D02*
X421942Y188903D01*
X422428Y188504D01*
X422778Y187981D01*
X422960Y187379D01*
Y187065D01*
Y186714D01*
X422735Y186051D01*
X422309Y185496D01*
X421727Y185107D01*
X421051Y184926D01*
X420352Y184972D01*
X419705Y185240D01*
X419179Y185701D01*
X418829Y186308D01*
X418692Y186994D01*
X418784Y187688D01*
X419093Y188316D01*
X419341Y188564D01*
X419563Y188786D01*
X420118Y189083D01*
X420735Y189205D01*
X421361Y189144D01*
D02*
G37*
G36*
X431670Y193882D02*
X431660Y193977D01*
X431629Y194062D01*
X431579Y194137D01*
X431508Y194202D01*
X431417Y194257D01*
X431306Y194302D01*
X431174Y194337D01*
X431022Y194362D01*
X430850Y194377D01*
X430658Y194382D01*
Y195382D01*
X430850Y195387D01*
X431022Y195402D01*
X431174Y195427D01*
X431306Y195462D01*
X431417Y195507D01*
X431508Y195562D01*
X431579Y195627D01*
X431629Y195702D01*
X431660Y195787D01*
X431670Y195882D01*
Y193882D01*
D02*
G37*
G36*
X433725Y197449D02*
X433740Y197277D01*
X433765Y197125D01*
X433800Y196994D01*
X433845Y196882D01*
X433900Y196791D01*
X433965Y196721D01*
X434040Y196670D01*
X434125Y196640D01*
X434220Y196629D01*
X432220D01*
X432315Y196640D01*
X432400Y196670D01*
X432475Y196721D01*
X432540Y196791D01*
X432595Y196882D01*
X432640Y196994D01*
X432675Y197125D01*
X432700Y197277D01*
X432715Y197449D01*
X432720Y197641D01*
X433720D01*
X433725Y197449D01*
D02*
G37*
G36*
X452480Y193112D02*
X452395Y193082D01*
X452320Y193032D01*
X452255Y192962D01*
X452200Y192872D01*
X452155Y192762D01*
X452120Y192632D01*
X452095Y192482D01*
X452080Y192312D01*
X452075Y192122D01*
X451075D01*
X451070Y192312D01*
X451055Y192482D01*
X451030Y192632D01*
X450995Y192762D01*
X450950Y192872D01*
X450895Y192962D01*
X450830Y193032D01*
X450755Y193082D01*
X450670Y193112D01*
X450575Y193122D01*
X452575D01*
X452480Y193112D01*
D02*
G37*
G36*
X422277Y195787D02*
X422308Y195702D01*
X422358Y195627D01*
X422429Y195562D01*
X422520Y195507D01*
X422632Y195462D01*
X422763Y195427D01*
X422915Y195402D01*
X423087Y195387D01*
X423279Y195382D01*
Y194382D01*
X423087Y194377D01*
X422915Y194362D01*
X422763Y194337D01*
X422632Y194302D01*
X422520Y194257D01*
X422429Y194202D01*
X422358Y194137D01*
X422308Y194062D01*
X422277Y193977D01*
X422267Y193882D01*
Y195882D01*
X422277Y195787D01*
D02*
G37*
G36*
X434946Y228634D02*
X434745Y228333D01*
X434591Y227559D01*
X434745Y226785D01*
X435184Y226129D01*
X435840Y225690D01*
X436614Y225536D01*
X437388Y225690D01*
X437698Y225897D01*
X437793Y225939D01*
X437845Y225976D01*
X437870Y225991D01*
X437893Y226004D01*
X437915Y226013D01*
X437935Y226021D01*
X437956Y226027D01*
X437977Y226032D01*
X437999Y226036D01*
X438024Y226038D01*
X438084Y226040D01*
X438263Y226081D01*
X438443Y226117D01*
X438456Y226126D01*
X438472Y226130D01*
X438621Y226236D01*
X438773Y226338D01*
X438803Y226367D01*
X438976Y226511D01*
X439162Y226474D01*
X439346Y226433D01*
X439764Y226425D01*
Y223007D01*
X439764Y222835D01*
X439494Y222446D01*
X439240Y222276D01*
X439240Y222276D01*
X439019Y221945D01*
X438941Y221555D01*
Y219488D01*
X438972Y219331D01*
X438972Y219303D01*
X438983Y219277D01*
X438995Y219218D01*
X439031Y218655D01*
X439032Y218496D01*
X439071Y218303D01*
X439109Y218110D01*
X439110Y218108D01*
X439111Y218106D01*
X439221Y217943D01*
X439330Y217779D01*
X439332Y217778D01*
X439333Y217776D01*
X439497Y217668D01*
X439546Y217635D01*
Y216815D01*
X439524Y216783D01*
X439439Y216357D01*
X439439Y216357D01*
Y215630D01*
X439349Y215573D01*
X439342Y215562D01*
X439330Y215554D01*
X439227Y215400D01*
X439120Y215248D01*
X439117Y215235D01*
X439109Y215224D01*
X439073Y215041D01*
X439032Y214860D01*
X439028Y214702D01*
X439028Y214699D01*
X438952Y214636D01*
X438830Y214554D01*
X438800Y214510D01*
X438759Y214475D01*
X438738Y214436D01*
X437726D01*
Y216357D01*
X437726Y216357D01*
X437641Y216783D01*
X437620Y216815D01*
Y217635D01*
X437662Y217663D01*
X437821Y217765D01*
X437827Y217774D01*
X437835Y217779D01*
X437940Y217937D01*
X438048Y218092D01*
X438051Y218102D01*
X438056Y218110D01*
X438093Y218296D01*
X438134Y218480D01*
X438145Y219090D01*
X438155Y219211D01*
X438193Y219303D01*
X438193Y219402D01*
X438212Y219500D01*
X438193Y219599D01*
X438192Y219701D01*
X438154Y219793D01*
X438135Y219890D01*
X438078Y219974D01*
X438040Y220068D01*
X437969Y220138D01*
X437914Y220221D01*
X437830Y220277D01*
X437795Y220312D01*
Y222835D01*
X433965D01*
X433465Y222835D01*
X433465Y223335D01*
Y228634D01*
X433465Y229134D01*
X433965Y229134D01*
X434679D01*
X434946Y228634D01*
D02*
G37*
G36*
X452630Y219490D02*
X452544Y219460D01*
X452469Y219410D01*
X452404Y219340D01*
X452350Y219250D01*
X452305Y219140D01*
X452270Y219010D01*
X452245Y218860D01*
X452229Y218690D01*
X452224Y218500D01*
X451225D01*
X451220Y218690D01*
X451204Y218860D01*
X451180Y219010D01*
X451145Y219140D01*
X451099Y219250D01*
X451045Y219340D01*
X450980Y219410D01*
X450905Y219460D01*
X450819Y219490D01*
X450725Y219500D01*
X452725D01*
X452630Y219490D01*
D02*
G37*
G36*
X441048Y214643D02*
X441027Y214323D01*
X441008Y214193D01*
X440984Y214083D01*
X440955Y213993D01*
X440920Y213923D01*
X440880Y213873D01*
X440834Y213843D01*
X440783Y213833D01*
X439551D01*
X439646Y213843D01*
X439731Y213873D01*
X439806Y213923D01*
X439871Y213993D01*
X439926Y214083D01*
X439971Y214193D01*
X440006Y214323D01*
X440031Y214473D01*
X440046Y214643D01*
X440051Y214833D01*
X441051D01*
X441048Y214643D01*
D02*
G37*
G36*
X485556Y217538D02*
X485677Y217490D01*
X485840Y217447D01*
X486046Y217411D01*
X486295Y217381D01*
X486918Y217339D01*
X488171Y217323D01*
X485925Y214285D01*
X485805Y214680D01*
X485187Y216338D01*
X485102Y216495D01*
X485021Y216619D01*
X484946Y216709D01*
X485477Y217593D01*
X485556Y217538D01*
D02*
G37*
G36*
X433268Y219488D02*
X432087D01*
Y220964D01*
X432677Y221555D01*
X433268Y221555D01*
Y219488D01*
D02*
G37*
G36*
X443110Y221457D02*
X443082D01*
X443070Y221429D01*
X443058Y221379D01*
X443048Y221309D01*
X443032Y221109D01*
X443020Y220469D01*
X442020D01*
X442019Y220659D01*
X441969Y221429D01*
X441957Y221457D01*
X441634D01*
X441043Y222047D01*
X441043Y222638D01*
X443110D01*
Y221457D01*
D02*
G37*
G36*
X437178Y219490D02*
X437164Y219460D01*
X437153Y219410D01*
X437143Y219340D01*
X437127Y219140D01*
X437114Y218500D01*
X436114D01*
X436113Y218690D01*
X436064Y219460D01*
X436051Y219490D01*
X436036Y219500D01*
X437193D01*
X437178Y219490D01*
D02*
G37*
G36*
X440551Y221555D02*
X441142Y220964D01*
Y219488D01*
X441114D01*
X441102Y219460D01*
X441090Y219410D01*
X441080Y219340D01*
X441064Y219140D01*
X441051Y218500D01*
X440051D01*
X440050Y218690D01*
X440001Y219460D01*
X439988Y219488D01*
X439961D01*
Y221555D01*
X440551Y221555D01*
D02*
G37*
G36*
X435396Y216930D02*
Y216463D01*
X435396Y216463D01*
X435481Y216038D01*
X435502Y216005D01*
Y209909D01*
X432505Y206912D01*
X432407Y206893D01*
X432223Y206861D01*
X432212Y206854D01*
X432198Y206851D01*
X432044Y206748D01*
X431887Y206649D01*
X431879Y206638D01*
X431868Y206630D01*
X431765Y206476D01*
X431657Y206324D01*
X431654Y206311D01*
X431647Y206299D01*
X431610Y206117D01*
X431569Y205936D01*
X431565Y205778D01*
X431565Y205774D01*
X431489Y205712D01*
X431368Y205630D01*
X431338Y205585D01*
X431296Y205551D01*
X431276Y205512D01*
X431055D01*
Y205088D01*
X431029Y205075D01*
X430994Y205033D01*
X430949Y205002D01*
X430868Y204881D01*
X430805Y204806D01*
X430792Y204805D01*
X430631Y204801D01*
X430450Y204760D01*
X430267Y204723D01*
X430256Y204716D01*
X430243Y204713D01*
X430091Y204606D01*
X429937Y204502D01*
X429929Y204491D01*
X429918Y204483D01*
X429861Y204393D01*
X426338D01*
X426330Y204396D01*
X426263Y204490D01*
X426522Y204990D01*
X427854D01*
X427854Y204990D01*
X428280Y205075D01*
X428641Y205316D01*
X430511Y207186D01*
X430511Y207186D01*
X430752Y207547D01*
X430836Y207972D01*
Y213024D01*
X434934Y217121D01*
X435396Y216930D01*
D02*
G37*
G36*
X477583Y206196D02*
X477700Y206095D01*
X477751Y206057D01*
X477799Y206026D01*
X477842Y206004D01*
X477881Y205989D01*
X477915Y205983D01*
X477946Y205984D01*
X477972Y205994D01*
X477077Y205099D01*
X477087Y205125D01*
X477088Y205156D01*
X477082Y205190D01*
X477067Y205229D01*
X477045Y205272D01*
X477014Y205320D01*
X476976Y205371D01*
X476929Y205427D01*
X476812Y205552D01*
X477519Y206259D01*
X477583Y206196D01*
D02*
G37*
G36*
X445472Y203945D02*
X445541Y203910D01*
X445615Y203880D01*
X445692Y203854D01*
X445772Y203831D01*
X445856Y203813D01*
X445944Y203799D01*
X446130Y203783D01*
X446228Y203781D01*
X446385Y202781D01*
X446298Y202777D01*
X446211Y202766D01*
X446125Y202748D01*
X446039Y202722D01*
X445954Y202689D01*
X445869Y202649D01*
X445785Y202601D01*
X445702Y202546D01*
X445619Y202484D01*
X445537Y202415D01*
X445405Y203983D01*
X445472Y203945D01*
D02*
G37*
G36*
X433594Y205719D02*
X433609Y205549D01*
X433634Y205399D01*
X433669Y205269D01*
X433714Y205159D01*
X433769Y205069D01*
X433834Y204999D01*
X433909Y204949D01*
X433994Y204919D01*
X434089Y204909D01*
X432089D01*
X432184Y204919D01*
X432269Y204949D01*
X432344Y204999D01*
X432409Y205069D01*
X432464Y205159D01*
X432509Y205269D01*
X432544Y205399D01*
X432569Y205549D01*
X432584Y205719D01*
X432589Y205909D01*
X433589D01*
X433594Y205719D01*
D02*
G37*
G36*
X440591Y212737D02*
X440528Y212670D01*
X440470Y212600D01*
X440417Y212527D01*
X440370Y212451D01*
X440328Y212372D01*
X440291Y212291D01*
X440259Y212206D01*
X440232Y212119D01*
X440211Y212028D01*
X440195Y211935D01*
X439082Y213048D01*
X439175Y213064D01*
X439265Y213086D01*
X439353Y213112D01*
X439437Y213144D01*
X439519Y213181D01*
X439598Y213223D01*
X439674Y213271D01*
X439747Y213323D01*
X439817Y213381D01*
X439884Y213444D01*
X440591Y212737D01*
D02*
G37*
G36*
X452229Y214641D02*
X452245Y214469D01*
X452270Y214317D01*
X452305Y214185D01*
X452350Y214074D01*
X452404Y213983D01*
X452469Y213912D01*
X452544Y213861D01*
X452630Y213831D01*
X452725Y213821D01*
X450725D01*
X450819Y213831D01*
X450905Y213861D01*
X450980Y213912D01*
X451045Y213983D01*
X451099Y214074D01*
X451145Y214185D01*
X451180Y214317D01*
X451204Y214469D01*
X451220Y214641D01*
X451225Y214833D01*
X452224D01*
X452229Y214641D01*
D02*
G37*
G36*
X452629Y210304D02*
X452544Y210274D01*
X452469Y210224D01*
X452404Y210154D01*
X452349Y210064D01*
X452304Y209954D01*
X452269Y209824D01*
X452244Y209674D01*
X452229Y209504D01*
X452224Y209314D01*
X451224D01*
X451219Y209504D01*
X451204Y209674D01*
X451179Y209824D01*
X451144Y209954D01*
X451099Y210064D01*
X451044Y210154D01*
X450979Y210224D01*
X450904Y210274D01*
X450819Y210304D01*
X450724Y210314D01*
X452724D01*
X452629Y210304D01*
D02*
G37*
G36*
X418551Y212222D02*
X418548Y212205D01*
X418551Y212187D01*
Y211481D01*
X416745Y209675D01*
X407139D01*
X406969Y210175D01*
X407516Y210594D01*
X408055Y211297D01*
X408394Y212115D01*
X408509Y212992D01*
X408424Y213644D01*
X408769Y214144D01*
X418551D01*
Y212222D01*
D02*
G37*
G36*
X480707Y258517D02*
X480737Y258487D01*
X480787Y258461D01*
X480857Y258438D01*
X480947Y258418D01*
X481057Y258402D01*
X481337Y258381D01*
X481697Y258374D01*
Y257374D01*
X481507Y257372D01*
X480947Y257330D01*
X480857Y257310D01*
X480787Y257287D01*
X480737Y257261D01*
X480707Y257231D01*
X480697Y257197D01*
Y258551D01*
X480707Y258517D01*
D02*
G37*
G36*
X389371Y258778D02*
X389399Y258774D01*
X389438Y258770D01*
X389696Y258760D01*
X390000Y258758D01*
X390544Y257758D01*
X390464Y257753D01*
X390384Y257738D01*
X390304Y257713D01*
X390224Y257678D01*
X390144Y257633D01*
X390064Y257578D01*
X389984Y257513D01*
X389904Y257438D01*
X389825Y257354D01*
X389745Y257259D01*
X389354Y258783D01*
X389371Y258778D01*
D02*
G37*
G36*
X414898Y258069D02*
X413995Y256898D01*
X413972Y256989D01*
X413942Y257070D01*
X413905Y257141D01*
X413860Y257203D01*
X413807Y257255D01*
X413746Y257298D01*
X413678Y257331D01*
X413603Y257355D01*
X413519Y257369D01*
X413429Y257374D01*
X413779Y258374D01*
X414898Y258069D01*
D02*
G37*
G36*
X463004Y257197D02*
X462994Y257231D01*
X462964Y257261D01*
X462914Y257287D01*
X462844Y257310D01*
X462754Y257330D01*
X462644Y257346D01*
X462364Y257367D01*
X462004Y257374D01*
Y258374D01*
X462194Y258376D01*
X462754Y258418D01*
X462844Y258438D01*
X462914Y258461D01*
X462964Y258487D01*
X462994Y258517D01*
X463004Y258551D01*
Y257197D01*
D02*
G37*
G36*
X382911Y260359D02*
X382629Y260498D01*
X382311Y260556D01*
X381957Y260534D01*
X381566Y260431D01*
X381397Y260359D01*
X382299D01*
X382204Y260349D01*
X382119Y260318D01*
X382044Y260267D01*
X381979Y260197D01*
X381924Y260106D01*
X381879Y259994D01*
X381844Y259863D01*
X381819Y259711D01*
X381804Y259539D01*
X381799Y259347D01*
X380799D01*
X380794Y259539D01*
X380779Y259711D01*
X380754Y259863D01*
X380719Y259994D01*
X380714Y260006D01*
X380675Y259984D01*
X380175Y259639D01*
X379639Y259213D01*
X379066Y258707D01*
X378457Y258120D01*
X375540Y259657D01*
X375964Y260100D01*
X376676Y260971D01*
X376966Y261400D01*
X377211Y261823D01*
X377411Y262241D01*
X377567Y262655D01*
X377678Y263064D01*
X377745Y263467D01*
X377767Y263866D01*
X382911Y260359D01*
D02*
G37*
G36*
X392138Y260730D02*
X392128Y260764D01*
X392098Y260794D01*
X392048Y260821D01*
X391978Y260844D01*
X391888Y260863D01*
X391778Y260879D01*
X391498Y260900D01*
X391138Y260907D01*
Y261907D01*
X391328Y261909D01*
X391888Y261952D01*
X391978Y261971D01*
X392048Y261994D01*
X392098Y262021D01*
X392128Y262051D01*
X392138Y262084D01*
Y260730D01*
D02*
G37*
G36*
Y257581D02*
X392128Y257614D01*
X392098Y257645D01*
X392048Y257671D01*
X391978Y257694D01*
X391888Y257714D01*
X391778Y257729D01*
X391498Y257751D01*
X391138Y257758D01*
Y258758D01*
X391328Y258759D01*
X391888Y258802D01*
X391978Y258822D01*
X392048Y258844D01*
X392098Y258871D01*
X392128Y258901D01*
X392138Y258935D01*
Y257581D01*
D02*
G37*
G36*
X412734Y258304D02*
X412992Y258374D01*
X413343Y257374D01*
X413252Y257369D01*
X413169Y257355D01*
X413093Y257331D01*
X413025Y257298D01*
X412965Y257255D01*
X412933Y257223D01*
X412967Y257035D01*
X412843Y257095D01*
X412829Y257070D01*
X412799Y256989D01*
X412777Y256898D01*
X412478Y257239D01*
X412439Y257252D01*
X412187Y257320D01*
X412065Y257344D01*
X411824Y257371D01*
X411707Y257374D01*
X411587Y257743D01*
X410845Y256898D01*
X410823Y256989D01*
X410793Y257070D01*
X410755Y257141D01*
X410710Y257203D01*
X410657Y257255D01*
X410597Y257298D01*
X410529Y257331D01*
X410453Y257355D01*
X410370Y257369D01*
X410279Y257374D01*
X410316Y257480D01*
X409831Y257581D01*
X409819Y258874D01*
X409830Y258779D01*
X409861Y258694D01*
X409912Y258619D01*
X409983Y258554D01*
X410074Y258499D01*
X410185Y258454D01*
X410316Y258419D01*
X410468Y258394D01*
X410639Y258379D01*
X410831Y258374D01*
Y258319D01*
X411455Y258149D01*
X411382Y258374D01*
X411470Y258382D01*
X411565Y258407D01*
X411667Y258449D01*
X411776Y258506D01*
X411891Y258581D01*
X412013Y258672D01*
X412142Y258780D01*
X412420Y259045D01*
X412570Y259202D01*
X412734Y258304D01*
D02*
G37*
G36*
X439414Y251756D02*
X439404Y251851D01*
X439373Y251936D01*
X439323Y252011D01*
X439252Y252076D01*
X439161Y252131D01*
X439049Y252176D01*
X438918Y252211D01*
X438878Y252218D01*
X438838Y252211D01*
X438706Y252176D01*
X438595Y252131D01*
X438504Y252076D01*
X438433Y252011D01*
X438383Y251936D01*
X438352Y251851D01*
X438342Y251756D01*
Y253756D01*
X438352Y253661D01*
X438383Y253576D01*
X438433Y253501D01*
X438504Y253436D01*
X438595Y253381D01*
X438706Y253336D01*
X438838Y253301D01*
X438878Y253294D01*
X438918Y253301D01*
X439049Y253336D01*
X439161Y253381D01*
X439252Y253436D01*
X439323Y253501D01*
X439373Y253576D01*
X439404Y253661D01*
X439414Y253756D01*
Y251756D01*
D02*
G37*
G36*
X459176Y255429D02*
X459274Y255368D01*
X459316Y255467D01*
X459528Y255209D01*
X459609Y255158D01*
X459741Y255092D01*
X459866Y255038D01*
X459985Y254996D01*
X460097Y254966D01*
X460203Y254948D01*
X460302Y254942D01*
Y254430D01*
X461157Y255467D01*
X461199Y255367D01*
X461246Y255278D01*
X461298Y255199D01*
X461354Y255131D01*
X461416Y255073D01*
X461482Y255026D01*
X461553Y254989D01*
X461629Y254963D01*
X461710Y254947D01*
X461795Y254942D01*
X461542Y253942D01*
X460403Y254148D01*
X460302Y254270D01*
Y253942D01*
X460203Y253936D01*
X460097Y253918D01*
X459985Y253887D01*
X459866Y253845D01*
X459741Y253791D01*
X459609Y253725D01*
X459327Y253556D01*
X459176Y253454D01*
X459019Y253340D01*
Y253958D01*
X458931Y253942D01*
X458677Y254942D01*
X458763Y254947D01*
X458844Y254963D01*
X458919Y254989D01*
X458990Y255026D01*
X459019Y255046D01*
Y255543D01*
X459176Y255429D01*
D02*
G37*
G36*
X434296Y251756D02*
X434285Y251851D01*
X434255Y251936D01*
X434205Y252011D01*
X434134Y252076D01*
X434043Y252131D01*
X433931Y252176D01*
X433800Y252211D01*
X433760Y252218D01*
X433720Y252211D01*
X433588Y252176D01*
X433477Y252131D01*
X433386Y252076D01*
X433315Y252011D01*
X433264Y251936D01*
X433234Y251851D01*
X433224Y251756D01*
Y253756D01*
X433234Y253661D01*
X433264Y253576D01*
X433315Y253501D01*
X433386Y253436D01*
X433477Y253381D01*
X433588Y253336D01*
X433720Y253301D01*
X433760Y253294D01*
X433800Y253301D01*
X433931Y253336D01*
X434043Y253381D01*
X434134Y253436D01*
X434205Y253501D01*
X434255Y253576D01*
X434285Y253661D01*
X434296Y253756D01*
Y251756D01*
D02*
G37*
G36*
X436855D02*
X436845Y251851D01*
X436814Y251936D01*
X436764Y252011D01*
X436693Y252076D01*
X436602Y252131D01*
X436490Y252176D01*
X436359Y252211D01*
X436319Y252218D01*
X436279Y252211D01*
X436147Y252176D01*
X436036Y252131D01*
X435945Y252076D01*
X435874Y252011D01*
X435823Y251936D01*
X435793Y251851D01*
X435783Y251756D01*
Y253756D01*
X435793Y253661D01*
X435823Y253576D01*
X435874Y253501D01*
X435945Y253436D01*
X436036Y253381D01*
X436147Y253336D01*
X436279Y253301D01*
X436319Y253294D01*
X436359Y253301D01*
X436490Y253336D01*
X436602Y253381D01*
X436693Y253436D01*
X436764Y253501D01*
X436814Y253576D01*
X436845Y253661D01*
X436855Y253756D01*
Y251756D01*
D02*
G37*
G36*
X392138Y254431D02*
X391138Y254224D01*
Y255224D01*
X391330Y255229D01*
X391501Y255244D01*
X391652Y255269D01*
X391783Y255304D01*
X391895Y255349D01*
X391986Y255404D01*
X392057Y255469D01*
X392108Y255544D01*
X392139Y255629D01*
X392150Y255724D01*
X392138Y254431D01*
D02*
G37*
G36*
X409830Y255629D02*
X409861Y255544D01*
X409912Y255469D01*
X409983Y255404D01*
X410074Y255349D01*
X410185Y255304D01*
X410316Y255269D01*
X410468Y255244D01*
X410639Y255229D01*
X410831Y255224D01*
Y254224D01*
X409831Y254431D01*
X409819Y255724D01*
X409830Y255629D01*
D02*
G37*
G36*
X463004Y254047D02*
X462994Y254027D01*
X462964Y254009D01*
X462914Y253993D01*
X462844Y253980D01*
X462754Y253968D01*
X462514Y253951D01*
X462004Y253942D01*
Y254942D01*
X462194Y254946D01*
X462364Y254960D01*
X462514Y254983D01*
X462644Y255015D01*
X462754Y255057D01*
X462844Y255107D01*
X462914Y255167D01*
X462964Y255236D01*
X462994Y255314D01*
X463004Y255401D01*
Y254047D01*
D02*
G37*
G36*
X480707Y255368D02*
X480737Y255338D01*
X480787Y255311D01*
X480857Y255288D01*
X480947Y255269D01*
X481057Y255253D01*
X481337Y255231D01*
X481697Y255224D01*
Y254224D01*
X481507Y254223D01*
X480947Y254180D01*
X480857Y254161D01*
X480787Y254138D01*
X480737Y254111D01*
X480707Y254081D01*
X480697Y254047D01*
Y255401D01*
X480707Y255368D01*
D02*
G37*
G36*
X390402Y271134D02*
X390317Y271181D01*
X390219Y271201D01*
X390108Y271195D01*
X389986Y271163D01*
X389850Y271104D01*
X389703Y271019D01*
X389543Y270907D01*
X389370Y270770D01*
X388988Y270415D01*
X388084Y270925D01*
X388292Y271140D01*
X388617Y271521D01*
X388735Y271687D01*
X388822Y271837D01*
X388878Y271970D01*
X388905Y272087D01*
X388901Y272187D01*
X388867Y272272D01*
X388803Y272340D01*
X390402Y271134D01*
D02*
G37*
G36*
X483265Y271321D02*
X483073Y271291D01*
X482731Y271212D01*
X482922Y271134D01*
X482819Y271163D01*
X482707Y271170D01*
X482587Y271154D01*
X482459Y271116D01*
X482322Y271055D01*
X482176Y270972D01*
X482022Y270866D01*
X481859Y270739D01*
X481688Y270588D01*
X481508Y270415D01*
X480210Y270532D01*
X480436Y270764D01*
X480784Y271168D01*
X480907Y271340D01*
X480997Y271492D01*
X481051Y271623D01*
X481072Y271734D01*
X481059Y271825D01*
X481011Y271896D01*
X480929Y271946D01*
X481383Y271761D01*
X481411Y271809D01*
X481465Y271923D01*
X481515Y272050D01*
X481562Y272190D01*
X481642Y272508D01*
X481676Y272687D01*
X481706Y272879D01*
X483265Y271321D01*
D02*
G37*
G36*
X438352Y266161D02*
X438383Y266076D01*
X438433Y266001D01*
X438504Y265936D01*
X438595Y265881D01*
X438706Y265836D01*
X438838Y265801D01*
X438897Y265791D01*
X438957Y265800D01*
X439101Y265835D01*
X439222Y265879D01*
X439322Y265933D01*
X439399Y265998D01*
X439454Y266072D01*
X439487Y266156D01*
X439498Y266249D01*
Y264263D01*
X439487Y264356D01*
X439454Y264440D01*
X439399Y264514D01*
X439322Y264578D01*
X439222Y264633D01*
X439101Y264677D01*
X438957Y264711D01*
X438897Y264721D01*
X438838Y264711D01*
X438706Y264676D01*
X438595Y264631D01*
X438504Y264576D01*
X438433Y264511D01*
X438383Y264436D01*
X438352Y264351D01*
X438342Y264256D01*
Y266256D01*
X438352Y266161D01*
D02*
G37*
G36*
X440916Y265929D02*
X440938Y265893D01*
X440974Y265861D01*
X441024Y265833D01*
X441090Y265809D01*
X441170Y265790D01*
X441264Y265775D01*
X441373Y265764D01*
X441634Y265756D01*
Y264756D01*
X441496Y264754D01*
X441264Y264737D01*
X441170Y264722D01*
X441090Y264703D01*
X441024Y264679D01*
X440974Y264651D01*
X440938Y264619D01*
X440916Y264583D01*
X440908Y264543D01*
Y265969D01*
X440916Y265929D01*
D02*
G37*
G36*
X456893Y263280D02*
X456704Y263275D01*
X456533Y263260D01*
X456384Y263234D01*
X456253Y263199D01*
X456144Y263155D01*
X456053Y263100D01*
X455983Y263035D01*
X455934Y262960D01*
X455903Y262875D01*
X455894Y262779D01*
Y263964D01*
X455903Y264024D01*
X455934Y264078D01*
X455983Y264125D01*
X456053Y264166D01*
X456144Y264201D01*
X456253Y264229D01*
X456384Y264251D01*
X456533Y264267D01*
X456893Y264280D01*
Y263280D01*
D02*
G37*
G36*
X431737Y264256D02*
X431727Y264351D01*
X431696Y264436D01*
X431645Y264511D01*
X431575Y264576D01*
X431484Y264631D01*
X431372Y264676D01*
X431241Y264711D01*
X431089Y264736D01*
X430917Y264751D01*
X430725Y264756D01*
Y265756D01*
X430917Y265761D01*
X431089Y265776D01*
X431241Y265801D01*
X431372Y265836D01*
X431484Y265881D01*
X431575Y265936D01*
X431645Y266001D01*
X431696Y266076D01*
X431727Y266161D01*
X431737Y266256D01*
Y264256D01*
D02*
G37*
G36*
X444233Y266742D02*
X444140Y266726D01*
X444050Y266705D01*
X443962Y266678D01*
X443878Y266646D01*
X443796Y266609D01*
X443717Y266567D01*
X443641Y266520D01*
X443568Y266467D01*
X443498Y266409D01*
X443431Y266346D01*
X442724Y267053D01*
X442787Y267120D01*
X442845Y267190D01*
X442898Y267263D01*
X442945Y267339D01*
X442987Y267418D01*
X443024Y267500D01*
X443056Y267584D01*
X443083Y267672D01*
X443104Y267762D01*
X443120Y267855D01*
X444233Y266742D01*
D02*
G37*
G36*
X392309Y272558D02*
X392340Y272474D01*
X392391Y272398D01*
X392462Y272334D01*
X392553Y272278D01*
X392665Y272234D01*
X392796Y272199D01*
X392947Y272174D01*
X393119Y272159D01*
X393310Y272153D01*
Y271153D01*
X392310Y271122D01*
X392299Y272654D01*
X392309Y272558D01*
D02*
G37*
G36*
X436855Y264634D02*
X436848Y264657D01*
X436829Y264678D01*
X436798Y264696D01*
X436753Y264712D01*
X436696Y264725D01*
X436626Y264736D01*
X436544Y264745D01*
X436341Y264755D01*
X436221Y264756D01*
Y265756D01*
X436341Y265757D01*
X436626Y265775D01*
X436696Y265787D01*
X436753Y265800D01*
X436798Y265816D01*
X436829Y265834D01*
X436848Y265855D01*
X436855Y265878D01*
Y264634D01*
D02*
G37*
G36*
X428943Y266974D02*
X428965Y266884D01*
X428991Y266797D01*
X429023Y266712D01*
X429060Y266631D01*
X429102Y266552D01*
X429150Y266476D01*
X429202Y266403D01*
X429260Y266333D01*
X429323Y266266D01*
X428616Y265559D01*
X428549Y265622D01*
X428479Y265680D01*
X428406Y265732D01*
X428330Y265780D01*
X428251Y265822D01*
X428170Y265859D01*
X428085Y265891D01*
X427998Y265917D01*
X427907Y265939D01*
X427814Y265955D01*
X428927Y267068D01*
X428943Y266974D01*
D02*
G37*
G36*
X493517Y253256D02*
X493532Y253084D01*
X493557Y252933D01*
X493592Y252801D01*
X493637Y252690D01*
X493692Y252599D01*
X493757Y252528D01*
X493832Y252477D01*
X493917Y252447D01*
X494012Y252437D01*
X492012D01*
X492107Y252447D01*
X492192Y252477D01*
X492267Y252528D01*
X492332Y252599D01*
X492387Y252690D01*
X492432Y252801D01*
X492467Y252933D01*
X492492Y253084D01*
X492507Y253256D01*
X492512Y253449D01*
X493512D01*
X493517Y253256D01*
D02*
G37*
G36*
X443503Y235827D02*
X443426Y235882D01*
X443347Y235930D01*
X443267Y235974D01*
X443184Y236011D01*
X443101Y236042D01*
X443015Y236068D01*
X442928Y236088D01*
X442839Y236103D01*
X442748Y236111D01*
X442656Y236114D01*
Y237114D01*
X442748Y237117D01*
X442839Y237126D01*
X442928Y237140D01*
X443015Y237160D01*
X443101Y237186D01*
X443184Y237217D01*
X443267Y237255D01*
X443347Y237298D01*
X443426Y237347D01*
X443503Y237401D01*
Y235827D01*
D02*
G37*
G36*
X404237Y235366D02*
X404179Y235396D01*
X404116Y235422D01*
X404048Y235446D01*
X403976Y235467D01*
X403899Y235484D01*
X403729Y235509D01*
X403637Y235517D01*
X403439Y235524D01*
X403429Y235564D01*
Y235524D01*
X402429Y235485D01*
Y236563D01*
X402439Y236555D01*
X402469Y236549D01*
X402519Y236543D01*
X402679Y236533D01*
X403247Y236526D01*
X403282Y236528D01*
X403367Y236540D01*
X403452Y236560D01*
X403537Y236588D01*
X403621Y236625D01*
X403705Y236669D01*
X403789Y236721D01*
X403872Y236782D01*
X403956Y236850D01*
X404039Y236927D01*
X404237Y235366D01*
D02*
G37*
G36*
X409613Y234496D02*
X408730Y233765D01*
X408134Y235201D01*
X408251Y235173D01*
X408363Y235153D01*
X408468Y235143D01*
X408567Y235142D01*
X408659Y235149D01*
X408745Y235166D01*
X408825Y235192D01*
X408899Y235227D01*
X408966Y235271D01*
X409027Y235324D01*
X409613Y234496D01*
D02*
G37*
G36*
X394422Y235485D02*
X394411Y235492D01*
X394382Y235498D01*
X394332Y235504D01*
X394172Y235514D01*
X393422Y235524D01*
Y236524D01*
X394422Y236563D01*
Y235485D01*
D02*
G37*
G36*
X469488Y238583D02*
X469410Y238638D01*
X469332Y238686D01*
X469251Y238729D01*
X469169Y238767D01*
X469085Y238798D01*
X468999Y238824D01*
X468912Y238844D01*
X468823Y238859D01*
X468733Y238867D01*
X468640Y238870D01*
Y239870D01*
X468733Y239873D01*
X468823Y239882D01*
X468912Y239896D01*
X468999Y239916D01*
X469085Y239942D01*
X469169Y239973D01*
X469251Y240011D01*
X469332Y240054D01*
X469410Y240103D01*
X469488Y240157D01*
Y238583D01*
D02*
G37*
G36*
X427697Y241547D02*
X427660Y241540D01*
X427642Y241519D01*
X427643Y241484D01*
X427663Y241434D01*
X427701Y241371D01*
X427758Y241293D01*
X427834Y241201D01*
X428042Y240975D01*
X428174Y240840D01*
X426760D01*
X426617Y240976D01*
X426474Y241098D01*
X426332Y241206D01*
X426190Y241299D01*
X426048Y241378D01*
X425907Y241443D01*
X425766Y241493D01*
X425626Y241529D01*
X425485Y241552D01*
X425345Y241559D01*
X427697Y241547D01*
D02*
G37*
G36*
X397965Y237063D02*
X396917D01*
X396922Y237068D01*
X396926Y237084D01*
X396929Y237111D01*
X396935Y237196D01*
X396941Y237598D01*
X397941D01*
X397965Y237063D01*
D02*
G37*
G36*
X489087Y237922D02*
X489102Y237750D01*
X489127Y237598D01*
X489162Y237467D01*
X489207Y237355D01*
X489262Y237264D01*
X489327Y237193D01*
X489402Y237143D01*
X489487Y237112D01*
X489582Y237102D01*
X487582D01*
X487677Y237112D01*
X487762Y237143D01*
X487837Y237193D01*
X487902Y237264D01*
X487957Y237355D01*
X488002Y237467D01*
X488037Y237598D01*
X488062Y237750D01*
X488077Y237922D01*
X488082Y238114D01*
X489082D01*
X489087Y237922D01*
D02*
G37*
G36*
X420681Y233721D02*
X420671Y233801D01*
X420641Y233874D01*
X420591Y233937D01*
X420521Y233993D01*
X420431Y234039D01*
X420321Y234078D01*
X420191Y234107D01*
X420041Y234129D01*
X419871Y234141D01*
X419681Y234146D01*
Y235146D01*
X419873Y235151D01*
X420045Y235166D01*
X420196Y235191D01*
X420327Y235226D01*
X420439Y235271D01*
X420530Y235326D01*
X420601Y235391D01*
X420652Y235466D01*
X420682Y235551D01*
X420693Y235646D01*
X420681Y233721D01*
D02*
G37*
G36*
X424211Y235551D02*
X424240Y235466D01*
X424291Y235391D01*
X424361Y235326D01*
X424450Y235271D01*
X424560Y235226D01*
X424690Y235191D01*
X424840Y235166D01*
X425010Y235151D01*
X425201Y235146D01*
Y234146D01*
X425010Y234141D01*
X424840Y234129D01*
X424690Y234107D01*
X424560Y234078D01*
X424450Y234039D01*
X424361Y233993D01*
X424291Y233937D01*
X424240Y233874D01*
X424211Y233801D01*
X424200Y233721D01*
Y235646D01*
X424211Y235551D01*
D02*
G37*
G36*
X402439Y234587D02*
X402469Y234580D01*
X402519Y234574D01*
X402679Y234565D01*
X403429Y234555D01*
Y233555D01*
X402429Y233516D01*
Y234594D01*
X402439Y234587D01*
D02*
G37*
G36*
X413569Y235551D02*
X413600Y235466D01*
X413651Y235391D01*
X413722Y235326D01*
X413813Y235271D01*
X413924Y235226D01*
X414055Y235191D01*
X414207Y235166D01*
X414378Y235151D01*
X414570Y235146D01*
Y234146D01*
X414380Y234141D01*
X414210Y234129D01*
X414060Y234107D01*
X413930Y234078D01*
X413820Y234039D01*
X413730Y233993D01*
X413660Y233937D01*
X413610Y233874D01*
X413580Y233801D01*
X413570Y233721D01*
X413558Y235646D01*
X413569Y235551D01*
D02*
G37*
G36*
X481482Y236535D02*
X481512Y236450D01*
X481563Y236375D01*
X481634Y236310D01*
X481725Y236255D01*
X481836Y236210D01*
X481968Y236175D01*
X482120Y236150D01*
X482292Y236135D01*
X482484Y236130D01*
Y235130D01*
X482292Y235125D01*
X482120Y235110D01*
X481968Y235085D01*
X481836Y235050D01*
X481725Y235005D01*
X481634Y234950D01*
X481563Y234885D01*
X481512Y234810D01*
X481482Y234725D01*
X481472Y234630D01*
Y236630D01*
X481482Y236535D01*
D02*
G37*
G36*
X391258Y237075D02*
X391288Y236960D01*
X391338Y236857D01*
X391408Y236769D01*
X391498Y236694D01*
X391608Y236633D01*
X391738Y236585D01*
X391888Y236551D01*
X392058Y236530D01*
X392248Y236524D01*
X391955Y235524D01*
X391759Y235518D01*
X391571Y235500D01*
X391392Y235470D01*
X391220Y235429D01*
X391057Y235375D01*
X390901Y235310D01*
X390754Y235233D01*
X390615Y235144D01*
X390484Y235043D01*
X390361Y234930D01*
X389654Y235637D01*
X389767Y235759D01*
X389868Y235890D01*
X389957Y236027D01*
X390034Y236173D01*
X390100Y236326D01*
X390153Y236486D01*
X390195Y236655D01*
X390224Y236830D01*
X390242Y237014D01*
X390248Y237205D01*
X391248D01*
X391258Y237075D01*
D02*
G37*
G36*
X430905Y233859D02*
X430828Y233913D01*
X430749Y233962D01*
X430668Y234005D01*
X430586Y234042D01*
X430502Y234074D01*
X430416Y234100D01*
X430329Y234120D01*
X430240Y234134D01*
X430150Y234143D01*
X430058Y234146D01*
Y235146D01*
X430150Y235149D01*
X430240Y235157D01*
X430329Y235172D01*
X430416Y235192D01*
X430502Y235217D01*
X430586Y235249D01*
X430668Y235286D01*
X430749Y235329D01*
X430828Y235378D01*
X430905Y235433D01*
Y233859D01*
D02*
G37*
G36*
X387596Y236188D02*
X387626Y236103D01*
X387676Y236028D01*
X387746Y235963D01*
X387836Y235908D01*
X387946Y235863D01*
X388076Y235828D01*
X388226Y235803D01*
X388396Y235788D01*
X388586Y235783D01*
Y234783D01*
X388396Y234778D01*
X388226Y234763D01*
X388076Y234738D01*
X387946Y234703D01*
X387836Y234658D01*
X387746Y234603D01*
X387676Y234538D01*
X387626Y234463D01*
X387596Y234378D01*
X387586Y234283D01*
Y236283D01*
X387596Y236188D01*
D02*
G37*
G36*
X389645Y247583D02*
X389724Y247534D01*
X389804Y247491D01*
X389886Y247454D01*
X389970Y247422D01*
X390056Y247396D01*
X390143Y247376D01*
X390232Y247362D01*
X390322Y247353D01*
X390415Y247350D01*
Y246350D01*
X390322Y246347D01*
X390232Y246339D01*
X390143Y246325D01*
X390056Y246304D01*
X389970Y246279D01*
X389886Y246247D01*
X389804Y246210D01*
X389724Y246167D01*
X389645Y246118D01*
X389567Y246063D01*
Y247637D01*
X389645Y247583D01*
D02*
G37*
G36*
X436023Y246063D02*
X435946Y246118D01*
X435867Y246167D01*
X435786Y246210D01*
X435704Y246247D01*
X435620Y246279D01*
X435535Y246304D01*
X435447Y246325D01*
X435359Y246339D01*
X435268Y246347D01*
X435176Y246350D01*
Y247350D01*
X435268Y247353D01*
X435359Y247362D01*
X435447Y247376D01*
X435535Y247396D01*
X435620Y247422D01*
X435704Y247454D01*
X435786Y247491D01*
X435867Y247534D01*
X435946Y247583D01*
X436023Y247637D01*
Y246063D01*
D02*
G37*
G36*
X441206Y245874D02*
X441221Y245702D01*
X441246Y245550D01*
X441281Y245419D01*
X441326Y245307D01*
X441381Y245216D01*
X441446Y245146D01*
X441521Y245095D01*
X441606Y245064D01*
X441701Y245054D01*
X439701D01*
X439796Y245064D01*
X439881Y245095D01*
X439956Y245146D01*
X440021Y245216D01*
X440076Y245307D01*
X440121Y245419D01*
X440156Y245550D01*
X440181Y245702D01*
X440196Y245874D01*
X440201Y246066D01*
X441201D01*
X441206Y245874D01*
D02*
G37*
G36*
X444947Y247364D02*
X445026Y247279D01*
X445106Y247203D01*
X445185Y247138D01*
X445265Y247082D01*
X445344Y247037D01*
X445424Y247002D01*
X445504Y246977D01*
X445584Y246962D01*
X445663Y246957D01*
X445587Y245957D01*
X444466Y245939D01*
X444867Y247460D01*
X444947Y247364D01*
D02*
G37*
G36*
X440968Y251616D02*
X441017Y251586D01*
X441060Y251536D01*
X441097Y251466D01*
X441129Y251376D01*
X441155Y251266D01*
X441175Y251136D01*
X441189Y250986D01*
X441201Y250626D01*
X440201D01*
X440196Y250816D01*
X440181Y250986D01*
X440156Y251136D01*
X440121Y251266D01*
X440076Y251376D01*
X440021Y251466D01*
X439956Y251536D01*
X439881Y251586D01*
X439796Y251616D01*
X439701Y251626D01*
X440913D01*
X440968Y251616D01*
D02*
G37*
G36*
X480707Y252218D02*
X480737Y252188D01*
X480787Y252162D01*
X480857Y252138D01*
X480947Y252119D01*
X481057Y252103D01*
X481337Y252082D01*
X481697Y252075D01*
Y251075D01*
X481507Y251073D01*
X480947Y251031D01*
X480857Y251011D01*
X480787Y250988D01*
X480737Y250961D01*
X480707Y250932D01*
X480697Y250898D01*
Y252252D01*
X480707Y252218D01*
D02*
G37*
G36*
X484167Y249452D02*
X484186Y249346D01*
X484216Y249234D01*
X484258Y249115D01*
X484312Y248990D01*
X484378Y248858D01*
X484547Y248576D01*
X484649Y248426D01*
X484763Y248269D01*
X482560D01*
X482674Y248426D01*
X482945Y248858D01*
X483011Y248990D01*
X483065Y249115D01*
X483107Y249234D01*
X483137Y249346D01*
X483155Y249452D01*
X483161Y249552D01*
X484161D01*
X484167Y249452D01*
D02*
G37*
G36*
X493470Y250949D02*
X493590Y250861D01*
X493726Y250779D01*
X493877Y250703D01*
X494043Y250634D01*
X494225Y250571D01*
X494422Y250513D01*
X494862Y250417D01*
X495105Y250378D01*
X493323Y248597D01*
X493284Y248840D01*
X493188Y249280D01*
X493131Y249477D01*
X493067Y249658D01*
X492998Y249824D01*
X492922Y249975D01*
X492840Y250111D01*
X492753Y250231D01*
X492659Y250336D01*
X493366Y251043D01*
X493470Y250949D01*
D02*
G37*
G36*
X433695Y244212D02*
X433725Y244127D01*
X433776Y244052D01*
X433847Y243987D01*
X433938Y243932D01*
X434049Y243887D01*
X434180Y243852D01*
X434332Y243827D01*
X434504Y243812D01*
X434697Y243807D01*
Y242807D01*
X434504Y242802D01*
X434332Y242787D01*
X434180Y242762D01*
X434049Y242727D01*
X433938Y242682D01*
X433847Y242627D01*
X433776Y242562D01*
X433725Y242487D01*
X433695Y242402D01*
X433685Y242307D01*
Y244307D01*
X433695Y244212D01*
D02*
G37*
G36*
X450196Y242520D02*
X450119Y242575D01*
X450040Y242623D01*
X449960Y242667D01*
X449877Y242704D01*
X449793Y242735D01*
X449708Y242761D01*
X449621Y242781D01*
X449532Y242796D01*
X449441Y242804D01*
X449349Y242807D01*
X449349Y243807D01*
X449441Y243810D01*
X449532Y243819D01*
X449621Y243833D01*
X449708Y243853D01*
X449793Y243879D01*
X449877Y243911D01*
X449960Y243948D01*
X450040Y243991D01*
X450119Y244040D01*
X450196Y244094D01*
X450196Y242520D01*
D02*
G37*
G36*
X407283Y241339D02*
X407206Y241393D01*
X407127Y241442D01*
X407046Y241485D01*
X406964Y241523D01*
X406880Y241554D01*
X406795Y241580D01*
X406707Y241600D01*
X406618Y241615D01*
X406528Y241623D01*
X406436Y241626D01*
X406436Y242626D01*
X406528Y242629D01*
X406618Y242637D01*
X406707Y242652D01*
X406795Y242672D01*
X406880Y242698D01*
X406964Y242729D01*
X407046Y242767D01*
X407127Y242810D01*
X407206Y242859D01*
X407283Y242913D01*
X407283Y241339D01*
D02*
G37*
G36*
X448262Y244212D02*
X448292Y244127D01*
X448343Y244052D01*
X448414Y243987D01*
X448505Y243932D01*
X448616Y243887D01*
X448747Y243852D01*
X448899Y243827D01*
X449071Y243812D01*
X449264Y243807D01*
Y242807D01*
X449071Y242802D01*
X448899Y242787D01*
X448747Y242762D01*
X448616Y242727D01*
X448505Y242682D01*
X448414Y242627D01*
X448343Y242562D01*
X448292Y242487D01*
X448262Y242402D01*
X448252Y242307D01*
Y244307D01*
X448262Y244212D01*
D02*
G37*
G36*
X475078Y245307D02*
X475157Y245258D01*
X475237Y245215D01*
X475319Y245178D01*
X475403Y245146D01*
X475489Y245120D01*
X475576Y245100D01*
X475665Y245086D01*
X475756Y245077D01*
X475848Y245074D01*
Y244074D01*
X475756Y244071D01*
X475665Y244063D01*
X475576Y244049D01*
X475489Y244028D01*
X475403Y244003D01*
X475319Y243971D01*
X475237Y243934D01*
X475157Y243891D01*
X475078Y243842D01*
X475000Y243787D01*
Y245361D01*
X475078Y245307D01*
D02*
G37*
G36*
X496469Y247912D02*
X496507Y247608D01*
X496570Y247299D01*
X496658Y246988D01*
X496771Y246672D01*
X496910Y246353D01*
X497073Y246030D01*
X497262Y245704D01*
X497715Y245041D01*
X492049D01*
X492288Y245374D01*
X492690Y246030D01*
X492854Y246353D01*
X492992Y246672D01*
X493106Y246988D01*
X493194Y247299D01*
X493257Y247608D01*
X493294Y247912D01*
X493307Y248214D01*
X496457D01*
X496469Y247912D01*
D02*
G37*
G36*
X432164Y244040D02*
X432243Y243991D01*
X432324Y243948D01*
X432406Y243911D01*
X432490Y243879D01*
X432575Y243853D01*
X432663Y243833D01*
X432752Y243819D01*
X432842Y243810D01*
X432934Y243807D01*
X432935Y242807D01*
X432842Y242805D01*
X432752Y242796D01*
X432663Y242782D01*
X432576Y242761D01*
X432490Y242736D01*
X432406Y242704D01*
X432324Y242667D01*
X432243Y242624D01*
X432164Y242575D01*
X432087Y242520D01*
X432087Y244094D01*
X432164Y244040D01*
D02*
G37*
G36*
X376497Y247783D02*
X377247Y247132D01*
X377485Y246952D01*
X377944Y246649D01*
X378166Y246526D01*
X378381Y246421D01*
X378590Y246336D01*
X373828Y243268D01*
X373854Y243760D01*
X373840Y244646D01*
X373800Y245040D01*
X373738Y245401D01*
X373654Y245730D01*
X373548Y246027D01*
X373421Y246291D01*
X373271Y246522D01*
X373099Y246721D01*
X376236Y248038D01*
X376497Y247783D01*
D02*
G37*
D10*
X453734Y187131D02*
X453443Y188202D01*
X452651Y188979D01*
X451575Y189251D01*
X450784Y189082D01*
X450114Y188630D01*
X419326Y188548D02*
X418806Y187662D01*
X418764Y186635D01*
X419210Y185709D01*
X420039Y185102D01*
X421056Y184955D01*
X422023Y185305D01*
X422711Y186067D01*
X422960Y187065D01*
X419341Y188564D02*
X419326Y188548D01*
X497337Y227731D02*
X497106Y228694D01*
X496463Y229447D01*
X495548Y229825D01*
X494561Y229748D01*
X493717Y229231D01*
X493188Y228347D01*
X493137Y227318D01*
X493578Y226386D01*
X494405Y225773D01*
X495424Y225621D01*
X496394Y225969D01*
X497086Y226732D01*
X497337Y227731D01*
X422960Y187065D02*
X422729Y188027D01*
X422086Y188780D01*
X421172Y189159D01*
X420185Y189081D01*
X419341Y188564D01*
X450114Y188630D02*
X449584Y187746D01*
X449534Y186717D01*
X449974Y185786D01*
X450802Y185172D01*
X451821Y185021D01*
X452791Y185368D01*
X453483Y186131D01*
X453734Y187131D01*
X470079Y228150D02*
X474213D01*
X412448Y234646D02*
X431496D01*
X401634Y234055D02*
X408464D01*
X476575Y261024D02*
X479528D01*
X417626Y262008D02*
X419193D01*
X398031Y259252D02*
X400984Y256299D01*
X398031Y259252D02*
Y264961D01*
X385335Y251575D02*
X393504D01*
X381299Y250591D02*
X384350D01*
X417205Y208563D02*
X420716Y212074D01*
X426870Y214272D02*
X432677Y220079D01*
X426870Y208760D02*
Y214272D01*
X425984Y207874D02*
X426870Y208760D01*
X394882Y209055D02*
X395374Y208563D01*
X417205D01*
X405118Y212992D02*
X407382Y215256D01*
X402220Y217913D02*
X422244D01*
X399759Y220374D02*
X402220Y217913D01*
X397441Y220374D02*
X399759D01*
X422244Y217913D02*
X423622Y219291D01*
X393799Y223721D02*
X399410D01*
X392323Y222244D02*
X393799Y223721D01*
X392323Y220374D02*
Y222244D01*
X399410Y223721D02*
X401083Y222047D01*
X394882Y209055D02*
Y211516D01*
X392520Y206693D02*
X394882Y209055D01*
X405118Y211122D02*
Y212992D01*
X419193Y207874D02*
X425984D01*
X418012Y206693D02*
X419193Y207874D01*
X407874Y206693D02*
X418012D01*
X407382Y215256D02*
X422342D01*
X429134Y222047D01*
X401083Y222047D02*
X405118D01*
X405906Y221259D01*
X414717D01*
X417848Y203281D02*
X420669Y206102D01*
X427854D01*
X429724Y207972D01*
Y213484D01*
X434646Y218406D01*
X423622Y219291D02*
Y220698D01*
X405118Y203937D02*
X407874Y206693D01*
X414115Y203281D02*
X417848D01*
X388886Y225500D02*
X406548D01*
X385039Y221654D02*
X388886Y225500D01*
X385039Y214961D02*
Y221654D01*
X451575Y187008D02*
Y189251D01*
Y194732D01*
X417717Y190157D02*
X419326Y188548D01*
X420866Y187008D01*
X442520Y229921D02*
X460386D01*
X447244Y221654D02*
X451331D01*
X392520Y203937D02*
Y206693D01*
X451724Y194882D02*
Y203281D01*
X451575Y194732D02*
X451724Y194882D01*
X445013Y203281D02*
X451724D01*
X437598Y252756D02*
X440158D01*
X435039D02*
X437598D01*
X432480D02*
X435039D01*
X388986Y261407D02*
X393504D01*
X386614Y263779D02*
X388986Y261407D01*
X389360Y258258D02*
X393504D01*
X388976Y257874D02*
X389360Y258258D01*
X386614Y263779D02*
Y268748D01*
X390551Y272685D01*
X493012Y250689D02*
X494882Y248819D01*
X471850Y256299D02*
X476575Y261024D01*
X417323Y262311D02*
X417626Y262008D01*
X457677Y258858D02*
X458661Y257874D01*
X434646Y218406D02*
Y220866D01*
X438977Y239370D02*
X470079D01*
X435039Y243307D02*
X438977Y239370D01*
X432134Y243307D02*
X435039D01*
X429331Y238976D02*
X433858D01*
X426134Y242173D02*
X429331Y238976D01*
X426134Y242173D02*
Y243307D01*
X404528Y236024D02*
X404724Y236221D01*
X401634Y236024D02*
X404528D01*
X456693Y198819D02*
X462992D01*
X454724Y200787D02*
X456693Y198819D01*
X454724Y200787D02*
Y205906D01*
X442126Y190945D02*
Y206299D01*
X436221Y185039D02*
X442126Y190945D01*
X395669Y271654D02*
X401378Y265945D01*
X424213D01*
X396457Y266535D02*
X398031Y264961D01*
X391732Y266535D02*
X396457D01*
X437598Y265256D02*
X440158D01*
X425984Y254331D02*
Y264173D01*
X458661Y257874D02*
X464370D01*
X485433Y262008D02*
X492520D01*
X484449Y261024D02*
X485433Y262008D01*
X479331Y261024D02*
X484449D01*
X450197Y250591D02*
X451181Y251575D01*
X384350Y250591D02*
X385335Y251575D01*
X479331D02*
X482185D01*
X483661Y250098D01*
Y247441D02*
Y250098D01*
X413189Y254724D02*
X413681Y254232D01*
X424213Y265945D02*
X425984Y264173D01*
X464087Y254442D02*
X464370Y254724D01*
X391339Y271654D02*
X395669D01*
X385827Y235283D02*
X390008D01*
X390748Y236024D01*
X395217D01*
X399409Y228150D02*
Y229862D01*
X397441D02*
Y232087D01*
X395217Y236024D02*
X395369D01*
X397441Y232087D02*
X398425Y233071D01*
X432480Y232087D02*
X432677Y231890D01*
X422441Y229283D02*
Y232086D01*
X422441Y232087D02*
X422441Y232086D01*
X401634Y232087D02*
X422441D01*
X398425Y233071D02*
X399409Y234055D01*
X401634D01*
X397441Y236279D02*
Y237598D01*
X407480Y227559D02*
X408661Y226378D01*
X428346Y229921D02*
X430709D01*
X424803Y226378D02*
X428346Y229921D01*
X408661Y226378D02*
X424803D01*
X422441Y232087D02*
X432480D01*
X428627Y227953D02*
X431496D01*
X425462Y224787D02*
X428627Y227953D01*
X428908Y225984D02*
X431496D01*
X423622Y220698D02*
X428908Y225984D01*
X422894Y203281D02*
X433089D01*
X414115Y195484D02*
Y203281D01*
Y195484D02*
X414716Y194882D01*
X442520Y209842D02*
Y222047D01*
X443274Y224016D02*
X444882Y222408D01*
X420716Y194882D02*
X433220D01*
X436221Y201426D02*
Y204724D01*
X433220Y198425D02*
X436221Y201426D01*
X433220Y194882D02*
Y198425D01*
X436221Y204724D02*
X438189Y206693D01*
X439370D01*
X442520Y209842D01*
X433089Y205923D02*
X436614Y209449D01*
X433089Y203281D02*
Y205923D01*
X441732Y224016D02*
X443274D01*
X440701Y243307D02*
Y252213D01*
X440158Y252756D02*
X440701Y252213D01*
X451724Y212073D02*
Y221260D01*
X451724Y212073D02*
X451724Y212073D01*
X439221Y212074D02*
X440551Y213404D01*
Y216357D01*
X440658Y216463D01*
Y218182D01*
X440551Y218288D02*
X440658Y218182D01*
X440551Y218288D02*
Y220079D01*
X436614Y209449D02*
Y216357D01*
X436508Y216463D02*
X436614Y216357D01*
X436508Y216463D02*
Y218182D01*
X436614Y218288D01*
Y220866D01*
X397441Y237598D02*
X398819Y238976D01*
X429626Y265256D02*
X432480D01*
X427953Y266929D02*
X429626Y265256D01*
X479331Y254724D02*
X482677D01*
X486221Y251181D01*
X446701Y243307D02*
X450787D01*
X460386Y229921D02*
X461024Y229283D01*
X440551Y231890D02*
X442520Y233858D01*
X446063D01*
X444882Y209055D02*
Y222408D01*
X442126Y206299D02*
X444882Y209055D01*
Y203150D02*
X445013Y203281D01*
X451331Y221654D02*
X451724Y221260D01*
X406548Y225500D02*
X407261Y224787D01*
X425462D01*
X451724Y208906D02*
X454724Y205906D01*
X451724Y208906D02*
Y212073D01*
X479528Y228150D02*
X483268D01*
X484252Y229134D01*
X483268Y235630D02*
X484252Y234646D01*
X479528Y235630D02*
X483268D01*
X488582Y227107D02*
Y231103D01*
X487795Y231890D02*
X488582Y231103D01*
X484252Y231890D02*
X487795D01*
X484252Y229134D02*
Y231890D01*
Y234646D01*
X440158Y265256D02*
X441634D01*
X444095Y267717D01*
X436614Y227559D02*
X438189D01*
X438583Y227953D01*
X441732D01*
X441732Y227953D01*
X484732Y244574D02*
X486221Y246063D01*
Y251181D01*
X488582Y235886D02*
Y238583D01*
X457087Y242126D02*
X485039D01*
X488582Y238583D01*
X474016Y244574D02*
X474409D01*
X484732D01*
X439764Y236614D02*
X444095D01*
X444882Y246457D02*
X452756D01*
X457087Y242126D01*
X461024Y229283D02*
X466292Y224016D01*
X477165Y205906D02*
X479134Y203937D01*
X474981Y224016D02*
X477165Y221832D01*
X466292Y224016D02*
X474981D01*
X477165Y205906D02*
Y221832D01*
X474213Y228150D02*
X487402Y214961D01*
X417717Y190157D02*
Y198104D01*
X422894Y203281D01*
X388976Y246850D02*
X436614D01*
X433071Y237008D02*
X434646Y235433D01*
X398819Y238976D02*
X424803D01*
X426772Y237008D01*
X433071D01*
X433858Y238976D02*
X436614Y236221D01*
X411811Y235283D02*
X412448Y234646D01*
X408464Y234055D02*
X409693Y235283D01*
X411811D01*
X438583Y231102D02*
Y235433D01*
X439764Y236614D01*
X436614Y231102D02*
Y236221D01*
X434646Y231102D02*
Y235433D01*
X429134Y222047D02*
X430709D01*
X387551Y227559D02*
X407480D01*
X385827Y229283D02*
X387551Y227559D01*
X441732Y225984D02*
X460236D01*
X464567Y221654D01*
X474409D01*
X436221Y265256D02*
X436614Y265650D01*
X436221Y265256D02*
X437598D01*
X381299Y256496D02*
Y260433D01*
Y256496D02*
X383071Y254724D01*
X479331Y257874D02*
X490158D01*
X493012Y255019D01*
Y250689D02*
Y255019D01*
X398322Y233071D02*
X398425D01*
X390748Y236024D02*
Y237205D01*
X395669Y242126D01*
X407874D01*
X408465Y257874D02*
X414370D01*
X444095Y247244D02*
X444882Y246457D01*
X462992Y198819D02*
X467717Y194094D01*
X458192Y254442D02*
X464087D01*
X408465Y254724D02*
X413189D01*
X448819Y263779D02*
X474165D01*
X483071Y272685D01*
X383071Y254724D02*
X393504D01*
X380118Y262008D02*
X381299D01*
D11*
X392323Y220374D02*
D03*
X397441D02*
D03*
Y211516D02*
D03*
X394882D02*
D03*
X392323D02*
D03*
D12*
X470079Y228150D02*
D03*
Y235630D02*
D03*
X479528D02*
D03*
Y228150D02*
D03*
Y231890D02*
D03*
D13*
X488582Y235886D02*
D03*
Y227107D02*
D03*
D14*
X432134Y243307D02*
D03*
X440701Y243307D02*
D03*
X451724Y194882D02*
D03*
X451724Y203280D02*
D03*
X433221Y194882D02*
D03*
X451724Y221260D02*
D03*
X451724Y212073D02*
D03*
X420716Y194882D02*
D03*
X420716Y212074D02*
D03*
X413535Y303543D02*
D03*
X414717Y221259D02*
D03*
X439220Y203150D02*
D03*
X439221Y212074D02*
D03*
X459299Y303544D02*
D03*
D15*
X426134Y243307D02*
D03*
X446701Y243307D02*
D03*
X457724Y194882D02*
D03*
X457724Y203281D02*
D03*
X439221Y194882D02*
D03*
X457725Y221260D02*
D03*
X457724Y212073D02*
D03*
X414716Y194882D02*
D03*
X414716Y212074D02*
D03*
X419535Y303543D02*
D03*
X420717Y221260D02*
D03*
X433220Y203150D02*
D03*
X433221Y212074D02*
D03*
X453299Y303543D02*
D03*
D16*
X432480Y265256D02*
D03*
X435039D02*
D03*
X437598D02*
D03*
X432480Y252756D02*
D03*
X435039D02*
D03*
X437598D02*
D03*
X440158D02*
D03*
D17*
X440158Y265256D02*
D03*
D18*
X436319Y257756D02*
D03*
D19*
X430709Y222047D02*
D03*
X442520D02*
D03*
Y229921D02*
D03*
X430709D02*
D03*
D20*
X431496Y224016D02*
D03*
Y225984D02*
D03*
Y227953D02*
D03*
X441732D02*
D03*
Y225984D02*
D03*
Y224016D02*
D03*
D21*
X434646Y231102D02*
D03*
X436614D02*
D03*
X438583D02*
D03*
Y220866D02*
D03*
X436614D02*
D03*
X434646D02*
D03*
D22*
X432677Y220079D02*
D03*
X440551D02*
D03*
Y231890D02*
D03*
X432677D02*
D03*
D23*
X450787Y235283D02*
D03*
X422441Y235283D02*
D03*
X461024Y235283D02*
D03*
X390551Y266685D02*
D03*
X482677Y266685D02*
D03*
X385827Y235283D02*
D03*
X411811Y229283D02*
D03*
D24*
X450788D02*
D03*
X422441Y229283D02*
D03*
X461024Y229283D02*
D03*
X390551Y272685D02*
D03*
X482677Y272685D02*
D03*
X385827Y229283D02*
D03*
X411811Y235283D02*
D03*
D25*
X381299Y250689D02*
D03*
Y262106D02*
D03*
X419193Y250787D02*
D03*
Y262205D02*
D03*
X493012Y262106D02*
D03*
Y250689D02*
D03*
X452362Y262205D02*
D03*
Y250787D02*
D03*
D26*
X401634Y230118D02*
D03*
D27*
Y232087D02*
D03*
Y234055D02*
D03*
Y236024D02*
D03*
X395217D02*
D03*
Y234055D02*
D03*
Y232087D02*
D03*
Y230118D02*
D03*
D28*
X399409Y236279D02*
D03*
X397441D02*
D03*
Y229862D02*
D03*
X399409D02*
D03*
D29*
X393504Y261407D02*
D03*
Y258258D02*
D03*
Y255108D02*
D03*
Y251959D02*
D03*
X408465D02*
D03*
Y255108D02*
D03*
Y258258D02*
D03*
Y261407D02*
D03*
X479331Y251575D02*
D03*
Y254724D02*
D03*
Y257874D02*
D03*
Y261024D02*
D03*
X464370D02*
D03*
Y257874D02*
D03*
Y254724D02*
D03*
Y251575D02*
D03*
D30*
X400984Y256683D02*
D03*
X471850Y256299D02*
D03*
D31*
X410827Y276969D02*
D03*
Y294685D02*
D03*
X464961Y276969D02*
D03*
Y294685D02*
D03*
D32*
X414115Y203281D02*
D03*
X422894D02*
D03*
D33*
X434675Y259400D02*
X435118Y259842D01*
X494882Y243898D02*
Y248819D01*
X409941Y294685D02*
X410827D01*
X418602Y293701D02*
X420965Y294685D01*
X410827D02*
X419587D01*
X410827D02*
X410827D01*
X411811Y295669D01*
X418602Y293701D02*
X419587Y294685D01*
X463189Y294153D02*
X463386Y294125D01*
X455020Y293799D02*
X463386D01*
X450000Y259842D02*
X452362Y262205D01*
X377362Y243012D02*
Y244685D01*
X374213Y247835D02*
X377362Y244685D01*
X463386Y293799D02*
Y294125D01*
X464850Y293914D01*
X464961Y293898D01*
X459299Y303544D02*
X463386Y299457D01*
X409941Y299949D02*
X413535Y303543D01*
X374213Y247835D02*
Y256102D01*
X380118Y262008D01*
X409941Y294291D02*
Y294685D01*
Y299949D01*
X433661Y258386D02*
X434675Y259400D01*
X463386Y294125D02*
Y299457D01*
Y293799D02*
X471555D01*
D34*
X391240Y281791D02*
X403937Y294488D01*
X471555Y293799D02*
X484252Y281102D01*
D35*
X436565Y272441D02*
D03*
D36*
X438976Y266929D02*
D03*
D37*
X449606Y259646D02*
D03*
D38*
X422835Y252953D02*
D03*
D39*
X405118Y194094D02*
D03*
X479134Y203937D02*
D03*
X385039Y214961D02*
D03*
X405118Y222047D02*
D03*
X392520Y203937D02*
D03*
X436221Y185039D02*
D03*
X405118Y203937D02*
D03*
X405118Y212992D02*
D03*
X488189Y214961D02*
D03*
D40*
X377362Y243012D02*
D03*
X390551Y281102D02*
D03*
X436614Y285039D02*
D03*
X494882Y242913D02*
D03*
X436713Y272441D02*
D03*
X484252Y281102D02*
D03*
D41*
X414961Y212205D02*
D03*
X420717Y221260D02*
D03*
X420571Y212205D02*
D03*
X388976Y257874D02*
D03*
X414961Y257087D02*
D03*
X413386Y260236D02*
D03*
X458268Y252362D02*
D03*
X456299Y255118D02*
D03*
X411811Y257087D02*
D03*
X460236Y255118D02*
D03*
X403150Y261014D02*
D03*
Y256683D02*
D03*
Y252352D02*
D03*
X398819Y261014D02*
D03*
Y256683D02*
D03*
Y252352D02*
D03*
X469685Y251969D02*
D03*
Y256299D02*
D03*
Y260630D02*
D03*
X474016Y251969D02*
D03*
Y256299D02*
D03*
Y260630D02*
D03*
X438583Y217323D02*
D03*
X417323Y229528D02*
D03*
X404724Y236221D02*
D03*
X439221Y212074D02*
D03*
X439220Y203150D02*
D03*
X470079Y227953D02*
D03*
Y239370D02*
D03*
X427953Y243307D02*
D03*
Y266929D02*
D03*
X450787Y243307D02*
D03*
X447244Y233858D02*
D03*
Y221654D02*
D03*
X444882Y203150D02*
D03*
X433221Y212074D02*
D03*
X459055Y216929D02*
D03*
X444095Y246850D02*
D03*
Y267717D02*
D03*
X388976Y246850D02*
D03*
X436614Y227559D02*
D03*
X474409Y244574D02*
D03*
X444095Y236614D02*
D03*
X436614Y246850D02*
D03*
X450787Y228346D02*
D03*
X474409Y221654D02*
D03*
X407874Y234252D02*
D03*
X391732Y233071D02*
D03*
X431496Y243307D02*
D03*
Y234646D02*
D03*
X407874Y242126D02*
D03*
D42*
X441609Y271063D02*
D03*
X431767D02*
D03*
Y274606D02*
D03*
X441609D02*
D03*
X470177Y277756D02*
D03*
X467347D02*
D03*
X461688D02*
D03*
X464518D02*
D03*
X404035D02*
D03*
X406791D02*
D03*
X409547D02*
D03*
X412303D02*
D03*
X483071Y272685D02*
D03*
X483661Y247441D02*
D03*
X458858Y277756D02*
D03*
X415059D02*
D03*
X413583Y258268D02*
D03*
X458192Y254442D02*
D03*
D43*
X424016Y303543D02*
D03*
X380709Y272047D02*
D03*
X448819Y303543D02*
D03*
D44*
X377756Y227362D02*
D03*
M02*
